<?xml version="1.0" standalone="no"?>
<!DOCTYPE svg PUBLIC "-//W3C//DTD SVG 1.1//EN" "http://www.w3.org/Graphics/SVG/1.1/DTD/svg11.dtd" >
<svg xmlns="http://www.w3.org/2000/svg">
<metadata>
Created by FontPrep 20130207 at Wed Mar 11 16:47:42 2015
 By Colin Poindexter
Copyright (c) 2008 by Jos Buivenga/exljbris. All rights reserved.
</metadata>
<defs>
<font id="e3e98f6b6cb95391f30e0ab01b7437d9" horiz-adv-x='1024' >
  <font-face 
    font-family="Museo-500"
    font-weight="400"
    font-stretch="normal"
    units-per-em="2048"
    panose-1="2 0 0 0 0 0 0 0 0 0"
    ascent="1536"
    descent="-512"
    x-height="1036"
    cap-height="1446"
    bbox="-109 -485 2302 1827"
    underline-thickness="102"
    underline-position="-102"
    unicode-range="U+0020-FB04"
  />
<missing-glyph horiz-adv-x="1044" 
d="M174 102h696l-348 523zM113 195l348 522l-348 522v-1044zM584 717l348 -522v1044zM522 809l348 522h-696zM10 0v1434h1024v-1434h-1024z" />
    <glyph glyph-name="f_f" unicode="ff" horiz-adv-x="1308" 
d="M174 0v877h-129v159h129v35q0 98 29 171t70 113q106 101 292 101l76 -6v-170q-20 4 -72 4t-103 -28q-95 -54 -93 -191v-29h446v35q0 98 29 171q51 127 169 176q89 38 193 38l76 -6v-170q-23 4 -74 4t-101 -28q-95 -54 -93 -191v-29h244v-159h-244v-877h-199v877h-446
v-877h-199z" />
    <glyph glyph-name="fi" unicode="fi" horiz-adv-x="1208" 
d="M831 1239v207h181v-207h-181zM174 0v877h-129v159h129v35q0 98 29 171t70 113q106 101 292 101l76 -6v-170q-23 4 -75 4t-101 -28q-94 -55 -92 -191v-29h522q71 0 101 -30t30 -101v-690q0 -45 45 -45h84v-170h-194q-70 0 -102 31t-32 100v700q0 45 -45 46h-409v-877h-199
z" />
    <glyph glyph-name="fl" unicode="fl" horiz-adv-x="1193" 
d="M565 1446h318q71 0 101 -31t30 -100v-1100q0 -45 45 -45h84v-170h-197q-70 0 -100 31t-31 100v1100q0 45 -45 45h-180q-217 0 -217 -209v-31h245v-159h-245v-877h-199v877h-129v159h129v35q0 98 29 170t69 110q41 39 115 67t178 28z" />
    <glyph glyph-name="f_f_i" unicode="ffi" horiz-adv-x="1851" 
d="M1477 1239v207h178v-207h-178zM174 0v877h-129v159h129v35q0 98 29 171t70 113q106 101 292 101l76 -6v-170q-23 4 -75 4t-101 -28q-94 -55 -92 -191v-29h446v35q0 98 29 171q51 127 169 176q89 38 193 38l76 -6v-170q-23 4 -75 4t-101 -28q-94 -55 -92 -191v-29h522
q70 0 100 -30t31 -101v-690q0 -45 45 -45h84v-170h-196q-70 0 -101 31t-30 100v700q0 45 -46 46h-409v-877h-199v877h-446v-877h-199z" />
    <glyph glyph-name="f_f_l" unicode="ffl" horiz-adv-x="1837" 
d="M1208 1446h318q70 0 100 -31t31 -100v-1100q0 -45 45 -45h84v-170h-197q-71 0 -101 31t-30 100v1100q0 45 -45 45h-180q-217 0 -217 -209v-31h246v-159h-246v-877h-199v877h-444v-877h-199v877h-129v159h129v39q0 96 29 169t68 112q103 100 290 100l80 -6v-170
q-25 4 -76 4t-100 -28q-94 -55 -92 -189v-31h444v35q0 98 29 170t69 110q41 39 115 67t178 28z" />
    <glyph glyph-name="f_j" unicode="fj" horiz-adv-x="1241" 
d="M877 1239v207h178v-207h-178zM174 0v877h-129v159h129v35q0 98 29 171t70 113q106 101 292 101l76 -6v-170q-23 4 -75 4t-101 -28q-94 -55 -92 -191v-29h565q70 0 100 -30t31 -101v-940q0 -98 -30 -172q-29 -74 -71 -114q-105 -101 -296 -101l-70 4v170q18 -2 69 -2
t102 28q99 54 97 199v854q0 45 -45 46h-452v-877h-199z" />
    <glyph glyph-name=".notdef" horiz-adv-x="1044" 
d="M174 102h696l-348 523zM113 195l348 522l-348 522v-1044zM584 717l348 -522v1044zM522 809l348 522h-696zM10 0v1434h1024v-1434h-1024z" />
    <glyph glyph-name=".null" horiz-adv-x="0" 
 />
    <glyph glyph-name="nonmarkingreturn" horiz-adv-x="681" 
 />
    <glyph glyph-name="space" unicode=" " horiz-adv-x="550" 
 />
    <glyph glyph-name="space" unicode="&#xa0;" horiz-adv-x="550" 
 />
    <glyph glyph-name="exclam" unicode="!" horiz-adv-x="643" 
d="M221 0v199h203v-199h-203zM233 397l-14 1049h205l-12 -1049h-179z" />
    <glyph glyph-name="quotedbl" unicode="&#x22;" horiz-adv-x="696" 
d="M127 1085v385h156v-385h-156zM414 1085v385h155v-385h-155z" />
    <glyph glyph-name="numbersign" unicode="#" horiz-adv-x="1445" 
d="M535 543h317l61 344h-317zM274 0l68 391h-266l24 152h269l59 344h-264l24 149h267l71 410h166l-71 -410h317l72 410h166l-72 -410h268l-26 -149h-267l-61 -344h266l-27 -152h-264l-69 -391h-166l67 391h-317l-68 -391h-166z" />
    <glyph glyph-name="dollar" unicode="$" horiz-adv-x="1118" 
d="M131 1102q1 136 105 238q104 101 272 124v193h149v-191q82 -10 154 -36t128 -84q56 -59 56 -142v-119h-188v68q-1 55 -63 93t-164 38t-170 -53q-70 -53 -70 -123t39 -118q62 -75 242 -151t277 -154q60 -48 99 -126t39 -176q0 -153 -103 -267t-276 -134v-191h-149v189
q-206 25 -356 188q-35 37 -50 61l-16 27l145 121q10 -19 50 -66q41 -47 77 -75t98 -51q60 -24 126 -23q112 0 180 60t68 150t-72 150t-175 106t-205 99t-175 146q-72 93 -72 229z" />
    <glyph glyph-name="percent" unicode="%" horiz-adv-x="1603" 
d="M1174 432q-64 0 -108 -45t-44 -109t44 -108q44 -43 108 -43t107 44q44 43 44 107t-44 109t-107 45zM862 278q0 126 91 215t219 89t221 -89q92 -89 92 -214t-92 -214t-221 -89t-220 87q-90 89 -90 215zM430 1016q66 0 109 43t43 107t-44 110t-108 45q-64 0 -107 -45
q-44 -45 -44 -110q1 -66 43 -108t108 -42zM152 0l1105 1446h193l-1106 -1446h-192zM430 864q-129 0 -219 88t-90 214t90 215t219 89t220 -89t91 -214t-91 -214t-220 -89z" />
    <glyph glyph-name="ampersand" unicode="&#x26;" horiz-adv-x="1306" 
d="M627 674q-158 0 -244 -68t-86 -182t81 -188t217 -74t213 81t77 246v185h-258zM90 414q0 119 67 223t183 137v4q-23 6 -60 36q-126 102 -126 277t119 277q120 102 315 102q61 0 157 -16l25 -6l-51 -162q-59 14 -109 14q-112 0 -182 -62t-70 -152t50 -156q60 -82 217 -80
h260v186h198v-186h183v-176h-183v-193q0 -241 -131 -373t-355 -132t-366 124q-141 126 -141 314z" />
    <glyph glyph-name="quotesingle" unicode="'" horiz-adv-x="411" 
d="M127 1085v385h158v-385h-158z" />
    <glyph glyph-name="parenleft" unicode="(" horiz-adv-x="675" 
d="M170 664q0 484 231 841h174q-225 -377 -225 -833t236 -867h-176q-240 375 -240 859z" />
    <glyph glyph-name="parenright" unicode=")" horiz-adv-x="675" 
d="M326 672q0 456 -226 833h174q232 -357 232 -841t-240 -859h-176q236 411 236 867z" />
    <glyph glyph-name="asterisk" unicode="*" horiz-adv-x="983" 
d="M330 674l-148 106l183 226v4l-279 75l53 172l273 -102l-15 291h187l-17 -291l275 102l55 -172l-281 -75v-4l181 -226l-146 -106l-157 241h-5z" />
    <glyph glyph-name="plus" unicode="+" 
d="M86 504v160h459v503h168v-503h456v-160h-456v-504h-168v504h-459z" />
    <glyph glyph-name="comma" unicode="," horiz-adv-x="491" 
d="M172 215h201l-174 -422h-154z" />
    <glyph glyph-name="hyphen" unicode="-" horiz-adv-x="882" 
d="M143 496v176h598v-176h-598z" />
    <glyph glyph-name="hyphen" unicode="&#xad;" horiz-adv-x="882" 
d="M143 496v176h598v-176h-598z" />
    <glyph glyph-name="period" unicode="." horiz-adv-x="491" 
d="M143 0v211h203v-211h-203z" />
    <glyph glyph-name="slash" unicode="/" horiz-adv-x="708" 
d="M2 -86l520 1610h176l-520 -1610h-176z" />
    <glyph glyph-name="zero" unicode="0" horiz-adv-x="1243" 
d="M622 162q304 0 304 561t-304 561t-304 -561t304 -561zM622 -25q-511 -1 -511 747t511 748t511 -748t-511 -747z" />
    <glyph glyph-name="one" unicode="1" horiz-adv-x="1032" 
d="M131 0v176h318v934l2 90h-5q-16 -33 -67 -84l-135 -133l-123 127l346 336h186v-1270h316v-176h-838z" />
    <glyph glyph-name="two" unicode="2" horiz-adv-x="1173" 
d="M78 174q0 100 41 188q41 86 118 156t221 152t209 128q146 103 146 255q0 100 -70 165q-70 64 -174 64t-169 -41t-64 -96v-64h-189v123q0 88 72 152q132 117 340 115q207 -1 335 -117t128 -299q0 -137 -76 -243t-184 -174q-108 -67 -214 -125q-108 -58 -184 -133t-75 -165
q0 -39 51 -39h514q45 0 45 45v92h188v-182q-1 -71 -31 -101t-100 -30h-741q-82 0 -110 37q-27 37 -27 137z" />
    <glyph glyph-name="three" unicode="3" horiz-adv-x="1107" 
d="M530 168q119 0 203 75t84 191t-90 186q-90 71 -221 70h-103l-43 109l302 379q37 56 83 94v4q-43 -6 -122 -6h-279q-45 0 -45 -45v-92h-188v182q1 71 29 101t96 30h761v-129l-381 -459q164 -18 287 -124t123 -298q0 -190 -138 -325t-358 -136q-168 0 -292 68t-164 115
l-21 20l111 154q164 -164 366 -164z" />
    <glyph glyph-name="four" unicode="4" horiz-adv-x="1177" 
d="M717 559v498l8 147h-4q-37 -70 -74 -121l-315 -434l-76 -92v-4q59 6 123 6h338zM35 383v131l651 932h234v-887h225v-176h-225v-383h-205v383h-680z" />
    <glyph glyph-name="five" unicode="5" horiz-adv-x="1191" 
d="M864 461q0 127 -99 209t-245 82q-72 0 -140 -18t-101 -38l-33 -18l-84 39l57 598q6 71 35 101t96 30h504q70 0 100 -31t31 -100v-182h-186v92q0 45 -45 45h-303q-39 0 -45 -45l-29 -264l-10 -76h4q78 43 186 43q229 0 373 -136t143 -336q0 -200 -145 -340t-375 -141
q-170 0 -281 67t-149 116l-19 20l111 150q16 -24 52 -54q124 -106 273 -106q148 0 236 83t88 210z" />
    <glyph glyph-name="six" unicode="6" horiz-adv-x="1161" 
d="M293 555q0 -145 95 -269t223 -124t200 84t72 215t-80 214t-208 83t-215 -62t-87 -141zM627 930q203 0 329 -135t127 -342q0 -207 -131 -343t-349 -135q-218 -1 -372 183q-153 184 -153 485t156 553q77 123 205 199t290 75q76 0 147 -14t103 -31l31 -14l-66 -174
q-92 47 -207 47q-184 0 -297 -144t-137 -352h4q43 66 132 104t188 38z" />
    <glyph glyph-name="seven" unicode="7" horiz-adv-x="1075" 
d="M723 1270h-436q-45 0 -45 -45v-92h-189v182q0 71 29 101t96 30h879v-139l-701 -1307h-227l614 1139l84 133v4q-33 -6 -104 -6z" />
    <glyph glyph-name="eight" unicode="8" horiz-adv-x="1179" 
d="M489 696q-49 0 -123 -85t-73 -195q0 -110 87 -182t207 -72t208 70t88 164q-1 96 -61 147t-187 102t-146 51zM850 1071q0 93 -71 153t-185 60t-180 -58q-68 -58 -68 -146t58 -134q58 -47 160 -88t138 -41t92 80t56 174zM86 414q0 167 154 308q35 32 59 48l25 14v4
q-22 11 -58 43q-34 33 -58 63t-43 82t-20 107q0 160 121 274q121 113 328 113t331 -110t124 -281q0 -94 -44 -180t-87 -125l-44 -39v-4q215 -125 216 -332q0 -174 -142 -299t-355 -125q-214 0 -361 121q-146 121 -146 318z" />
    <glyph glyph-name="nine" unicode="9" horiz-adv-x="1161" 
d="M566 688q128 0 215 62t87 141q0 145 -95 269t-223 124t-200 -84t-72 -214t80 -214t208 -84zM424 162q184 0 297 145t137 352h-4q-43 -65 -132 -103t-187 -38q-203 0 -330 134t-127 341t131 342t349 135t372 -183t154 -484t-157 -553q-77 -123 -205 -199t-290 -76
q-76 1 -146 15t-102 30l-32 15l65 176q92 -49 207 -49z" />
    <glyph glyph-name="colon" unicode=":" horiz-adv-x="602" 
d="M201 0v211h202v-211h-202zM201 825v211h202v-211h-202z" />
    <glyph glyph-name="semicolon" unicode=";" horiz-adv-x="602" 
d="M92 -207l105 422h198l-149 -422h-154zM201 825v211h202v-211h-202z" />
    <glyph glyph-name="less" unicode="&#x3c;" 
d="M137 516v135l955 426v-182l-734 -309v-4l734 -310v-182z" />
    <glyph glyph-name="equal" unicode="=" 
d="M139 309v160h977v-160h-977zM139 696v160h977v-160h-977z" />
    <glyph glyph-name="greater" unicode="&#x3e;" 
d="M152 90v182l731 310v4l-731 309v182l954 -426v-135z" />
    <glyph glyph-name="question" unicode="?" horiz-adv-x="927" 
d="M301 0v199h203v-199h-203zM305 397v97q0 158 123 276q51 49 102 94q123 109 123 221q0 86 -66 145q-67 58 -167 58q-58 0 -116 -22t-87 -41l-31 -23l-110 141q14 14 43 36t123 59t192 37q178 -1 303 -105t125 -275t-128 -289q-54 -50 -107 -96q-127 -110 -127 -229v-84
h-195z" />
    <glyph glyph-name="at" unicode="@" horiz-adv-x="1560" 
d="M969 739q-106 -1 -174 -71t-68 -171t68 -171t170 -70h206v483h-202zM82 494q0 317 217 537t530 220q276 0 405 -117q128 -118 128 -298v-580h147v-150h-559q-186 0 -305 114t-119 273t118 271t306 113h221q-4 92 -91 151t-240 59q-236 0 -398 -175q-162 -174 -162 -420
t164 -416q162 -170 418 -170v-162q-340 0 -560 216t-220 534z" />
    <glyph glyph-name="A" unicode="A" horiz-adv-x="1361" 
d="M465 588h432l-158 440l-57 203h-4q-29 -127 -55 -203zM25 0v176h28q53 0 68 45l452 1225h215l453 -1225q14 -45 68 -45h30v-176h-114q-76 0 -110 24t-58 95l-109 297h-532l-109 -297q-27 -71 -61 -95t-109 -24h-112z" />
    <glyph glyph-name="B" unicode="B" horiz-adv-x="1263" 
d="M414 221q0 -45 45 -45h258q115 0 179 67t65 179q0 112 -67 180t-177 68h-303v-449zM414 838h282q94 0 152 61q57 61 57 157t-56 155q-56 58 -157 59h-278v-432zM209 131v1139h-133v176h618q186 0 303 -98t117 -271q0 -113 -51 -193t-129 -118v-4q113 -33 175 -129
t62 -221q0 -196 -132 -304t-332 -108h-367q-70 0 -100 30t-31 101z" />
    <glyph glyph-name="C" unicode="C" horiz-adv-x="1435" 
d="M803 -25q-319 0 -526 218q-207 219 -207 537t208 530t517 210q171 0 343 -69q87 -35 143 -98t56 -146v-141h-188v82q0 84 -113 133t-237 49q-221 0 -369 -152t-147 -392t151 -404t371 -164q165 0 280 66t156 110l21 21l110 -148q-26 -33 -88 -79q-60 -46 -122 -78
t-160 -58t-199 -27z" />
    <glyph glyph-name="D" unicode="D" horiz-adv-x="1464" 
d="M416 221q0 -45 45 -45h188q246 0 389 143q144 143 144 405t-144 403q-144 142 -389 143h-233v-1049zM211 131v1139h-133v176h586q334 0 532 -192t199 -530q0 -340 -199 -532t-532 -192h-322q-70 0 -100 30t-31 101z" />
    <glyph glyph-name="E" unicode="E" horiz-adv-x="1163" 
d="M211 131v1139h-133v176h850q70 0 100 -31t31 -100v-182h-187v92q0 45 -45 45h-411v-453h506v-176h-506v-420q0 -45 45 -45h422q45 0 45 45v92h188v-182q0 -71 -31 -101t-100 -30h-643q-70 0 -100 30t-31 101z" />
    <glyph glyph-name="F" unicode="F" horiz-adv-x="1050" 
d="M211 0v1270h-133v176h796q70 0 101 -31t31 -100v-182h-187v92q0 45 -45 45h-358v-475h493v-177h-493v-618h-205z" />
    <glyph glyph-name="G" unicode="G" horiz-adv-x="1507" 
d="M72 720q0 322 210 536t519 214q155 0 283 -45t182 -90l51 -43l-117 -149q-18 16 -50 39q-32 24 -135 62t-210 38q-219 0 -370 -157t-151 -401t152 -400q150 -156 373 -156q150 0 251 59t144 103l17 18v146q0 45 -45 45h-89v176h191q70 0 100 -31t31 -100v-584h-180v90
l2 62h-4q-71 -70 -143 -104q-152 -71 -308 -73q-295 0 -500 211q-204 212 -204 534z" />
    <glyph glyph-name="H" unicode="H" horiz-adv-x="1566" 
d="M211 0v1225q0 45 -45 45h-88v176h207q71 0 101 -31t30 -100v-506h735v506q0 71 31 101t100 30h207v-176h-88q-45 0 -45 -45v-1225h-205v635h-735v-635h-205z" />
    <glyph glyph-name="I" unicode="I" horiz-adv-x="649" 
d="M86 0v176h141v1094h-141v176h477v-176h-141v-1094h141v-176h-477z" />
    <glyph glyph-name="J" unicode="J" horiz-adv-x="1069" 
d="M45 416v71h205v-55q0 -139 65 -202q66 -62 162 -62t161 62t64 194v801q0 45 -45 45h-354v176h473q70 0 101 -31t30 -100v-899q0 -219 -127 -330t-305 -111t-304 112t-126 329z" />
    <glyph glyph-name="K" unicode="K" horiz-adv-x="1251" 
d="M211 0v1225q0 45 -45 45h-88v176h207q71 0 101 -31t30 -100v-477h137q90 0 119 49l321 559h230l-351 -600q-40 -74 -81 -94v-4q41 -10 81 -91l218 -434q23 -47 102 -47h39v-176h-113q-88 0 -127 20t-73 89l-250 501q-29 53 -129 54h-123v-664h-205z" />
    <glyph glyph-name="L" unicode="L" horiz-adv-x="1112" 
d="M211 131v1094q0 45 -45 45h-88v176h207q71 0 101 -31t30 -100v-1094q0 -45 45 -45h399q45 0 45 45v92h187v-182q0 -71 -31 -101t-100 -30h-619q-70 0 -100 30t-31 101z" />
    <glyph glyph-name="M" unicode="M" horiz-adv-x="1755" 
d="M41 0v176h70q41 0 45 45l98 1225h211l340 -766l72 -182h4q37 104 71 182l340 766h211l99 -1225q4 -45 45 -45h67v-176h-182q-68 0 -98 31t-33 100l-60 764l-4 213h-4q-41 -135 -76 -213l-292 -635h-172l-293 635q-34 70 -66 178l-12 37h-4q2 -129 -4 -215l-58 -764
q-4 -71 -34 -101t-99 -30h-182z" />
    <glyph glyph-name="N" unicode="N" horiz-adv-x="1566" 
d="M78 0v176h88q45 0 45 45v1225h186l643 -916l121 -196h4q-14 115 -14 196v785q0 71 32 101t101 30h205v-176h-88q-45 0 -45 -45v-1225h-185l-645 915l-118 197h-5q12 -117 13 -197v-784q0 -71 -31 -101t-100 -30h-207z" />
    <glyph glyph-name="O" unicode="O" horiz-adv-x="1624" 
d="M811 1280q-221 0 -375 -158t-153 -392q-1 -234 153 -398t375 -164t376 164t155 398t-155 392t-376 158zM70 729q0 315 214 528t527 213t528 -213t215 -528t-215 -534t-528 -219t-527 218q-214 220 -214 535z" />
    <glyph glyph-name="P" unicode="P" horiz-adv-x="1212" 
d="M416 711h266q127 -1 201 75q73 76 73 206t-72 204q-73 74 -200 74h-268v-559zM211 0v1270h-133v176h637q201 0 327 -124t125 -329q0 -205 -127 -331t-325 -127h-299v-535h-205z" />
    <glyph glyph-name="Q" unicode="Q" horiz-adv-x="1624" 
d="M810 1278q-224 0 -376 -157t-151 -393t153 -398t373 -162q84 0 161 25t111 49l33 26l-160 156l123 133l158 -162q106 145 106 336q0 233 -153 390q-154 157 -378 157zM809 -25q-313 -1 -526 219t-213 535t213 528t527 213t529 -213t215 -526q0 -268 -170 -475l166 -162
l-123 -131l-165 166q-190 -154 -453 -154z" />
    <glyph glyph-name="R" unicode="R" horiz-adv-x="1265" 
d="M416 752h266q116 0 182 70t66 191t-65 189t-179 68h-270v-518zM211 0v1270h-133v176h631q193 0 313 -115t119 -294q0 -179 -83 -278t-177 -120v-4q37 -18 61 -66l174 -346q23 -47 103 -47h26v-176h-100q-88 0 -127 20t-74 89l-196 389q-27 49 -55 63t-89 14h-188v-575
h-205z" />
    <glyph glyph-name="S" unicode="S" horiz-adv-x="1091" 
d="M553 162q104 0 176 59t72 143t-52 139q-52 56 -129 91t-168 81t-168 92t-129 128t-53 188q0 164 130 276q130 111 336 111t335 -110q74 -63 74 -156v-119h-189v68q0 55 -67 93t-169 38t-172 -55t-69 -131q0 -139 185 -217t331 -166q78 -47 129 -132t52 -196
q0 -172 -125 -292t-337 -120t-395 139q-42 32 -61 54l-20 22l120 146q174 -174 363 -174z" />
    <glyph glyph-name="T" unicode="T" horiz-adv-x="1302" 
d="M549 0v1270h-291q-45 0 -45 -45v-92h-182v190q1 71 27 97t96 26h995q71 0 97 -27t26 -96v-190h-182v92q0 45 -46 45h-290v-1270h-205z" />
    <glyph glyph-name="U" unicode="U" horiz-adv-x="1490" 
d="M195 506v719q0 45 -45 45h-89v176h207q70 0 101 -31t30 -100v-801q1 -162 95 -254t252 -92t251 93q94 93 95 255v799q0 71 32 101t101 30h205v-176h-89q-45 0 -45 -45v-719q0 -238 -152 -384t-398 -146t-398 146t-153 384z" />
    <glyph glyph-name="V" unicode="V" horiz-adv-x="1368" 
d="M53 1270h-28v176h114q78 0 112 -24t58 -95l318 -891l55 -198h4q27 121 55 198l318 891q27 71 59 95t111 24h114v-176h-28q-53 0 -68 -45l-454 -1225h-218l-454 1225q-14 45 -68 45z" />
    <glyph glyph-name="W" unicode="W" horiz-adv-x="1982" 
d="M66 1270h-31v176h117q82 0 120 -25t58 -94l223 -930l29 -153h4q12 74 35 153l290 1045h185l270 -1045l31 -153h4q8 76 26 153l228 930q18 71 57 95t119 24h117v-176h-31q-57 0 -70 -45l-317 -1225h-238l-245 913l-41 199h-5q-20 -104 -47 -197l-262 -915h-239l-318 1225
q-12 45 -69 45z" />
    <glyph glyph-name="X" unicode="X" horiz-adv-x="1210" 
d="M90 1270h-53v176h121q76 0 114 -22t78 -89l162 -274l92 -170h4q41 90 88 170l164 274q39 67 78 89t117 22h119v-176h-52q-37 0 -56 -9t-40 -42l-293 -474l457 -745h-232l-262 440l-92 164h-4q-41 -86 -88 -166l-260 -438h-232l455 745l-291 474q-31 51 -94 51z" />
    <glyph glyph-name="Y" unicode="Y" horiz-adv-x="1234" 
d="M516 0v631l-366 588q-31 51 -89 51h-41v176h95q77 0 115 -20t79 -91l219 -364l88 -162h5q39 82 88 162l217 364q41 70 80 90t114 21h94v-176h-38q-59 0 -91 -51l-364 -588v-631h-205z" />
    <glyph glyph-name="Z" unicode="Z" horiz-adv-x="1191" 
d="M37 0v135l713 1004q41 58 94 118l14 15v4q-39 -6 -108 -6h-465q-45 0 -45 -45v-92h-187v182q0 71 31 101t100 30h928v-133l-715 -1006q-55 -77 -92 -114l-14 -17v-4q39 4 106 4h510q45 0 45 45v92h189v-182q0 -71 -31 -101t-100 -30h-973z" />
    <glyph glyph-name="bracketleft" unicode="[" horiz-adv-x="669" 
d="M199 -63v1437q0 70 30 101q31 31 101 30h207v-149h-119q-45 0 -45 -45v-1309q0 -45 45 -45h119v-152h-207q-70 0 -101 31q-30 31 -30 101z" />
    <glyph glyph-name="backslash" unicode="\" horiz-adv-x="696" 
d="M530 -86l-520 1610h176l521 -1610h-177z" />
    <glyph glyph-name="bracketright" unicode="]" horiz-adv-x="669" 
d="M133 -43h119q45 0 45 45v1309q0 45 -45 45h-119v149h207q70 -1 102 -31t31 -100v-1437q0 -70 -32 -101t-101 -31h-207v152z" />
    <glyph glyph-name="asciicircum" unicode="^" 
d="M141 506l410 940h129l407 -940h-178l-295 721l-292 -721h-181z" />
    <glyph glyph-name="underscore" unicode="_" horiz-adv-x="1122" 
d="M10 0h1102v-160h-1102v160z" />
    <glyph glyph-name="grave" unicode="`" horiz-adv-x="776" 
d="M365 1546l-195 260h201l149 -260h-155z" />
    <glyph glyph-name="a" unicode="a" horiz-adv-x="1114" 
d="M276 301q0 -68 52 -117t156 -49q106 -1 185 103t79 227v35h-52q-295 0 -379 -88q-41 -43 -41 -111zM700 645h45v10q0 135 -53 191t-176 57q-58 0 -114 -17t-56 -63v-59h-186v102q0 148 258 188q51 7 100 7q236 0 331 -108t95 -298v-440q0 -45 45 -45h84v-170h-186
q-129 0 -129 119l4 61h-4q-4 -8 -10 -22t-34 -49q-60 -75 -157 -111q-59 -23 -129 -23q-143 0 -248 84q-104 85 -104 240t124 232t254 96q130 18 246 18z" />
    <glyph glyph-name="b" unicode="b" horiz-adv-x="1228" 
d="M360 532q0 -168 77 -278t210 -109q133 -1 219 99t86 270t-82 271t-211 101t-214 -92q-85 -94 -85 -262zM166 0v1231q0 45 -45 45h-84v170h196q70 0 101 -31t31 -100v-338l-5 -86h5q4 6 11 18t36 41q108 108 286 111q207 0 331 -150q124 -149 124 -393t-132 -394
t-339 -149q-128 0 -210 58q-81 58 -103 98l-13 19h-4q4 -33 4 -78v-72h-190z" />
    <glyph glyph-name="c" unicode="c" horiz-adv-x="1091" 
d="M74 516q0 234 155 389q156 156 402 156q117 0 232 -47q61 -25 101 -72t40 -108v-107h-181v57q0 51 -62 79t-130 28q-154 1 -254 -103q-101 -104 -101 -271t106 -266t259 -99q86 0 167 36t118 70l37 37l86 -141q-16 -21 -63 -57q-158 -119 -359 -122q-245 -1 -399 153
t-154 388z" />
    <glyph glyph-name="d" unicode="d" horiz-adv-x="1239" 
d="M569 147q129 -1 215 93t86 262t-76 278t-212 109q-134 -1 -218 -101t-85 -269q1 -169 81 -271t209 -101zM76 519q0 245 131 393t338 149q133 0 215 -57t104 -103h4q-4 31 -4 70v260q0 45 -45 45h-84v170h197q70 0 100 -31t31 -100v-1100q0 -45 45 -45h84v-170h-191
q-127 0 -127 111l3 53h-5q-60 -120 -206 -168q-61 -20 -134 -21q-208 -1 -332 149t-124 395z" />
    <glyph glyph-name="e" unicode="e" horiz-adv-x="1130" 
d="M287 639h549q-4 125 -74 195t-178 70t-192 -69q-82 -69 -105 -196zM74 524q0 238 147 388t365 149q218 0 337 -137q118 -137 117 -349l-6 -81h-755q8 -160 110 -253t246 -94q80 0 156 31t110 60l37 30l86 -141q-16 -16 -49 -42t-137 -68t-213 -42q-244 0 -398 155
q-153 156 -153 394z" />
    <glyph glyph-name="f" unicode="f" horiz-adv-x="665" 
d="M174 0v877h-129v159h129v35q0 98 29 171t70 113q106 101 292 101l76 -6v-170q-20 4 -49 4q-219 0 -219 -217v-31h245v-159h-245v-877h-199z" />
    <glyph glyph-name="g" unicode="g" horiz-adv-x="1218" 
d="M570 184q128 0 206 84t78 273q0 348 -293 348q-133 0 -208 -91t-75 -253q0 -161 82 -261q81 -100 210 -100zM76 543q0 229 122 373t332 145q147 0 225 -55q79 -55 97 -91l10 -16h4v33q0 104 115 104h193v-170h-82q-45 0 -45 -41v-782q-1 -123 -45 -217
q-80 -170 -285 -229q-90 -27 -193 -27q-182 0 -354 86l68 160q127 -70 277 -70t242 71q91 71 91 218v69l4 66h-4q-96 -158 -308 -158t-338 151t-126 380z" />
    <glyph glyph-name="h" unicode="h" horiz-adv-x="1273" 
d="M166 0v1231q0 45 -45 45h-84v170h196q70 0 101 -31t31 -96v-404l-5 -86h5q41 90 142 161t243 71q354 0 354 -397v-449q0 -45 45 -45h84v-170h-195q-70 0 -100 31t-31 100v487q0 125 -41 193q-40 68 -156 68t-205 -71t-122 -185q-18 -53 -18 -138v-485h-199z" />
    <glyph glyph-name="i" unicode="i" horiz-adv-x="563" 
d="M184 131v690q0 45 -45 45h-84v170h195q70 0 100 -30t31 -101v-690q0 -45 45 -45h84v-170h-195q-71 0 -101 30t-30 101zM188 1239v207h179v-207h-179z" />
    <glyph glyph-name="j" unicode="j" horiz-adv-x="585" 
d="M-41 -248q18 -2 68 -2t101 28q99 54 97 199v844q0 45 -45 45h-84v170h197q71 0 101 -30t30 -101v-940q0 -121 -42 -205t-111 -120q-121 -62 -244 -62l-68 4v170zM229 1239v207h181v-207h-181z" />
    <glyph glyph-name="k" unicode="k" horiz-adv-x="1075" 
d="M166 0v1231q0 45 -45 45h-84v170h196q72 0 102 -26t30 -93v-672h92q74 0 108 45l240 336h227l-280 -385q-41 -60 -78 -78v-4q35 -12 69 -77l154 -281q20 -41 88 -41h64v-170h-144q-71 0 -105 18t-67 78l-188 348q-25 43 -103 43h-77v-487h-199z" />
    <glyph glyph-name="l" unicode="l" horiz-adv-x="548" 
d="M170 131v1100q0 45 -45 45h-84v170h197q70 0 100 -31t31 -100v-1100q0 -45 45 -45h84v-170h-197q-71 0 -101 30t-30 101z" />
    <glyph glyph-name="m" unicode="m" horiz-adv-x="1918" 
d="M174 0v821q0 45 -45 45h-84v170h191q131 0 131 -114v-39l-2 -60h4q39 96 138 167t216 71q258 0 311 -236h4q44 98 146 167t223 69q342 0 342 -397v-449q0 -45 45 -45h84v-170h-197q-71 0 -101 31t-30 100v490q0 125 -38 193t-142 67q-104 0 -184 -77q-125 -120 -125 -331
v-473h-199v621q0 123 -36 191t-144 69q-108 0 -186 -79q-124 -124 -123 -329v-473h-199z" />
    <glyph glyph-name="n" unicode="n" horiz-adv-x="1282" 
d="M174 0v821q0 45 -45 45h-84v170h191q131 0 131 -114v-39l-5 -60h5q41 88 139 163t265 75q341 0 341 -397v-449q0 -45 45 -45h84v-170h-197q-70 0 -100 31t-31 100v487q0 125 -40 193q-41 68 -157 68t-205 -71t-120 -183q-18 -53 -18 -140v-485h-199z" />
    <glyph glyph-name="o" unicode="o" horiz-adv-x="1263" 
d="M276 520q0 -160 104 -266t252 -106q149 0 252 104q103 106 103 267t-103 265q-104 104 -252 104t-252 -104t-104 -264zM74 520q0 233 162 387t396 154t396 -154t162 -387t-163 -389t-396 -156t-395 156t-162 389z" />
    <glyph glyph-name="p" unicode="p" horiz-adv-x="1236" 
d="M367 532q-1 -168 77 -278t210 -109q132 -1 218 99t86 270t-80 271q-81 101 -210 101t-215 -92q-86 -94 -86 -262zM174 -410v1231q0 45 -45 45h-84v170h186q127 0 127 -104l-2 -55h4q12 25 45 60q110 121 308 123q199 1 323 -149q124 -149 125 -393q0 -244 -133 -394
t-338 -149q-160 0 -271 107q-26 25 -36 41l-10 18h-4q4 -37 4 -90v-461h-199z" />
    <glyph glyph-name="q" unicode="q" horiz-adv-x="1236" 
d="M279 520q-1 -170 81 -272t211 -101q129 -1 214 93t85 262t-76 278t-210 109q-133 0 -219 -99q-86 -100 -86 -270zM78 519q0 245 130 393t337 149q137 0 219 -59t104 -99l11 -18h4q-2 23 -2 53q0 98 127 98h186v-170h-84q-45 0 -45 -45v-1231h-199v469l4 91h-4
q-4 -6 -11 -18t-36 -43q-108 -111 -287 -114q-206 -1 -330 149t-124 395z" />
    <glyph glyph-name="r" unicode="r" horiz-adv-x="792" 
d="M174 0v821q0 45 -45 45h-84v170h188q133 0 134 -121v-65l-5 -72h5q39 119 126 195t201 76l54 -5v-196q-27 6 -60 6q-96 0 -176 -66q-141 -117 -139 -364v-424h-199z" />
    <glyph glyph-name="s" unicode="s" horiz-adv-x="929" 
d="M651 264q0 57 -58 96t-141 71t-166 71t-142 107q-58 69 -58 161q0 141 109 216t254 75t253 -48t109 -153v-98h-178v51q0 43 -50 66t-123 23t-124 -33q-51 -32 -51 -88t58 -96t141 -70q83 -31 166 -67q84 -36 142 -105t58 -164q0 -137 -108 -221t-268 -83q-160 0 -263 60
q-102 60 -141 104l-15 19l103 133q10 -16 48 -48q122 -104 252 -105q91 -1 142 34t51 92z" />
    <glyph glyph-name="t" unicode="t" horiz-adv-x="720" 
d="M182 379v498h-135v159h139v285h195v-285h248v-159h-248v-476q0 -146 82 -195q64 -38 137 -38l47 4v-176q-27 -4 -71 -4t-90 6t-103 31t-99 65t-72 113q-30 74 -30 172z" />
    <glyph glyph-name="u" unicode="u" horiz-adv-x="1271" 
d="M522 -25q-352 0 -352 398v448q0 45 -45 45h-84v170h195q70 0 102 -30t31 -97v-491q0 -125 40 -192t152 -66q154 0 246 114t92 277v485h199v-821q0 -45 45 -45h84v-170h-191q-131 0 -131 115v39l2 59h-4q-39 -90 -140 -164t-241 -74z" />
    <glyph glyph-name="v" unicode="v" horiz-adv-x="1089" 
d="M47 866h-20v170h102q71 0 103 -22t55 -82l223 -596l37 -135h4q16 78 37 135l221 596q23 61 56 83q34 22 102 21h96v-170h-21q-51 0 -67 -41l-316 -825h-229l-319 825q-16 41 -64 41z" />
    <glyph glyph-name="w" unicode="w" horiz-adv-x="1708" 
d="M49 866h-29v170h125q70 0 102 -22t52 -88l184 -617l25 -110h4q12 57 29 110l223 723h182l225 -723l27 -110h4q8 57 25 110l182 617q20 66 53 88t103 22h123v-170h-29q-51 0 -64 -41l-272 -825h-223l-215 666l-29 112h-4q-12 -59 -29 -112l-213 -666h-225l-272 825
q-12 41 -64 41z" />
    <glyph glyph-name="x" unicode="x" horiz-adv-x="1011" 
d="M94 866h-57v170h127q72 0 106 -19t74 -85l127 -201l33 -65h4q18 39 35 65l125 201q39 66 72 85q34 19 108 19h129v-170h-59q-63 0 -89 -37l-198 -297l350 -532h-223l-219 338l-31 55h-4q-16 -31 -33 -55l-215 -338h-225l350 532l-199 295q-27 39 -88 39z" />
    <glyph glyph-name="y" unicode="y" horiz-adv-x="1118" 
d="M244 -258q119 0 182 149l47 113l-354 821q-18 41 -66 41h-24v170h116q63 0 94 -21q30 -22 54 -83l235 -584l37 -125h4q14 72 35 125l215 584q23 61 55 83q33 22 97 21h119v-170h-27q-47 0 -66 -41l-409 -1011q-47 -120 -135 -182t-199 -62q-68 0 -129 26t-88 52l-27 24
l82 144q0 -2 18 -20t57 -36q38 -18 77 -18z" />
    <glyph glyph-name="z" unicode="z" horiz-adv-x="1034" 
d="M68 0v115l530 655l86 96v4q-33 -4 -100 -4h-283q-45 0 -45 -45v-69h-182v153q0 70 30 101q31 31 101 30h741v-114l-532 -658l-86 -94v-4q33 4 100 4h332q45 0 45 45v70h180v-154q0 -71 -31 -101t-100 -30h-786z" />
    <glyph glyph-name="braceleft" unicode="{" horiz-adv-x="694" 
d="M233 158v196q0 146 -111 204q-14 7 -63 20v176q22 0 57 16q117 55 117 211v172q0 92 26 161q26 68 62 104q92 90 244 91l47 -2v-151h-28q-52 0 -95 -26q-81 -50 -81 -189v-211q0 -114 -58 -178q-58 -63 -108 -82v-4q102 -34 147 -153q18 -48 19 -107v-236q0 -139 64 -177
t112 -38h28v-152q-18 -4 -51 -4t-69 5t-85 28q-50 22 -86 58t-62 106t-26 162z" />
    <glyph glyph-name="bar" unicode="|" horiz-adv-x="612" 
d="M219 -326v1948h174v-1948h-174z" />
    <glyph glyph-name="braceright" unicode="}" horiz-adv-x="694" 
d="M82 -45h29q52 1 95 27q79 50 81 188v236q0 150 106 229q25 18 60 31v4q-22 7 -55 30q-62 43 -86 107q-25 65 -25 123v211q0 137 -64 176t-112 39h-29v151q18 2 51 2q230 0 302 -195q26 -69 26 -161v-172q0 -117 57 -168t98 -55l19 -4v-176q-20 0 -56 -16q-35 -16 -59 -39
q-60 -56 -59 -169v-196q0 -92 -26 -162q-25 -70 -61 -106q-90 -91 -245 -91l-47 4v152z" />
    <glyph glyph-name="asciitilde" unicode="~" 
d="M127 418q0 174 75 260t212 86q72 0 130 -32t89 -68q85 -101 166 -101q79 -1 111 57t32 136h162q0 -346 -285 -346q-72 0 -130 30t-89 69q-82 101 -174 99q-72 0 -104 -57t-33 -133h-162z" />
    <glyph glyph-name="exclamdown" unicode="&#xa1;" horiz-adv-x="643" 
d="M219 -410l14 1049h179l12 -1049h-205zM219 838v198h203v-198h-203z" />
    <glyph glyph-name="cent" unicode="&#xa2;" horiz-adv-x="1157" 
d="M530 -78v228q-194 28 -306 188t-112 386t113 387t305 187v226h150v-226q129 -20 224 -103t147 -214l-181 -70q-84 203 -258 203q-139 0 -218 -110t-79 -283q0 -175 78 -281t219 -106q176 0 258 203l181 -72q-51 -125 -145 -213t-226 -102v-228h-150z" />
    <glyph glyph-name="sterling" unicode="&#xa3;" horiz-adv-x="1196" 
d="M102 0v176h125v477h-90v144h90v278q0 170 126 283t319 112q92 0 177 -32t126 -66l39 -33l-117 -141q-98 88 -216 88q-117 0 -183 -62t-66 -157v-270h377v-144h-377v-477h442q45 0 46 45v92h188v-182q0 -71 -32 -101t-101 -30h-873z" />
    <glyph glyph-name="yen" unicode="&#xa5;" horiz-adv-x="1257" 
d="M197 418v129h329v84l-57 90h-276v129h192v4l-229 371q-29 45 -93 45h-32v176h90q76 0 117 -22t81 -89l220 -364l88 -160h4q41 80 88 160l217 364q41 70 82 90t119 21h90v-176h-35q-63 0 -92 -45l-228 -371v-4h187v-129h-273l-55 -90v-84h328v-129h-328v-418h-205v418
h-329z" />
    <glyph glyph-name="section" unicode="&#xa7;" horiz-adv-x="940" 
d="M404 39q104 0 165 56t62 159q0 41 -13 92l-135 770h162l143 -799q10 -55 11 -92q-1 -156 -105 -254t-280 -98q-80 0 -152 26t-104 52l-33 26l90 138q85 -76 189 -76zM156 1120q0 154 104 252t283 98q79 0 151 -26t105 -51l32 -27l-94 -131q-82 70 -186 70
q-103 1 -165 -53t-62 -154q0 -37 12 -82l139 -789h-164l-143 799q-12 47 -12 94z" />
    <glyph glyph-name="dieresis" unicode="&#xa8;" horiz-adv-x="1026" 
d="M291 1599v207h151v-207h-151zM629 1599v207h149v-207h-149z" />
    <glyph glyph-name="copyright" unicode="&#xa9;" horiz-adv-x="1611" 
d="M414 720q0 169 111 290q112 121 292 120q133 0 215 -67q83 -67 107 -115l12 -20l-125 -68q-8 14 -24 36t-67 58q-52 36 -112 35q-117 0 -185 -79q-68 -80 -69 -192q0 -112 68 -189t186 -76q59 1 111 33t72 63l20 33l125 -68q-12 -24 -46 -66t-69 -68t-94 -48t-125 -21
q-180 0 -292 120q-111 120 -111 289zM225 723q0 -256 167 -432t413 -176t414 176t167 432q0 256 -167 432q-168 176 -414 176t-413 -176t-167 -432zM76 723q0 311 212 529t516 218t518 -218t214 -529t-214 -529t-518 -218t-516 218t-212 529z" />
    <glyph glyph-name="ordfeminine" unicode="&#xaa;" horiz-adv-x="849" 
d="M111 543v116h639v-116h-639zM376 905q58 -1 98 57t44 140h-20q-233 0 -234 -109q0 -37 27 -63t85 -25zM336 784q-92 0 -158 54t-65 149q0 219 376 219h29q-2 76 -31 106t-105 30t-75 -35v-39h-143v82q0 34 26 60q58 56 207 56q148 0 208 -68t61 -190v-258q0 -23 20 -22
h57v-131h-118q-86 0 -95 75l-2 21h-4q-35 -71 -117 -97q-34 -12 -71 -12z" />
    <glyph glyph-name="guillemotleft" unicode="&#xab;" horiz-adv-x="1161" 
d="M422 158l-336 420l336 421h199l-336 -421l336 -420h-199zM498 578l336 421h198l-336 -421l336 -420h-198z" />
    <glyph glyph-name="logicalnot" unicode="&#xac;" 
d="M139 696v160h977v-547h-166v387h-811z" />
    <glyph glyph-name="registered" unicode="&#xae;" horiz-adv-x="1611" 
d="M698 745h123q57 0 91 35q34 36 34 96t-34 93t-91 32h-123v-256zM553 340v661h-70v111h367q112 0 178 -64t66 -159t-43 -149t-99 -68v-4q25 -6 43 -41l80 -154q16 -27 49 -27h23v-106h-78q-47 0 -70 10t-41 47l-106 203q-20 39 -70 39h-84v-299h-145zM225 723
q0 -256 167 -432t413 -176t414 176t167 432q0 256 -167 432q-168 176 -414 176t-413 -176t-167 -432zM76 723q0 311 212 529t516 218t518 -218t214 -529t-214 -529t-518 -218t-516 218t-212 529z" />
    <glyph glyph-name="macron" unicode="&#xaf;" horiz-adv-x="950" 
d="M221 1606v139h520v-139h-520z" />
    <glyph glyph-name="macron" unicode="&#x2c9;" horiz-adv-x="950" 
d="M221 1606v139h520v-139h-520z" />
    <glyph glyph-name="degree" unicode="&#xb0;" horiz-adv-x="813" 
d="M406 1016q63 0 107 44t44 107t-44 109t-107 45q-64 0 -108 -45q-44 -44 -44 -108t44 -108t108 -44zM406 864q-129 0 -220 88q-90 88 -90 214t90 215t220 89t220 -89q91 -89 91 -214t-91 -214t-220 -89z" />
    <glyph glyph-name="plusminus" unicode="&#xb1;" 
d="M119 -195h1018v-159h-1018v159zM86 504v160h459v503h168v-503h456v-160h-456v-504h-168v504h-459z" />
    <glyph glyph-name="twosuperior" unicode="&#xb2;" horiz-adv-x="866" 
d="M203 545q-55 1 -77 25t-22 92q0 129 75 199t159 116q83 47 117 70q33 23 63 63t29 91q0 50 -37 84t-93 34t-90 -22t-34 -50v-49h-146v90q1 84 89 130t198 46t190 -74q81 -74 81 -196q0 -123 -82 -193t-162 -113q-80 -44 -111 -64q-30 -20 -58 -56q-28 -35 -28 -74
q0 -12 19 -12h305q12 0 12 14v68h143v-125q0 -94 -94 -94h-446z" />
    <glyph glyph-name="threesuperior" unicode="&#xb3;" horiz-adv-x="866" 
d="M426 528q-86 0 -166 41t-117 82l-37 41l109 101q9 -13 27 -33t73 -53t115 -33t106 42t46 105t-47 101t-119 36h-70l-24 91l172 217l45 47v4q-35 -4 -70 -4h-156q-18 0 -18 -21v-53h-145v109q0 54 20 76t78 22h475v-105l-213 -260q94 -12 162 -85q68 -72 68 -188t-93 -198
q-92 -82 -221 -82z" />
    <glyph glyph-name="acute" unicode="&#xb4;" horiz-adv-x="794" 
d="M244 1546l149 260h201l-195 -260h-155z" />
    <glyph glyph-name="mu" unicode="&#xb5;" horiz-adv-x="1271" 
d="M41 866v170h195q70 0 102 -30t31 -97v-491q0 -125 40 -192t152 -66q154 0 246 114t92 277v485h199v-821q0 -45 45 -45h84v-170h-191q-131 0 -131 115v39l2 59h-4q-13 -32 -48 -77q-36 -46 -76 -78q-41 -32 -109 -58t-138 -25t-117 17q-46 16 -63 33l-16 14h-4
q14 -100 14 -160v-289h-176v1231q0 45 -45 45h-84z" />
    <glyph glyph-name="mu" unicode="&#x3bc;" horiz-adv-x="1271" 
d="M41 866v170h195q70 0 102 -30t31 -97v-491q0 -125 40 -192t152 -66q154 0 246 114t92 277v485h199v-821q0 -45 45 -45h84v-170h-191q-131 0 -131 115v39l2 59h-4q-13 -32 -48 -77q-36 -46 -76 -78q-41 -32 -109 -58t-138 -25t-117 17q-46 16 -63 33l-16 14h-4
q14 -100 14 -160v-289h-176v1231q0 45 -45 45h-84z" />
    <glyph glyph-name="paragraph" unicode="&#xb6;" horiz-adv-x="1226" 
d="M850 -102v1255h151v-1255h-151zM569 -102v596q-199 0 -342 138t-143 339t142 338t341 137h557v-176h-401v-1372h-154z" />
    <glyph glyph-name="periodcentered" unicode="&#xb7;" horiz-adv-x="491" 
d="M143 489v211h203v-211h-203z" />
    <glyph glyph-name="periodcentered" unicode="&#x2219;" horiz-adv-x="491" 
d="M143 489v211h203v-211h-203z" />
    <glyph glyph-name="cedilla" unicode="&#xb8;" horiz-adv-x="851" 
d="M357 -424q-76 0 -128 14v119q41 -14 88 -14q96 0 97 63q0 63 -109 64l-35 -2l58 227l100 -20v-17l-22 -112q63 -8 104 -48t41 -114q0 -76 -59 -118t-135 -42z" />
    <glyph glyph-name="onesuperior" unicode="&#xb9;" horiz-adv-x="866" 
d="M156 545v137h190v494l2 67h-4q-8 -20 -25 -35l-81 -78l-95 101l224 215h135v-764h188v-137h-534z" />
    <glyph glyph-name="ordmasculine" unicode="&#xba;" horiz-adv-x="933" 
d="M150 543v116h638v-116h-638zM466 918q85 0 143 60q59 60 59 151t-58 149t-144 59q-85 0 -143 -58q-59 -57 -59 -149t58 -152t144 -60zM467 786q-147 0 -249 98t-101 244q0 148 101 244q102 96 248 96t248 -96t103 -244t-101 -245t-249 -97z" />
    <glyph glyph-name="guillemotright" unicode="&#xbb;" horiz-adv-x="1161" 
d="M127 158l336 420l-336 421h199l336 -421l-336 -420h-199zM541 158l336 420l-336 421h198l336 -421l-336 -420h-198z" />
    <glyph glyph-name="onequarter" unicode="&#xbc;" horiz-adv-x="1875" 
d="M1268 369h207v280l2 74h-4q-12 -29 -31 -55l-187 -265l-28 -32v-4q27 2 41 2zM1059 231v95l391 577h178v-534h135v-138h-135v-231h-155v231h-414zM160 545v137h190v494l2 67h-4q-10 -20 -24 -35l-82 -78l-95 101l222 215h137v-764h182v-137h-528zM582 0l587 1446h164
l-585 -1446h-166z" />
    <glyph glyph-name="onehalf" unicode="&#xbd;" horiz-adv-x="1875" 
d="M1208 0q-56 0 -76 24t-20 92q0 168 161 273q34 23 94 57t93 57t64 63q30 40 30 91t-37 85t-93 34t-90 -22t-34 -49v-50h-145v88q0 84 88 130q87 47 197 47t191 -74t81 -195q0 -155 -170 -263q-31 -20 -93 -54q-62 -35 -93 -55q-31 -19 -59 -55t-27 -74q0 -12 20 -13h303
q12 0 13 15v69h145v-125q-1 -52 -23 -74t-73 -22h-447zM160 545v137h190v494l2 67h-4q-10 -20 -24 -35l-82 -78l-95 101l222 215h137v-764h182v-137h-528zM559 0l588 1446h164l-588 -1446h-164z" />
    <glyph glyph-name="threequarters" unicode="&#xbe;" horiz-adv-x="1875" 
d="M1268 369h207v280l2 74h-4q-12 -29 -31 -55l-187 -265l-28 -32v-4q27 2 41 2zM1059 231v95l391 577h178v-534h135v-138h-135v-231h-155v231h-414zM442 528q-86 0 -166 41t-116 82l-37 41l106 101q11 -13 29 -33t74 -53t114 -33q59 0 106 42q46 42 46 105t-47 101t-119 36
h-72l-24 91l174 217l43 47v4q-33 -4 -68 -4h-155q-18 0 -19 -21v-53h-145v109q0 54 20 76t76 22h477v-105l-215 -260q94 -12 163 -85q69 -72 69 -188t-92 -198t-222 -82zM578 0l587 1446h164l-586 -1446h-165z" />
    <glyph glyph-name="questiondown" unicode="&#xbf;" horiz-adv-x="927" 
d="M428 563v76h193v-88q0 -86 -36 -158t-87 -120q-52 -48 -102 -93q-122 -109 -122 -221q0 -86 67 -145t167 -60q58 0 116 23t89 43l28 22l109 -141q-15 -15 -56 -41q-138 -90 -308 -90t-296 103q-124 104 -124 275t127 289q53 50 107 96q128 109 128 230zM424 838v198h203
v-198h-203z" />
    <glyph glyph-name="Agrave" unicode="&#xc0;" horiz-adv-x="1361" 
d="M602 1546l-194 260h200l150 -260h-156zM465 588h432l-158 440l-57 203h-4q-29 -127 -55 -203zM25 0v176h28q53 0 68 45l452 1225h215l453 -1225q14 -45 68 -45h30v-176h-114q-76 0 -110 24t-58 95l-109 297h-532l-109 -297q-27 -71 -61 -95t-109 -24h-112z" />
    <glyph glyph-name="Aacute" unicode="&#xc1;" horiz-adv-x="1361" 
d="M602 1546l150 260h200l-194 -260h-156zM465 588h432l-158 440l-57 203h-4q-29 -127 -55 -203zM25 0v176h28q53 0 68 45l452 1225h215l453 -1225q14 -45 68 -45h30v-176h-114q-76 0 -110 24t-58 95l-109 297h-532l-109 -297q-27 -71 -61 -95t-109 -24h-112z" />
    <glyph glyph-name="Acircumflex" unicode="&#xc2;" horiz-adv-x="1361" 
d="M412 1546l178 260h182l180 -260h-161l-107 164h-4l-109 -164h-159zM465 588h432l-158 440l-57 203h-4q-29 -127 -55 -203zM25 0v176h28q53 0 68 45l452 1225h215l453 -1225q14 -45 68 -45h30v-176h-114q-76 0 -110 24t-58 95l-109 297h-532l-109 -297q-27 -71 -61 -95
t-109 -24h-112z" />
    <glyph glyph-name="Atilde" unicode="&#xc3;" horiz-adv-x="1361" 
d="M334 1548q0 260 211 260q59 0 106 -34t83 -70q36 -35 76 -35t59 40t20 93h135q0 -260 -211 -260q-59 0 -105 35t-83 70t-77 35t-60 -41q-20 -40 -19 -93h-135zM465 588h432l-158 440l-57 203h-4q-29 -127 -55 -203zM25 0v176h28q53 0 68 45l452 1225h215l453 -1225
q14 -45 68 -45h30v-176h-114q-76 0 -110 24t-58 95l-109 297h-532l-109 -297q-27 -71 -61 -95t-109 -24h-112z" />
    <glyph glyph-name="Adieresis" unicode="&#xc4;" horiz-adv-x="1361" 
d="M438 1599v207h152v-207h-152zM776 1599v207h150v-207h-150zM465 588h432l-158 440l-57 203h-4q-29 -127 -55 -203zM25 0v176h28q53 0 68 45l452 1225h215l453 -1225q14 -45 68 -45h30v-176h-114q-76 0 -110 24t-58 95l-109 297h-532l-109 -297q-27 -71 -61 -95t-109 -24
h-112z" />
    <glyph glyph-name="Aring" unicode="&#xc5;" horiz-adv-x="1361" 
d="M682 1606q31 0 50 19q20 19 20 50t-20 50t-50 19q-31 0 -50 -18q-20 -20 -20 -51t20 -50t50 -19zM848 1674q0 -68 -49 -110t-118 -42t-117 42t-48 110t48 111q48 42 117 42t118 -42t49 -111zM465 588h432l-158 440l-57 203h-4q-29 -127 -55 -203zM25 0v176h28q53 0 68 45
l452 1225h215l453 -1225q14 -45 68 -45h30v-176h-114q-76 0 -110 24t-58 95l-109 297h-532l-109 -297q-27 -71 -61 -95t-109 -24h-112z" />
    <glyph glyph-name="AE" unicode="&#xc6;" horiz-adv-x="1755" 
d="M813 817v453h-90l-168 -453h258zM25 0v176h22q51 0 70 45l485 1225h918q70 0 100 -31t31 -100v-182h-187v92q0 45 -45 45h-399v-453h493v-176h-493v-420q0 -45 53 -45h402q45 0 45 45v92h188v-182q0 -71 -32 -101t-101 -30h-617q-80 0 -112 28t-33 103v510h-326
l-194 -522q-27 -71 -61 -95t-109 -24h-98z" />
    <glyph glyph-name="Ccedilla" unicode="&#xc7;" horiz-adv-x="1435" 
d="M753 -424q-77 0 -126 14v119q41 -14 88 -14q96 0 96 63t-106 64l-37 -2l41 160q-287 30 -463 242t-176 519t208 519t517 210q171 0 343 -69q87 -35 143 -98t56 -146v-141h-188v82q0 84 -113 133t-237 49q-221 0 -369 -152t-147 -392q0 -240 148 -404t368 -164
q129 0 245 49t166 98l52 47l110 -145q-25 -31 -84 -76q-58 -45 -118 -77t-155 -59q-95 -28 -196 -30l-16 -77q67 -8 107 -48t40 -114q0 -76 -60 -118t-137 -42z" />
    <glyph glyph-name="Egrave" unicode="&#xc8;" horiz-adv-x="1163" 
d="M524 1546l-194 260h200l150 -260h-156zM211 131v1139h-133v176h850q70 0 100 -31t31 -100v-182h-187v92q0 45 -45 45h-411v-453h506v-176h-506v-420q0 -45 45 -45h422q45 0 45 45v92h188v-182q0 -71 -31 -101t-100 -30h-643q-70 0 -100 30t-31 101z" />
    <glyph glyph-name="Eacute" unicode="&#xc9;" horiz-adv-x="1163" 
d="M524 1546l150 260h200l-194 -260h-156zM211 131v1139h-133v176h850q70 0 100 -31t31 -100v-182h-187v92q0 45 -45 45h-411v-453h506v-176h-506v-420q0 -45 45 -45h422q45 0 45 45v92h188v-182q0 -71 -31 -101t-100 -30h-643q-70 0 -100 30t-31 101z" />
    <glyph glyph-name="Ecircumflex" unicode="&#xca;" horiz-adv-x="1163" 
d="M336 1546l178 260h182l181 -260h-162l-107 164h-4l-108 -164h-160zM211 131v1139h-133v176h850q70 0 100 -31t31 -100v-182h-187v92q0 45 -45 45h-411v-453h506v-176h-506v-420q0 -45 45 -45h422q45 0 45 45v92h188v-182q0 -71 -31 -101t-100 -30h-643q-70 0 -100 30
t-31 101z" />
    <glyph glyph-name="Edieresis" unicode="&#xcb;" horiz-adv-x="1163" 
d="M362 1599v207h152v-207h-152zM700 1599v207h150v-207h-150zM211 131v1139h-133v176h850q70 0 100 -31t31 -100v-182h-187v92q0 45 -45 45h-411v-453h506v-176h-506v-420q0 -45 45 -45h422q45 0 45 45v92h188v-182q0 -71 -31 -101t-100 -30h-643q-70 0 -100 30t-31 101z
" />
    <glyph glyph-name="Igrave" unicode="&#xcc;" horiz-adv-x="649" 
d="M244 1546l-195 260h201l149 -260h-155zM86 0v176h141v1094h-141v176h477v-176h-141v-1094h141v-176h-477z" />
    <glyph glyph-name="Iacute" unicode="&#xcd;" horiz-adv-x="649" 
d="M244 1546l149 260h201l-195 -260h-155zM86 0v176h141v1094h-141v176h477v-176h-141v-1094h141v-176h-477z" />
    <glyph glyph-name="Icircumflex" unicode="&#xce;" horiz-adv-x="649" 
d="M53 1546l178 260h183l180 -260h-162l-106 164h-4l-109 -164h-160zM86 0v176h141v1094h-141v176h477v-176h-141v-1094h141v-176h-477z" />
    <glyph glyph-name="Idieresis" unicode="&#xcf;" horiz-adv-x="649" 
d="M80 1599v207h151v-207h-151zM418 1599v207h149v-207h-149zM86 0v176h141v1094h-141v176h477v-176h-141v-1094h141v-176h-477z" />
    <glyph glyph-name="Eth" unicode="&#xd0;" horiz-adv-x="1464" 
d="M416 221q0 -45 45 -45h188q246 0 389 143q144 143 144 405t-144 403q-144 142 -389 143h-233v-463h295v-168h-295v-418zM211 131v508h-100v168h100v463h-133v176h586q334 0 532 -192t199 -530q0 -340 -199 -532t-532 -192h-322q-70 0 -100 30t-31 101z" />
    <glyph glyph-name="Ntilde" unicode="&#xd1;" horiz-adv-x="1566" 
d="M457 1548q0 260 211 260q59 0 106 -34t83 -70q36 -35 76 -35t59 40t20 93h135q0 -260 -211 -260q-60 0 -106 35t-82 70t-77 35q-39 0 -59 -41q-20 -40 -20 -93h-135zM78 0v176h88q45 0 45 45v1225h186l643 -916l121 -196h4q-14 115 -14 196v785q0 71 32 101t101 30h205
v-176h-88q-45 0 -45 -45v-1225h-185l-645 915l-118 197h-5q12 -117 13 -197v-784q0 -71 -31 -101t-100 -30h-207z" />
    <glyph glyph-name="Ograve" unicode="&#xd2;" horiz-adv-x="1624" 
d="M725 1546l-195 260h201l150 -260h-156zM811 1280q-221 0 -375 -158t-153 -392q-1 -234 153 -398t375 -164t376 164t155 398t-155 392t-376 158zM70 729q0 315 214 528t527 213t528 -213t215 -528t-215 -534t-528 -219t-527 218q-214 220 -214 535z" />
    <glyph glyph-name="Oacute" unicode="&#xd3;" horiz-adv-x="1624" 
d="M727 1546l150 260h200l-194 -260h-156zM811 1280q-221 0 -375 -158t-153 -392q-1 -234 153 -398t375 -164t376 164t155 398t-155 392t-376 158zM70 729q0 315 214 528t527 213t528 -213t215 -528t-215 -534t-528 -219t-527 218q-214 220 -214 535z" />
    <glyph glyph-name="Ocircumflex" unicode="&#xd4;" horiz-adv-x="1624" 
d="M537 1546l178 260h182l180 -260h-162l-106 164h-4l-109 -164h-159zM811 1280q-221 0 -375 -158t-153 -392q-1 -234 153 -398t375 -164t376 164t155 398t-155 392t-376 158zM70 729q0 315 214 528t527 213t528 -213t215 -528t-215 -534t-528 -219t-527 218
q-214 220 -214 535z" />
    <glyph glyph-name="Otilde" unicode="&#xd5;" horiz-adv-x="1624" 
d="M459 1548q0 260 211 260q59 0 106 -34t83 -70q36 -35 76 -35t59 40t20 93h135q0 -260 -211 -260q-59 0 -105 35t-83 70t-77 35q-39 0 -59 -41q-20 -40 -20 -93h-135zM811 1280q-221 0 -375 -158t-153 -392q-1 -234 153 -398t375 -164t376 164t155 398t-155 392t-376 158z
M70 729q0 315 214 528t527 213t528 -213t215 -528t-215 -534t-528 -219t-527 218q-214 220 -214 535z" />
    <glyph glyph-name="Odieresis" unicode="&#xd6;" horiz-adv-x="1624" 
d="M563 1599v207h152v-207h-152zM901 1599v207h150v-207h-150zM811 1280q-221 0 -375 -158t-153 -392q-1 -234 153 -398t375 -164t376 164t155 398t-155 392t-376 158zM70 729q0 315 214 528t527 213t528 -213t215 -528t-215 -534t-528 -219t-527 218q-214 220 -214 535z
" />
    <glyph glyph-name="multiply" unicode="&#xd7;" 
d="M96 113l422 471l-422 471l113 112l418 -467l420 467l112 -112l-424 -471l424 -471l-112 -113l-420 465l-418 -465z" />
    <glyph glyph-name="Oslash" unicode="&#xd8;" horiz-adv-x="1628" 
d="M813 168q221 0 376 164t155 399t-166 395l-635 -882q123 -76 270 -76zM813 1280q-221 0 -375 -158t-154 -395t165 -405l634 882q-129 76 -270 76zM813 1470q209 0 385 -104l96 133l101 -69l-95 -134q119 -104 188 -250t68 -313q0 -319 -215 -538t-528 -220
q-213 0 -385 109l-96 -135l-103 69l99 136q-121 106 -189 256t-67 323q0 311 215 524t526 213z" />
    <glyph glyph-name="Ugrave" unicode="&#xd9;" horiz-adv-x="1490" 
d="M668 1546l-195 260h201l149 -260h-155zM195 506v719q0 45 -45 45h-89v176h207q70 0 101 -31t30 -100v-801q1 -162 95 -254t252 -92t251 93q94 93 95 255v799q0 71 32 101t101 30h205v-176h-89q-45 0 -45 -45v-719q0 -238 -152 -384t-398 -146t-398 146t-153 384z" />
    <glyph glyph-name="Uacute" unicode="&#xda;" horiz-adv-x="1490" 
d="M668 1546l149 260h201l-195 -260h-155zM195 506v719q0 45 -45 45h-89v176h207q70 0 101 -31t30 -100v-801q1 -162 95 -254t252 -92t251 93q94 93 95 255v799q0 71 32 101t101 30h205v-176h-89q-45 0 -45 -45v-719q0 -238 -152 -384t-398 -146t-398 146t-153 384z" />
    <glyph glyph-name="Ucircumflex" unicode="&#xdb;" horiz-adv-x="1490" 
d="M477 1546l178 260h183l180 -260h-162l-106 164h-5l-108 -164h-160zM195 506v719q0 45 -45 45h-89v176h207q70 0 101 -31t30 -100v-801q1 -162 95 -254t252 -92t251 93q94 93 95 255v799q0 71 32 101t101 30h205v-176h-89q-45 0 -45 -45v-719q0 -238 -152 -384t-398 -146
t-398 146t-153 384z" />
    <glyph glyph-name="Udieresis" unicode="&#xdc;" horiz-adv-x="1490" 
d="M504 1599v207h151v-207h-151zM842 1599v207h149v-207h-149zM195 506v719q0 45 -45 45h-89v176h207q70 0 101 -31t30 -100v-801q1 -162 95 -254t252 -92t251 93q94 93 95 255v799q0 71 32 101t101 30h205v-176h-89q-45 0 -45 -45v-719q0 -238 -152 -384t-398 -146
t-398 146t-153 384z" />
    <glyph glyph-name="Yacute" unicode="&#xdd;" horiz-adv-x="1234" 
d="M539 1546l149 260h201l-195 -260h-155zM516 0v631l-366 588q-31 51 -89 51h-41v176h95q77 0 115 -20t79 -91l219 -364l88 -162h5q39 82 88 162l217 364q41 70 80 90t114 21h94v-176h-38q-59 0 -91 -51l-364 -588v-631h-205z" />
    <glyph glyph-name="Thorn" unicode="&#xde;" horiz-adv-x="1220" 
d="M416 465h266q127 0 201 76q73 76 73 206q0 129 -72 203t-200 74h-268v-559zM211 0v1225q0 45 -45 45h-88v176h207q71 0 101 -31t30 -100v-115h299q201 0 327 -124t125 -328q0 -204 -127 -332q-127 -127 -327 -127h-297v-289h-205z" />
    <glyph glyph-name="germandbls" unicode="&#xdf;" horiz-adv-x="1183" 
d="M39 0v170h78q45 0 45 45v870q0 181 131 283t305 102t285 -95t110 -234q1 -66 -31 -122t-71 -90q-103 -90 -103 -155t130 -157q53 -37 107 -81t92 -109t38 -140q0 -147 -102 -229t-248 -83q-88 0 -166 26t-111 52l-34 25l55 153q104 -84 231 -84q74 0 123 36q49 35 49 97
t-38 107t-91 84t-107 79q-130 96 -130 205q0 108 104 203t103 171q1 77 -51 123t-147 46t-165 -59t-70 -168v-940q0 -71 -32 -101t-101 -30h-188z" />
    <glyph glyph-name="agrave" unicode="&#xe0;" horiz-adv-x="1114" 
d="M463 1186l-195 260h201l149 -260h-155zM276 301q0 -68 52 -117t156 -49q106 -1 185 103t79 227v35h-52q-295 0 -379 -88q-41 -43 -41 -111zM700 645h45v10q0 135 -53 191t-176 57q-58 0 -114 -17t-56 -63v-59h-186v102q0 148 258 188q51 7 100 7q236 0 331 -108t95 -298
v-440q0 -45 45 -45h84v-170h-186q-129 0 -129 119l4 61h-4q-4 -8 -10 -22t-34 -49q-60 -75 -157 -111q-59 -23 -129 -23q-143 0 -248 84q-104 85 -104 240t124 232t254 96q130 18 246 18z" />
    <glyph glyph-name="aacute" unicode="&#xe1;" horiz-adv-x="1114" 
d="M463 1186l149 260h201l-195 -260h-155zM276 301q0 -68 52 -117t156 -49q106 -1 185 103t79 227v35h-52q-295 0 -379 -88q-41 -43 -41 -111zM700 645h45v10q0 135 -53 191t-176 57q-58 0 -114 -17t-56 -63v-59h-186v102q0 148 258 188q51 7 100 7q236 0 331 -108t95 -298
v-440q0 -45 45 -45h84v-170h-186q-129 0 -129 119l4 61h-4q-4 -8 -10 -22t-34 -49q-60 -75 -157 -111q-59 -23 -129 -23q-143 0 -248 84q-104 85 -104 240t124 232t254 96q130 18 246 18z" />
    <glyph glyph-name="acircumflex" unicode="&#xe2;" horiz-adv-x="1114" 
d="M274 1186l179 260h182l180 -260h-162l-106 164h-4l-109 -164h-160zM276 301q0 -68 52 -117t156 -49q106 -1 185 103t79 227v35h-52q-295 0 -379 -88q-41 -43 -41 -111zM700 645h45v10q0 135 -53 191t-176 57q-58 0 -114 -17t-56 -63v-59h-186v102q0 148 258 188
q51 7 100 7q236 0 331 -108t95 -298v-440q0 -45 45 -45h84v-170h-186q-129 0 -129 119l4 61h-4q-4 -8 -10 -22t-34 -49q-60 -75 -157 -111q-59 -23 -129 -23q-143 0 -248 84q-104 85 -104 240t124 232t254 96q130 18 246 18z" />
    <glyph glyph-name="atilde" unicode="&#xe3;" horiz-adv-x="1114" 
d="M197 1188q0 260 211 260q59 0 106 -35t83 -70t76 -35t59 41q19 40 20 93h135q0 -260 -211 -260q-60 0 -106 35t-83 69t-77 35q-40 0 -58 -40q-20 -40 -20 -93h-135zM276 301q0 -68 52 -117t156 -49q106 -1 185 103t79 227v35h-52q-295 0 -379 -88q-41 -43 -41 -111z
M700 645h45v10q0 135 -53 191t-176 57q-58 0 -114 -17t-56 -63v-59h-186v102q0 148 258 188q51 7 100 7q236 0 331 -108t95 -298v-440q0 -45 45 -45h84v-170h-186q-129 0 -129 119l4 61h-4q-4 -8 -10 -22t-34 -49q-60 -75 -157 -111q-59 -23 -129 -23q-143 0 -248 84
q-104 85 -104 240t124 232t254 96q130 18 246 18z" />
    <glyph glyph-name="adieresis" unicode="&#xe4;" horiz-adv-x="1114" 
d="M301 1239v207h152v-207h-152zM639 1239v207h149v-207h-149zM276 301q0 -68 52 -117t156 -49q106 -1 185 103t79 227v35h-52q-295 0 -379 -88q-41 -43 -41 -111zM700 645h45v10q0 135 -53 191t-176 57q-58 0 -114 -17t-56 -63v-59h-186v102q0 148 258 188q51 7 100 7
q236 0 331 -108t95 -298v-440q0 -45 45 -45h84v-170h-186q-129 0 -129 119l4 61h-4q-4 -8 -10 -22t-34 -49q-60 -75 -157 -111q-59 -23 -129 -23q-143 0 -248 84q-104 85 -104 240t124 232t254 96q130 18 246 18z" />
    <glyph glyph-name="aring" unicode="&#xe5;" horiz-adv-x="1114" 
d="M545 1245q31 -1 50 19t19 51t-19 50t-50 19t-50 -19t-19 -50t18 -51q20 -20 51 -19zM544 1161q-69 0 -117 42t-48 111q0 68 48 110t117 42t118 -42t49 -110t-49 -111q-49 -42 -118 -42zM276 301q0 -68 52 -117t156 -49q106 -1 185 103t79 227v35h-52q-295 0 -379 -88
q-41 -43 -41 -111zM700 645h45v10q0 135 -53 191t-176 57q-58 0 -114 -17t-56 -63v-59h-186v102q0 148 258 188q51 7 100 7q236 0 331 -108t95 -298v-440q0 -45 45 -45h84v-170h-186q-129 0 -129 119l4 61h-4q-4 -8 -10 -22t-34 -49q-60 -75 -157 -111q-59 -23 -129 -23
q-143 0 -248 84q-104 85 -104 240t124 232t254 96q130 18 246 18z" />
    <glyph glyph-name="ae" unicode="&#xe6;" horiz-adv-x="1777" 
d="M279 301q0 -70 50 -118q49 -48 157 -48q108 -1 185 103t77 229v27h-97q-372 0 -372 -193zM946 639h537q-4 125 -74 195q-69 70 -177 70t-187 -70t-99 -195zM76 291q0 348 618 348h51v18q0 135 -54 191t-175 55q-58 0 -114 -17t-56 -63v-59h-186v102q0 140 236 185
q58 10 122 10q272 0 352 -182h4q123 182 369 182q205 0 323 -136t117 -339l-4 -92h-741q8 -166 103 -256t241 -91q80 0 156 31t110 60l37 30l86 -141q-16 -16 -49 -42t-137 -68q-103 -42 -235 -42t-246 69t-179 192h-4q-22 -64 -100 -149q-45 -48 -121 -80t-170 -32
q-150 -1 -252 85t-102 231z" />
    <glyph glyph-name="ccedilla" unicode="&#xe7;" horiz-adv-x="1091" 
d="M760 -264q0 -76 -60 -118t-136 -42q-75 0 -128 14v119q41 -14 88 -14q96 0 97 63q0 63 -107 64l-37 -2l41 166q-200 33 -322 179t-122 365t155 375q156 156 402 156q117 0 232 -47q61 -25 101 -72t40 -108v-107h-181v57q0 51 -62 79t-130 28q-154 1 -254 -103
q-101 -104 -101 -271t106 -266t259 -99q86 0 167 36t118 70l37 37l86 -141q-5 -6 -17 -18t-52 -44q-148 -114 -351 -117l-17 -77q66 -8 107 -48q41 -38 41 -114z" />
    <glyph glyph-name="egrave" unicode="&#xe8;" horiz-adv-x="1130" 
d="M506 1186l-195 260h201l150 -260h-156zM287 639h549q-4 125 -74 195t-178 70t-192 -69q-82 -69 -105 -196zM74 524q0 238 147 388t365 149q218 0 337 -137q118 -137 117 -349l-6 -81h-755q8 -160 110 -253t246 -94q80 0 156 31t110 60l37 30l86 -141q-16 -16 -49 -42
t-137 -68t-213 -42q-244 0 -398 155q-153 156 -153 394z" />
    <glyph glyph-name="eacute" unicode="&#xe9;" horiz-adv-x="1130" 
d="M508 1186l149 260h201l-194 -260h-156zM287 639h549q-4 125 -74 195t-178 70t-192 -69q-82 -69 -105 -196zM74 524q0 238 147 388t365 149q218 0 337 -137q118 -137 117 -349l-6 -81h-755q8 -160 110 -253t246 -94q80 0 156 31t110 60l37 30l86 -141q-16 -16 -49 -42
t-137 -68t-213 -42q-244 0 -398 155q-153 156 -153 394z" />
    <glyph glyph-name="ecircumflex" unicode="&#xea;" horiz-adv-x="1130" 
d="M317 1186l179 260h182l180 -260h-162l-106 164h-4l-109 -164h-160zM287 639h549q-4 125 -74 195t-178 70t-192 -69q-82 -69 -105 -196zM74 524q0 238 147 388t365 149q218 0 337 -137q118 -137 117 -349l-6 -81h-755q8 -160 110 -253t246 -94q80 0 156 31t110 60l37 30
l86 -141q-16 -16 -49 -42t-137 -68t-213 -42q-244 0 -398 155q-153 156 -153 394z" />
    <glyph glyph-name="edieresis" unicode="&#xeb;" horiz-adv-x="1130" 
d="M344 1239v207h152v-207h-152zM682 1239v207h149v-207h-149zM287 639h549q-4 125 -74 195t-178 70t-192 -69q-82 -69 -105 -196zM74 524q0 238 147 388t365 149q218 0 337 -137q118 -137 117 -349l-6 -81h-755q8 -160 110 -253t246 -94q80 0 156 31t110 60l37 30l86 -141
q-16 -16 -49 -42t-137 -68t-213 -42q-244 0 -398 155q-153 156 -153 394z" />
    <glyph glyph-name="igrave" unicode="&#xec;" horiz-adv-x="567" 
d="M188 1186l-194 260h201l149 -260h-156zM184 131v690q0 45 -45 45h-84v170h197q70 0 100 -30t31 -101v-690q0 -45 45 -45h84v-170h-195q-69 0 -101 30t-32 101z" />
    <glyph glyph-name="iacute" unicode="&#xed;" horiz-adv-x="567" 
d="M188 1186l150 260h201l-195 -260h-156zM184 131v690q0 45 -45 45h-84v170h197q70 0 100 -30t31 -101v-690q0 -45 45 -45h84v-170h-195q-69 0 -101 30t-32 101z" />
    <glyph glyph-name="icircumflex" unicode="&#xee;" horiz-adv-x="567" 
d="M-2 1186l180 260h182l181 -260h-164l-107 166h-4l-106 -166h-162zM184 131v690q0 45 -45 45h-84v170h197q70 0 100 -30t31 -101v-690q0 -45 45 -45h84v-170h-195q-69 0 -101 30t-32 101z" />
    <glyph glyph-name="idieresis" unicode="&#xef;" horiz-adv-x="567" 
d="M47 1239v207h150v-207h-150zM332 1239v207h151v-207h-151zM184 131v690q0 45 -45 45h-84v170h197q70 0 100 -30t31 -101v-690q0 -45 45 -45h84v-170h-195q-69 0 -101 30t-32 101z" />
    <glyph glyph-name="eth" unicode="&#xf0;" horiz-adv-x="1177" 
d="M582 795q-140 1 -222 -93t-81 -227t77 -230t211 -98q81 0 143 34t98 91q71 112 72 243q1 130 -78 205q-80 75 -220 75zM78 475q0 199 130 339t355 140q74 0 136 -22t89 -43l27 -21h4q-61 164 -223 273l-371 -164l-20 127l254 113q-125 63 -264 94l55 162
q238 -53 424 -164l284 125l19 -125l-189 -86q295 -246 295 -660q0 -222 -118 -396q-59 -87 -163 -139t-239 -53q-223 1 -354 151t-131 349z" />
    <glyph glyph-name="ntilde" unicode="&#xf1;" horiz-adv-x="1282" 
d="M313 1188q0 260 211 260q58 0 106 -35t84 -70t76 -35t59 41q19 40 19 93h136q0 -260 -211 -260q-59 0 -105 35t-84 69q-37 34 -77 35q-40 0 -59 -40t-19 -93h-136zM174 0v821q0 45 -45 45h-84v170h191q131 0 131 -114v-39l-5 -60h5q41 88 139 163t265 75q341 0 341 -397
v-449q0 -45 45 -45h84v-170h-197q-70 0 -100 31t-31 100v487q0 125 -40 193q-41 68 -157 68t-205 -71t-120 -183q-18 -53 -18 -140v-485h-199z" />
    <glyph glyph-name="ograve" unicode="&#xf2;" horiz-adv-x="1263" 
d="M551 1186l-195 260h201l150 -260h-156zM276 520q0 -160 104 -266t252 -106q149 0 252 104q103 106 103 267t-103 265q-104 104 -252 104t-252 -104t-104 -264zM74 520q0 233 162 387t396 154t396 -154t162 -387t-163 -389t-396 -156t-395 156t-162 389z" />
    <glyph glyph-name="oacute" unicode="&#xf3;" horiz-adv-x="1263" 
d="M551 1186l149 260h201l-194 -260h-156zM276 520q0 -160 104 -266t252 -106q149 0 252 104q103 106 103 267t-103 265q-104 104 -252 104t-252 -104t-104 -264zM74 520q0 233 162 387t396 154t396 -154t162 -387t-163 -389t-396 -156t-395 156t-162 389z" />
    <glyph glyph-name="ocircumflex" unicode="&#xf4;" horiz-adv-x="1263" 
d="M362 1186l179 260h182l180 -260h-162l-106 164h-4l-109 -164h-160zM276 520q0 -160 104 -266t252 -106q149 0 252 104q103 106 103 267t-103 265q-104 104 -252 104t-252 -104t-104 -264zM74 520q0 233 162 387t396 154t396 -154t162 -387t-163 -389t-396 -156t-395 156
t-162 389z" />
    <glyph glyph-name="otilde" unicode="&#xf5;" horiz-adv-x="1263" 
d="M285 1188q0 260 211 260q59 0 106 -35t83 -70t76 -35t59 41q19 40 20 93h135q0 -260 -211 -260q-60 0 -106 35t-83 69t-77 35q-40 0 -58 -40q-20 -40 -20 -93h-135zM276 520q0 -160 104 -266t252 -106q149 0 252 104q103 106 103 267t-103 265q-104 104 -252 104
t-252 -104t-104 -264zM74 520q0 233 162 387t396 154t396 -154t162 -387t-163 -389t-396 -156t-395 156t-162 389z" />
    <glyph glyph-name="odieresis" unicode="&#xf6;" horiz-adv-x="1263" 
d="M389 1239v207h152v-207h-152zM727 1239v207h150v-207h-150zM276 520q0 -160 104 -266t252 -106q149 0 252 104q103 106 103 267t-103 265q-104 104 -252 104t-252 -104t-104 -264zM74 520q0 233 162 387t396 154t396 -154t162 -387t-163 -389t-396 -156t-395 156
t-162 389z" />
    <glyph glyph-name="divide" unicode="&#xf7;" 
d="M518 90v186h193v-186h-193zM98 504v160h1035v-160h-1035zM518 891v186h193v-186h-193z" />
    <glyph glyph-name="oslash" unicode="&#xf8;" horiz-adv-x="1263" 
d="M631 147q150 -1 253 105t103 260t-94 254l-416 -582q72 -37 154 -37zM631 889q-147 -1 -251 -105t-103 -262q0 -158 104 -268l422 590q-80 45 -172 45zM631 1061q152 0 278 -70l82 115l96 -70l-79 -110q182 -162 182 -400t-163 -395q-163 -156 -396 -156q-143 0 -260 62
l-80 -115l-98 72l77 106q-197 156 -196 420q0 233 162 387t395 154z" />
    <glyph glyph-name="ugrave" unicode="&#xf9;" horiz-adv-x="1271" 
d="M543 1186l-195 260h201l149 -260h-155zM522 -25q-352 0 -352 398v448q0 45 -45 45h-84v170h195q70 0 102 -30t31 -97v-491q0 -125 40 -192t152 -66q154 0 246 114t92 277v485h199v-821q0 -45 45 -45h84v-170h-191q-131 0 -131 115v39l2 59h-4q-39 -90 -140 -164t-241 -74
z" />
    <glyph glyph-name="uacute" unicode="&#xfa;" horiz-adv-x="1271" 
d="M543 1186l149 260h201l-195 -260h-155zM522 -25q-352 0 -352 398v448q0 45 -45 45h-84v170h195q70 0 102 -30t31 -97v-491q0 -125 40 -192t152 -66q154 0 246 114t92 277v485h199v-821q0 -45 45 -45h84v-170h-191q-131 0 -131 115v39l2 59h-4q-39 -90 -140 -164t-241 -74
z" />
    <glyph glyph-name="ucircumflex" unicode="&#xfb;" horiz-adv-x="1271" 
d="M352 1186l178 260h183l180 -260h-162l-106 164h-4l-109 -164h-160zM522 -25q-352 0 -352 398v448q0 45 -45 45h-84v170h195q70 0 102 -30t31 -97v-491q0 -125 40 -192t152 -66q154 0 246 114t92 277v485h199v-821q0 -45 45 -45h84v-170h-191q-131 0 -131 115v39l2 59h-4
q-39 -90 -140 -164t-241 -74z" />
    <glyph glyph-name="udieresis" unicode="&#xfc;" horiz-adv-x="1271" 
d="M379 1239v207h151v-207h-151zM717 1239v207h149v-207h-149zM522 -25q-352 0 -352 398v448q0 45 -45 45h-84v170h195q70 0 102 -30t31 -97v-491q0 -125 40 -192t152 -66q154 0 246 114t92 277v485h199v-821q0 -45 45 -45h84v-170h-191q-131 0 -131 115v39l2 59h-4
q-39 -90 -140 -164t-241 -74z" />
    <glyph glyph-name="yacute" unicode="&#xfd;" horiz-adv-x="1118" 
d="M479 1186l150 260h200l-194 -260h-156zM244 -258q119 0 182 149l47 113l-354 821q-18 41 -66 41h-24v170h116q63 0 94 -21q30 -22 54 -83l235 -584l37 -125h4q14 72 35 125l215 584q23 61 55 83q33 22 97 21h119v-170h-27q-47 0 -66 -41l-409 -1011q-47 -120 -135 -182
t-199 -62q-68 0 -129 26t-88 52l-27 24l82 144q0 -2 18 -20t57 -36q38 -18 77 -18z" />
    <glyph glyph-name="thorn" unicode="&#xfe;" horiz-adv-x="1230" 
d="M360 520q0 -192 86 -282t216 -90t210 102t80 268t-80 268t-212 102t-216 -88t-84 -280zM168 -410v1641q0 45 -45 45h-84v170h197q70 0 100 -31t31 -100v-334l-5 -90h5q98 170 317 170t345 -151q126 -152 126 -392t-126 -392t-337 -151q-173 0 -280 107q-25 25 -35 41
l-10 18h-5q4 -37 5 -90v-461h-199z" />
    <glyph glyph-name="ydieresis" unicode="&#xff;" horiz-adv-x="1118" 
d="M315 1239v207h152v-207h-152zM653 1239v207h150v-207h-150zM244 -258q119 0 182 149l47 113l-354 821q-18 41 -66 41h-24v170h116q63 0 94 -21q30 -22 54 -83l235 -584l37 -125h4q14 72 35 125l215 584q23 61 55 83q33 22 97 21h119v-170h-27q-47 0 -66 -41l-409 -1011
q-47 -120 -135 -182t-199 -62q-68 0 -129 26t-88 52l-27 24l82 144q0 -2 18 -20t57 -36q38 -18 77 -18z" />
    <glyph glyph-name="Amacron" unicode="&#x100;" horiz-adv-x="1361" 
d="M422 1606v139h520v-139h-520zM465 588h432l-158 440l-57 203h-4q-29 -127 -55 -203zM25 0v176h28q53 0 68 45l452 1225h215l453 -1225q14 -45 68 -45h30v-176h-114q-76 0 -110 24t-58 95l-109 297h-532l-109 -297q-27 -71 -61 -95t-109 -24h-112z" />
    <glyph glyph-name="amacron" unicode="&#x101;" horiz-adv-x="1114" 
d="M285 1245v139h520v-139h-520zM276 301q0 -68 52 -117t156 -49q106 -1 185 103t79 227v35h-52q-295 0 -379 -88q-41 -43 -41 -111zM700 645h45v10q0 135 -53 191t-176 57q-58 0 -114 -17t-56 -63v-59h-186v102q0 148 258 188q51 7 100 7q236 0 331 -108t95 -298v-440
q0 -45 45 -45h84v-170h-186q-129 0 -129 119l4 61h-4q-4 -8 -10 -22t-34 -49q-60 -75 -157 -111q-59 -23 -129 -23q-143 0 -248 84q-104 85 -104 240t124 232t254 96q130 18 246 18z" />
    <glyph glyph-name="Abreve" unicode="&#x102;" horiz-adv-x="1361" 
d="M944 1778q0 -112 -78 -176t-183 -64t-184 64t-79 176v28h137v-26q0 -61 37 -92t89 -31t89 32t37 93v24h135v-28zM465 588h432l-158 440l-57 203h-4q-29 -127 -55 -203zM25 0v176h28q53 0 68 45l452 1225h215l453 -1225q14 -45 68 -45h30v-176h-114q-76 0 -110 24t-58 95
l-109 297h-532l-109 -297q-27 -71 -61 -95t-109 -24h-112z" />
    <glyph glyph-name="abreve" unicode="&#x103;" horiz-adv-x="1114" 
d="M544 1178q-105 0 -185 63q-79 63 -78 176v29h137v-27q0 -61 37 -92t89 -31t89 32t37 93v25h135v-29q0 -113 -78 -176t-183 -63zM276 301q0 -68 52 -117t156 -49q106 -1 185 103t79 227v35h-52q-295 0 -379 -88q-41 -43 -41 -111zM700 645h45v10q0 135 -53 191t-176 57
q-58 0 -114 -17t-56 -63v-59h-186v102q0 148 258 188q51 7 100 7q236 0 331 -108t95 -298v-440q0 -45 45 -45h84v-170h-186q-129 0 -129 119l4 61h-4q-4 -8 -10 -22t-34 -49q-60 -75 -157 -111q-59 -23 -129 -23q-143 0 -248 84q-104 85 -104 240t124 232t254 96
q130 18 246 18z" />
    <glyph glyph-name="Aogonek" unicode="&#x104;" horiz-adv-x="1361" 
d="M465 588h432l-158 440l-57 203h-4q-29 -127 -55 -203zM25 0v176h28q53 0 68 45l452 1225h215l453 -1225q14 -45 68 -45h30v-176q-131 -106 -131 -182q0 -35 29 -57t57 -27l27 -4l-47 -154q-20 0 -72 15q-51 15 -83 35q-31 20 -57 58t-26 87q0 127 140 231v4q-49 6 -74 30
t-45 83l-109 297h-532l-109 -297q-27 -71 -61 -95t-109 -24h-112z" />
    <glyph glyph-name="aogonek" unicode="&#x105;" horiz-adv-x="1114" 
d="M276 301q0 -68 52 -117t156 -49q106 -1 185 103t79 227v35h-52q-295 0 -379 -88q-41 -43 -41 -111zM702 645h43v10q0 135 -53 191t-176 57q-58 0 -114 -18t-56 -62v-59h-186v102q0 149 259 188q52 7 99 7q236 0 331 -108t95 -298v-440q0 -45 45 -45h84v-170
q-131 -111 -131 -182q0 -35 29 -57t57 -27l27 -4l-45 -154q-22 0 -74 15q-51 15 -83 35q-31 20 -57 58t-26 87q0 119 135 225v4h-35q-113 0 -112 113v10l4 57h-4q-4 -8 -10 -22t-34 -49q-60 -75 -159 -111q-61 -23 -133 -23q-143 0 -245 88q-101 89 -101 240t127 229
q127 77 253 95q128 18 246 18z" />
    <glyph glyph-name="Cacute" unicode="&#x106;" horiz-adv-x="1435" 
d="M707 1546l149 260h201l-195 -260h-155zM803 -25q-319 0 -526 218q-207 219 -207 537t208 530t517 210q171 0 343 -69q87 -35 143 -98t56 -146v-141h-188v82q0 84 -113 133t-237 49q-221 0 -369 -152t-147 -392t151 -404t371 -164q165 0 280 66t156 110l21 21l110 -148
q-26 -33 -88 -79q-60 -46 -122 -78t-160 -58t-199 -27z" />
    <glyph glyph-name="cacute" unicode="&#x107;" horiz-adv-x="1091" 
d="M516 1186l150 260h200l-194 -260h-156zM74 516q0 234 155 389q156 156 402 156q117 0 232 -47q61 -25 101 -72t40 -108v-107h-181v57q0 51 -62 79t-130 28q-154 1 -254 -103q-101 -104 -101 -271t106 -266t259 -99q86 0 167 36t118 70l37 37l86 -141q-16 -21 -63 -57
q-158 -119 -359 -122q-245 -1 -399 153t-154 388z" />
    <glyph glyph-name="Ccircumflex" unicode="&#x108;" horiz-adv-x="1435" 
d="M518 1546l178 260h183l180 -260h-162l-106 164h-5l-108 -164h-160zM803 -25q-319 0 -526 218q-207 219 -207 537t208 530t517 210q171 0 343 -69q87 -35 143 -98t56 -146v-141h-188v82q0 84 -113 133t-237 49q-221 0 -369 -152t-147 -392t151 -404t371 -164q165 0 280 66
t156 110l21 21l110 -148q-26 -33 -88 -79q-60 -46 -122 -78t-160 -58t-199 -27z" />
    <glyph glyph-name="ccircumflex" unicode="&#x109;" horiz-adv-x="1091" 
d="M328 1186l178 260h182l180 -260h-161l-107 164h-4l-109 -164h-159zM74 516q0 234 155 389q156 156 402 156q117 0 232 -47q61 -25 101 -72t40 -108v-107h-181v57q0 51 -62 79t-130 28q-154 1 -254 -103q-101 -104 -101 -271t106 -266t259 -99q86 0 167 36t118 70l37 37
l86 -141q-16 -21 -63 -57q-158 -119 -359 -122q-245 -1 -399 153t-154 388z" />
    <glyph glyph-name="Cdotaccent" unicode="&#x10a;" horiz-adv-x="1435" 
d="M698 1599v207h179v-207h-179zM803 -25q-319 0 -526 218q-207 219 -207 537t208 530t517 210q171 0 343 -69q87 -35 143 -98t56 -146v-141h-188v82q0 84 -113 133t-237 49q-221 0 -369 -152t-147 -392t151 -404t371 -164q165 0 280 66t156 110l21 21l110 -148
q-26 -33 -88 -79q-60 -46 -122 -78t-160 -58t-199 -27z" />
    <glyph glyph-name="cdotaccent" unicode="&#x10b;" horiz-adv-x="1091" 
d="M508 1239v207h178v-207h-178zM74 516q0 234 155 389q156 156 402 156q117 0 232 -47q61 -25 101 -72t40 -108v-107h-181v57q0 51 -62 79t-130 28q-154 1 -254 -103q-101 -104 -101 -271t106 -266t259 -99q86 0 167 36t118 70l37 37l86 -141q-16 -21 -63 -57
q-158 -119 -359 -122q-245 -1 -399 153t-154 388z" />
    <glyph glyph-name="Ccaron" unicode="&#x10c;" horiz-adv-x="1435" 
d="M696 1546l-180 260h162l106 -166h4l107 166h164l-180 -260h-183zM803 -25q-319 0 -526 218q-207 219 -207 537t208 530t517 210q171 0 343 -69q87 -35 143 -98t56 -146v-141h-188v82q0 84 -113 133t-237 49q-221 0 -369 -152t-147 -392t151 -404t371 -164q165 0 280 66
t156 110l21 21l110 -148q-26 -33 -88 -79q-60 -46 -122 -78t-160 -58t-199 -27z" />
    <glyph glyph-name="ccaron" unicode="&#x10d;" horiz-adv-x="1091" 
d="M506 1186l-180 260h161l107 -166h4l107 166h163l-180 -260h-182zM74 516q0 234 155 389q156 156 402 156q117 0 232 -47q61 -25 101 -72t40 -108v-107h-181v57q0 51 -62 79t-130 28q-154 1 -254 -103q-101 -104 -101 -271t106 -266t259 -99q86 0 167 36t118 70l37 37
l86 -141q-16 -21 -63 -57q-158 -119 -359 -122q-245 -1 -399 153t-154 388z" />
    <glyph glyph-name="Dcaron" unicode="&#x10e;" horiz-adv-x="1464" 
d="M610 1546l-180 260h162l106 -166h4l107 166h164l-180 -260h-183zM416 221q0 -45 45 -45h188q246 0 389 143q144 143 144 405t-144 403q-144 142 -389 143h-233v-1049zM211 131v1139h-133v176h586q334 0 532 -192t199 -530q0 -340 -199 -532t-532 -192h-322q-70 0 -100 30
t-31 101z" />
    <glyph glyph-name="dcaron" unicode="&#x10f;" horiz-adv-x="1415" 
d="M1176 1446h161q13 -56 13 -120t-50 -169h-141q39 100 39 164t-22 125zM569 147q129 -1 215 93t86 262t-76 278t-212 109q-134 -1 -218 -101t-85 -269q1 -169 81 -271t209 -101zM76 519q0 245 131 393t338 149q133 0 215 -57t104 -103h4q-4 31 -4 70v260q0 45 -45 45h-84
v170h197q70 0 100 -31t31 -100v-1100q0 -45 45 -45h84v-170h-191q-127 0 -127 111l3 53h-5q-60 -120 -206 -168q-61 -20 -134 -21q-208 -1 -332 149t-124 395z" />
    <glyph glyph-name="Dcroat" unicode="&#x110;" horiz-adv-x="1464" 
d="M416 221q0 -45 45 -45h188q246 0 389 143q144 143 144 405t-144 403q-144 142 -389 143h-233v-463h295v-168h-295v-418zM211 131v508h-100v168h100v463h-133v176h586q334 0 532 -192t199 -530q0 -340 -199 -532t-532 -192h-322q-70 0 -100 30t-31 101z" />
    <glyph glyph-name="dcroat" unicode="&#x111;" horiz-adv-x="1241" 
d="M569 147q129 -1 215 93t86 262t-76 278t-212 109q-134 -1 -218 -101t-85 -269q1 -169 81 -271t209 -101zM532 -25q-208 0 -332 150q-124 151 -124 395t131 392t338 149q133 0 215 -57t104 -103h4q-4 31 -4 70v182h-264v129h264v164h199v-164h158v-129h-158v-938
q0 -45 45 -45h84v-170h-191q-127 0 -127 111l3 53h-5q-60 -120 -206 -168q-62 -21 -134 -21z" />
    <glyph glyph-name="Emacron" unicode="&#x112;" horiz-adv-x="1163" 
d="M346 1606v139h520v-139h-520zM211 131v1139h-133v176h850q70 0 100 -31t31 -100v-182h-187v92q0 45 -45 45h-411v-453h506v-176h-506v-420q0 -45 45 -45h422q45 0 45 45v92h188v-182q0 -71 -31 -101t-100 -30h-643q-70 0 -100 30t-31 101z" />
    <glyph glyph-name="emacron" unicode="&#x113;" horiz-adv-x="1130" 
d="M328 1245v139h520v-139h-520zM287 639h549q-4 125 -74 195t-178 70t-192 -69q-82 -69 -105 -196zM74 524q0 238 147 388t365 149q218 0 337 -137q118 -137 117 -349l-6 -81h-755q8 -160 110 -253t246 -94q80 0 156 31t110 60l37 30l86 -141q-16 -16 -49 -42t-137 -68
t-213 -42q-244 0 -398 155q-153 156 -153 394z" />
    <glyph glyph-name="Ebreve" unicode="&#x114;" horiz-adv-x="1163" 
d="M866 1778q0 -112 -78 -176t-183 -64t-184 64t-79 176v28h137v-26q0 -61 37 -92t89 -31t89 32t37 93v24h135v-28zM211 131v1139h-133v176h850q70 0 100 -31t31 -100v-182h-187v92q0 45 -45 45h-411v-453h506v-176h-506v-420q0 -45 45 -45h422q45 0 45 45v92h188v-182
q0 -71 -31 -101t-100 -30h-643q-70 0 -100 30t-31 101z" />
    <glyph glyph-name="ebreve" unicode="&#x115;" horiz-adv-x="1130" 
d="M589 1178q-105 0 -185 63q-79 63 -78 176v29h137v-27q0 -61 37 -92t89 -31t89 32t37 93v25h135v-29q0 -113 -78 -176t-183 -63zM287 639h549q-4 125 -74 195t-178 70t-192 -69q-82 -69 -105 -196zM74 524q0 238 147 388t365 149q218 0 337 -137q118 -137 117 -349l-6 -81
h-755q8 -160 110 -253t246 -94q80 0 156 31t110 60l37 30l86 -141q-16 -16 -49 -42t-137 -68t-213 -42q-244 0 -398 155q-153 156 -153 394z" />
    <glyph glyph-name="Edotaccent" unicode="&#x116;" horiz-adv-x="1163" 
d="M516 1599v207h178v-207h-178zM211 131v1139h-133v176h850q70 0 100 -31t31 -100v-182h-187v92q0 45 -45 45h-411v-453h506v-176h-506v-420q0 -45 45 -45h422q45 0 45 45v92h188v-182q0 -71 -31 -101t-100 -30h-643q-70 0 -100 30t-31 101z" />
    <glyph glyph-name="edotaccent" unicode="&#x117;" horiz-adv-x="1130" 
d="M498 1239v207h178v-207h-178zM287 639h549q-4 125 -74 195t-178 70t-192 -69q-82 -69 -105 -196zM74 524q0 238 147 388t365 149q218 0 337 -137q118 -137 117 -349l-6 -81h-755q8 -160 110 -253t246 -94q80 0 156 31t110 60l37 30l86 -141q-16 -16 -49 -42t-137 -68
t-213 -42q-244 0 -398 155q-153 156 -153 394z" />
    <glyph glyph-name="Eogonek" unicode="&#x118;" horiz-adv-x="1163" 
d="M211 131v1139h-133v176h850q70 0 100 -31t31 -100v-182h-187v92q0 45 -45 45h-411v-453h506v-176h-506v-420q0 -45 45 -45h422q45 0 45 45v92h188v-182q0 -76 -47 -115q-6 -6 -32 -28t-36 -30q-83 -74 -86 -140q0 -35 28 -57t56 -27l29 -4l-45 -154q-22 0 -74 15
q-51 15 -83 35t-58 58t-25 87q0 119 134 225v4h-535q-70 0 -100 30t-31 101z" />
    <glyph glyph-name="eogonek" unicode="&#x119;" horiz-adv-x="1130" 
d="M287 639h549q-6 125 -74 195t-178 70t-192 -69t-105 -196zM74 524q0 238 147 388t365 149q218 0 337 -137q118 -137 117 -349l-6 -81h-755q8 -160 110 -253t246 -94q80 0 156 31t110 60l37 30l86 -141q-16 -15 -98 -75t-129 -116t-47 -105q0 -48 28 -70t58 -27l28 -4
l-47 -154q-19 0 -71 15t-84 35t-57 58q-26 38 -25 87q0 104 114 206v5q-35 -6 -69 -7q-244 0 -398 155q-153 156 -153 394z" />
    <glyph glyph-name="Ecaron" unicode="&#x11a;" horiz-adv-x="1163" 
d="M514 1546l-180 260h162l106 -166h4l107 166h164l-181 -260h-182zM211 131v1139h-133v176h850q70 0 100 -31t31 -100v-182h-187v92q0 45 -45 45h-411v-453h506v-176h-506v-420q0 -45 45 -45h422q45 0 45 45v92h188v-182q0 -71 -31 -101t-100 -30h-643q-70 0 -100 30
t-31 101z" />
    <glyph glyph-name="ecaron" unicode="&#x11b;" horiz-adv-x="1130" 
d="M496 1186l-181 260h162l107 -166h4l106 166h164l-180 -260h-182zM287 639h549q-4 125 -74 195t-178 70t-192 -69q-82 -69 -105 -196zM74 524q0 238 147 388t365 149q218 0 337 -137q118 -137 117 -349l-6 -81h-755q8 -160 110 -253t246 -94q80 0 156 31t110 60l37 30
l86 -141q-16 -16 -49 -42t-137 -68t-213 -42q-244 0 -398 155q-153 156 -153 394z" />
    <glyph glyph-name="Gcircumflex" unicode="&#x11c;" horiz-adv-x="1507" 
d="M524 1546l178 260h183l180 -260h-162l-106 164h-4l-109 -164h-160zM72 720q0 322 210 536t519 214q155 0 283 -45t182 -90l51 -43l-117 -149q-18 16 -50 39q-32 24 -135 62t-210 38q-219 0 -370 -157t-151 -401t152 -400q150 -156 373 -156q150 0 251 59t144 103l17 18
v146q0 45 -45 45h-89v176h191q70 0 100 -31t31 -100v-584h-180v90l2 62h-4q-71 -70 -143 -104q-152 -71 -308 -73q-295 0 -500 211q-204 212 -204 534z" />
    <glyph glyph-name="gcircumflex" unicode="&#x11d;" horiz-adv-x="1218" 
d="M346 1186l178 260h183l180 -260h-162l-107 164h-4l-108 -164h-160zM570 184q128 0 206 84t78 273q0 348 -293 348q-133 0 -208 -91t-75 -253q0 -161 82 -261q81 -100 210 -100zM76 543q0 229 122 373t332 145q147 0 225 -55q79 -55 97 -91l10 -16h4v33q0 104 115 104h193
v-170h-82q-45 0 -45 -41v-782q-1 -123 -45 -217q-80 -170 -285 -229q-90 -27 -193 -27q-182 0 -354 86l68 160q127 -70 277 -70t242 71q91 71 91 218v69l4 66h-4q-96 -158 -308 -158t-338 151t-126 380z" />
    <glyph glyph-name="Gbreve" unicode="&#x11e;" horiz-adv-x="1507" 
d="M1057 1778q0 -112 -78 -176t-183 -64q-104 0 -184 64t-80 176v28h138v-26q0 -61 37 -92t89 -31t89 32t37 93v24h135v-28zM72 720q0 322 210 536t519 214q155 0 283 -45t182 -90l51 -43l-117 -149q-18 16 -50 39q-32 24 -135 62t-210 38q-219 0 -370 -157t-151 -401
t152 -400q150 -156 373 -156q150 0 251 59t144 103l17 18v146q0 45 -45 45h-89v176h191q70 0 100 -31t31 -100v-584h-180v90l2 62h-4q-71 -70 -143 -104q-152 -71 -308 -73q-295 0 -500 211q-204 212 -204 534z" />
    <glyph glyph-name="gbreve" unicode="&#x11f;" horiz-adv-x="1218" 
d="M877 1417q-1 -113 -79 -176t-183 -63t-184 63t-79 176v29h137v-27q0 -61 36 -92t89 -31t91 32q37 32 36 93v25h136v-29zM570 184q128 0 206 84t78 273q0 348 -293 348q-133 0 -208 -91t-75 -253q0 -161 82 -261q81 -100 210 -100zM76 543q0 229 122 373t332 145
q147 0 225 -55q79 -55 97 -91l10 -16h4v33q0 104 115 104h193v-170h-82q-45 0 -45 -41v-782q-1 -123 -45 -217q-80 -170 -285 -229q-90 -27 -193 -27q-182 0 -354 86l68 160q127 -70 277 -70t242 71q91 71 91 218v69l4 66h-4q-96 -158 -308 -158t-338 151t-126 380z" />
    <glyph glyph-name="Gdotaccent" unicode="&#x120;" horiz-adv-x="1507" 
d="M705 1599v207h178v-207h-178zM72 720q0 322 210 536t519 214q155 0 283 -45t182 -90l51 -43l-117 -149q-18 16 -50 39q-32 24 -135 62t-210 38q-219 0 -370 -157t-151 -401t152 -400q150 -156 373 -156q150 0 251 59t144 103l17 18v146q0 45 -45 45h-89v176h191
q70 0 100 -31t31 -100v-584h-180v90l2 62h-4q-71 -70 -143 -104q-152 -71 -308 -73q-295 0 -500 211q-204 212 -204 534z" />
    <glyph glyph-name="gdotaccent" unicode="&#x121;" horiz-adv-x="1218" 
d="M526 1239v207h179v-207h-179zM570 184q128 0 206 84t78 273q0 348 -293 348q-133 0 -208 -91t-75 -253q0 -161 82 -261q81 -100 210 -100zM76 543q0 229 122 373t332 145q147 0 225 -55q79 -55 97 -91l10 -16h4v33q0 104 115 104h193v-170h-82q-45 0 -45 -41v-782
q-1 -123 -45 -217q-80 -170 -285 -229q-90 -27 -193 -27q-182 0 -354 86l68 160q127 -70 277 -70t242 71q91 71 91 218v69l4 66h-4q-96 -158 -308 -158t-338 151t-126 380z" />
    <glyph glyph-name="Gcommaaccent" unicode="&#x122;" horiz-adv-x="1507" 
d="M872 -240q0 -64 -49 -170h-141q39 100 39 164t-23 125h162q12 -55 12 -119zM72 720q0 322 210 536t519 214q155 0 283 -45t182 -90l51 -43l-117 -149q-18 16 -50 39q-32 24 -135 62t-210 38q-219 0 -370 -157t-151 -401t152 -400q150 -156 373 -156q150 0 251 59t144 103
l17 18v146q0 45 -45 45h-89v176h191q70 0 100 -31t31 -100v-584h-180v90l2 62h-4q-71 -70 -143 -104q-152 -71 -308 -73q-295 0 -500 211q-204 212 -204 534z" />
    <glyph glyph-name="gcommaaccent" unicode="&#x123;" horiz-adv-x="1218" 
d="M496 1276q0 64 49 170h141q-39 -100 -39 -164t23 -125h-162q-12 55 -12 119zM570 184q128 0 206 84t78 273q0 348 -293 348q-133 0 -208 -91t-75 -253q0 -161 82 -261q81 -100 210 -100zM76 543q0 229 122 373t332 145q147 0 225 -55q79 -55 97 -91l10 -16h4v33
q0 104 115 104h193v-170h-82q-45 0 -45 -41v-782q-1 -123 -45 -217q-80 -170 -285 -229q-90 -27 -193 -27q-182 0 -354 86l68 160q127 -70 277 -70t242 71q91 71 91 218v69l4 66h-4q-96 -158 -308 -158t-338 151t-126 380z" />
    <glyph glyph-name="Hcircumflex" unicode="&#x124;" horiz-adv-x="1566" 
d="M514 1546l178 260h182l181 -260h-162l-107 164h-4l-108 -164h-160zM211 0v1225q0 45 -45 45h-88v176h207q71 0 101 -31t30 -100v-506h735v506q0 71 31 101t100 30h207v-176h-88q-45 0 -45 -45v-1225h-205v635h-735v-635h-205z" />
    <glyph glyph-name="hcircumflex" unicode="&#x125;" horiz-adv-x="1273" 
d="M391 1546l178 260h183l180 -260h-162l-106 164h-5l-108 -164h-160zM166 0v1231q0 45 -45 45h-84v170h196q70 0 101 -31t31 -96v-404l-5 -86h5q41 90 142 161t243 71q354 0 354 -397v-449q0 -45 45 -45h84v-170h-195q-70 0 -100 31t-31 100v487q0 125 -41 193
q-40 68 -156 68t-205 -71t-122 -185q-18 -53 -18 -138v-485h-199z" />
    <glyph glyph-name="Hbar" unicode="&#x126;" horiz-adv-x="1566" 
d="M416 809h735v244h-735v-244zM211 0v1053h-135v139h135v254h205v-254h735v254h205v-254h133v-139h-133v-1053h-205v635h-735v-635h-205z" />
    <glyph glyph-name="hbar" unicode="&#x127;" horiz-adv-x="1273" 
d="M166 0v1153h-156v129h156v164h199v-164h264v-129h-264v-238l-5 -86h5q22 60 87 118q125 114 298 114q354 0 354 -397v-449q0 -45 45 -45h84v-170h-195q-70 0 -100 31t-31 100v487q0 123 -41 192t-155 69q-154 0 -250 -113t-96 -281v-485h-199z" />
    <glyph glyph-name="Itilde" unicode="&#x128;" horiz-adv-x="649" 
d="M-25 1548q0 260 211 260q58 0 106 -34t84 -70q36 -35 76 -35t59 40t19 93h136q0 -260 -211 -260q-59 0 -105 35t-84 70q-36 35 -76 35t-60 -41q-20 -40 -19 -93h-136zM86 0v176h141v1094h-141v176h477v-176h-141v-1094h141v-176h-477z" />
    <glyph glyph-name="itilde" unicode="&#x129;" horiz-adv-x="567" 
d="M-35 1190q0 260 189 260q51 0 91 -34q41 -34 69 -68t53 -33q68 0 67 129h133q0 -260 -188 -260q-51 0 -91 33t-70 67t-52 33q-68 0 -68 -127h-133zM184 131v690q0 45 -45 45h-84v170h197q70 0 100 -30t31 -101v-690q0 -45 45 -45h84v-170h-195q-69 0 -101 30t-32 101z
" />
    <glyph glyph-name="Imacron" unicode="&#x12a;" horiz-adv-x="649" 
d="M63 1606v139h521v-139h-521zM86 0v176h141v1094h-141v176h477v-176h-141v-1094h141v-176h-477z" />
    <glyph glyph-name="imacron" unicode="&#x12b;" horiz-adv-x="567" 
d="M33 1247v139h473v-139h-473zM184 131v690q0 45 -45 45h-84v170h197q70 0 100 -30t31 -101v-690q0 -45 45 -45h84v-170h-195q-69 0 -101 30t-32 101z" />
    <glyph glyph-name="Ibreve" unicode="&#x12c;" horiz-adv-x="649" 
d="M586 1778q0 -112 -78 -176t-183 -64t-185 64t-79 176v28h138v-26q-1 -61 35 -92t90 -31t90 32q37 32 37 93v24h135v-28zM86 0v176h141v1094h-141v176h477v-176h-141v-1094h141v-176h-477z" />
    <glyph glyph-name="ibreve" unicode="&#x12d;" horiz-adv-x="567" 
d="M530 1419q0 -113 -78 -177t-183 -64t-184 64t-79 177v27h137v-25q0 -61 36 -93t89 -32t90 32t37 93v25h135v-27zM184 131v690q0 45 -45 45h-84v170h197q70 0 100 -30t31 -101v-690q0 -45 45 -45h84v-170h-195q-69 0 -101 30t-32 101z" />
    <glyph glyph-name="Iogonek" unicode="&#x12e;" horiz-adv-x="649" 
d="M86 0v176h141v1094h-141v176h477v-176h-141v-1094h141v-176q-131 -111 -131 -182q0 -35 28 -57t56 -27l29 -4l-45 -154q-22 0 -74 15q-51 15 -83 35q-31 20 -57 58t-26 87q0 119 133 225v4h-307z" />
    <glyph glyph-name="iogonek" unicode="&#x12f;" horiz-adv-x="563" 
d="M209 -229q0 125 131 225v4h-41q-115 0 -115 166v655q0 45 -45 45h-84v170h140q117 0 151 -44t35 -156v-621q0 -45 45 -45h84v-170q-131 -111 -131 -182q0 -35 29 -57t57 -27l29 -4l-48 -154q-19 0 -71 15q-51 15 -83 35t-58 58t-25 87zM188 1239v207h179v-207h-179z" />
    <glyph glyph-name="Idotaccent" unicode="&#x130;" horiz-adv-x="649" 
d="M233 1599v207h179v-207h-179zM86 0v176h141v1094h-141v176h477v-176h-141v-1094h141v-176h-477z" />
    <glyph glyph-name="dotlessi" unicode="&#x131;" horiz-adv-x="567" 
d="M184 131v690q0 45 -45 45h-84v170h197q70 0 100 -30t31 -101v-690q0 -45 45 -45h84v-170h-195q-69 0 -101 30t-32 101z" />
    <glyph glyph-name="IJ" unicode="&#x132;" horiz-adv-x="1394" 
d="M86 0v176h141v1094h-141v176h477v-176h-141v-1094h141v-176h-477zM745 176q106 0 185 56q45 32 71 99q27 67 27 161v733q0 45 -45 45h-229v176h348q70 0 100 -31t31 -100v-826q0 -296 -162 -407q-137 -92 -326 -92v186z" />
    <glyph glyph-name="ij" unicode="&#x133;" horiz-adv-x="1128" 
d="M502 -248q18 -2 67 -2t116 37q83 44 83 190v844q0 45 -45 45h-84v170h197q70 0 100 -30t31 -101v-940q0 -98 -30 -172t-72 -114q-106 -101 -296 -101l-67 4v170zM772 1239v207h178v-207h-178zM184 131v690q0 45 -45 45h-84v170h195q70 0 100 -30t31 -101v-690
q0 -45 45 -45h84v-170h-195q-71 0 -101 30t-30 101zM188 1239v207h179v-207h-179z" />
    <glyph glyph-name="Jcircumflex" unicode="&#x134;" horiz-adv-x="1069" 
d="M322 1546l178 260h182l180 -260h-162l-106 164h-4l-109 -164h-159zM45 416v71h205v-55q0 -139 65 -202q66 -62 162 -62t161 62t64 194v801q0 45 -45 45h-354v176h473q70 0 101 -31t30 -100v-899q0 -219 -127 -330t-305 -111t-304 112t-126 329z" />
    <glyph glyph-name="jcircumflex" unicode="&#x135;" horiz-adv-x="581" 
d="M-41 -252q18 -2 69 -2t101 30q98 58 96 199v852q0 45 -51 45h-78v164h193q71 0 101 -26t30 -92v-953q0 -98 -29 -172t-71 -114q-105 -101 -293 -101l-68 4v166zM-2 1186l180 260h182l179 -260h-160l-111 168l-108 -168h-162z" />
    <glyph glyph-name="Kcommaaccent" unicode="&#x136;" horiz-adv-x="1251" 
d="M584 -121h161q13 -55 13 -119t-49 -170h-142q39 100 39 164t-22 125zM211 0v1225q0 45 -45 45h-88v176h207q71 0 101 -31t30 -100v-477h137q90 0 119 49l321 559h230l-351 -600q-40 -74 -81 -94v-4q41 -10 81 -91l218 -434q23 -47 102 -47h39v-176h-113q-88 0 -127 20
t-73 89l-250 501q-29 53 -129 54h-123v-664h-205z" />
    <glyph glyph-name="kcommaaccent" unicode="&#x137;" horiz-adv-x="1075" 
d="M512 -246q0 64 -23 125h162q13 -55 13 -119t-50 -170h-141q39 100 39 164zM166 0v1231q0 45 -45 45h-84v170h196q72 0 102 -26t30 -93v-672h92q74 0 108 45l240 336h227l-280 -385q-41 -60 -78 -78v-4q35 -12 69 -77l154 -281q20 -41 88 -41h64v-170h-144q-71 0 -105 18
t-67 78l-188 348q-25 43 -103 43h-77v-487h-199z" />
    <glyph glyph-name="kgreenlandic" unicode="&#x138;" horiz-adv-x="1075" 
d="M166 0v821q0 45 -45 45h-84v170h196q72 0 102 -26t30 -92v-304h92q80 0 108 43l252 379h225l-292 -424q-41 -60 -66 -71l-8 -4v-5q29 -12 65 -79l133 -242q20 -41 91 -41h71v-170h-153q-72 0 -106 18t-66 78l-166 307q-23 41 -103 41h-77v-444h-199z" />
    <glyph glyph-name="Lacute" unicode="&#x139;" horiz-adv-x="1112" 
d="M250 1546l149 260h201l-194 -260h-156zM211 131v1094q0 45 -45 45h-88v176h207q71 0 101 -31t30 -100v-1094q0 -45 45 -45h399q45 0 45 45v92h187v-182q0 -71 -31 -101t-100 -30h-619q-70 0 -100 30t-31 101z" />
    <glyph glyph-name="lacute" unicode="&#x13a;" horiz-adv-x="548" 
d="M150 1546l149 260h201l-195 -260h-155zM170 131v1100q0 45 -45 45h-84v170h197q70 0 100 -31t31 -100v-1100q0 -45 45 -45h84v-170h-197q-71 0 -101 30t-30 101z" />
    <glyph glyph-name="Lcommaaccent" unicode="&#x13b;" horiz-adv-x="1112" 
d="M737 -240q0 -64 -49 -170h-141q39 100 39 164t-23 125h162q12 -55 12 -119zM211 131v1094q0 45 -45 45h-88v176h207q71 0 101 -31t30 -100v-1094q0 -45 45 -45h399q45 0 45 45v92h187v-182q0 -71 -31 -101t-100 -30h-619q-70 0 -100 30t-31 101z" />
    <glyph glyph-name="lcommaaccent" unicode="&#x13c;" horiz-adv-x="548" 
d="M387 -240q0 -64 -49 -170h-141q39 100 39 164t-23 125h162q12 -55 12 -119zM170 131v1100q0 45 -45 45h-84v170h197q70 0 100 -31t31 -100v-1100q0 -45 45 -45h84v-170h-197q-71 0 -101 30t-30 101z" />
    <glyph glyph-name="Lcaron" unicode="&#x13d;" horiz-adv-x="1112" 
d="M764 1326q0 -64 -49 -169h-142q39 100 39 164t-22 125h162q12 -56 12 -120zM211 131v1094q0 45 -45 45h-88v176h207q71 0 101 -31t30 -100v-1094q0 -45 45 -45h399q45 0 45 45v92h187v-182q0 -71 -31 -101t-100 -30h-619q-70 0 -100 30t-31 101z" />
    <glyph glyph-name="lcaron" unicode="&#x13e;" horiz-adv-x="724" 
d="M657 1326q0 -64 -49 -169h-141q39 100 39 164t-23 125h162q12 -56 12 -120zM170 131v1100q0 45 -45 45h-84v170h197q70 0 100 -31t31 -100v-1100q0 -45 45 -45h84v-170h-197q-71 0 -101 30t-30 101z" />
    <glyph glyph-name="Ldot" unicode="&#x13f;" horiz-adv-x="1112" 
d="M645 672v211h203v-211h-203zM211 131v1094q0 45 -45 45h-88v176h207q71 0 101 -31t30 -100v-1094q0 -45 45 -45h399q45 0 45 45v92h187v-182q0 -71 -31 -101t-100 -30h-619q-70 0 -100 30t-31 101z" />
    <glyph glyph-name="ldot" unicode="&#x140;" horiz-adv-x="729" 
d="M514 672v211h203v-211h-203zM170 131v1100q0 45 -45 45h-84v170h197q70 0 100 -31t31 -100v-1100q0 -45 45 -45h84v-170h-197q-71 0 -101 30t-30 101z" />
    <glyph glyph-name="Lslash" unicode="&#x141;" horiz-adv-x="1112" 
d="M211 131v490l-129 -74v198l129 74v406q0 45 -45 45h-88v176h207q71 0 101 -31t30 -100v-379l213 123v-199l-213 -123v-516q0 -45 45 -45h399q45 0 45 45v92h187v-182q0 -71 -31 -101t-100 -30h-619q-70 0 -100 30t-31 101z" />
    <glyph glyph-name="lslash" unicode="&#x142;" horiz-adv-x="583" 
d="M193 131v526l-154 -88v199l154 90v373q0 45 -46 45h-81v170h194q70 0 100 -31t31 -100v-344l160 92v-199l-160 -94v-555q0 -45 45 -45h84v-170h-194q-70 0 -102 30t-31 101z" />
    <glyph glyph-name="Nacute" unicode="&#x143;" horiz-adv-x="1566" 
d="M723 1546l149 260h201l-194 -260h-156zM78 0v176h88q45 0 45 45v1225h186l643 -916l121 -196h4q-14 115 -14 196v785q0 71 32 101t101 30h205v-176h-88q-45 0 -45 -45v-1225h-185l-645 915l-118 197h-5q12 -117 13 -197v-784q0 -71 -31 -101t-100 -30h-207z" />
    <glyph glyph-name="nacute" unicode="&#x144;" horiz-adv-x="1282" 
d="M582 1186l149 260h201l-195 -260h-155zM174 0v821q0 45 -45 45h-84v170h191q131 0 131 -114v-39l-5 -60h5q41 88 139 163t265 75q341 0 341 -397v-449q0 -45 45 -45h84v-170h-197q-70 0 -100 31t-31 100v487q0 125 -40 193q-41 68 -157 68t-205 -71t-120 -183
q-18 -53 -18 -140v-485h-199z" />
    <glyph glyph-name="Ncommaaccent" unicode="&#x145;" horiz-adv-x="1566" 
d="M868 -240q0 -64 -49 -170h-141q39 100 39 164t-23 125h162q12 -55 12 -119zM78 0v176h88q45 0 45 45v1225h186l643 -916l121 -196h4q-14 115 -14 196v785q0 71 32 101t101 30h205v-176h-88q-45 0 -45 -45v-1225h-185l-645 915l-118 197h-5q12 -117 13 -197v-784
q0 -71 -31 -101t-100 -30h-207z" />
    <glyph glyph-name="ncommaaccent" unicode="&#x146;" horiz-adv-x="1282" 
d="M582 -121h161q13 -55 13 -119t-49 -170h-142q39 100 39 164t-22 125zM174 0v821q0 45 -45 45h-84v170h191q131 0 131 -114v-39l-5 -60h5q41 88 139 163t265 75q341 0 341 -397v-449q0 -45 45 -45h84v-170h-197q-70 0 -100 31t-31 100v487q0 125 -40 193q-41 68 -157 68
t-205 -71t-120 -183q-18 -53 -18 -140v-485h-199z" />
    <glyph glyph-name="Ncaron" unicode="&#x147;" horiz-adv-x="1566" 
d="M713 1546l-181 260h162l107 -166h4l106 166h164l-180 -260h-182zM78 0v176h88q45 0 45 45v1225h186l643 -916l121 -196h4q-14 115 -14 196v785q0 71 32 101t101 30h205v-176h-88q-45 0 -45 -45v-1225h-185l-645 915l-118 197h-5q12 -117 13 -197v-784q0 -71 -31 -101
t-100 -30h-207z" />
    <glyph glyph-name="ncaron" unicode="&#x148;" horiz-adv-x="1282" 
d="M569 1186l-180 260h162l106 -166h5l106 166h164l-180 -260h-183zM174 0v821q0 45 -45 45h-84v170h191q131 0 131 -114v-39l-5 -60h5q41 88 139 163t265 75q341 0 341 -397v-449q0 -45 45 -45h84v-170h-197q-70 0 -100 31t-31 100v487q0 125 -40 193q-41 68 -157 68
t-205 -71t-120 -183q-18 -53 -18 -140v-485h-199z" />
    <glyph glyph-name="napostrophe" unicode="&#x149;" horiz-adv-x="1339" 
d="M162 1326q0 -64 -49 -169h-142q39 100 39 164t-22 125h162q12 -56 12 -120zM231 0v821q0 45 -45 45h-84v170h191q131 0 131 -114v-39l-4 -60h4q41 88 139 163t265 75q341 0 341 -397v-449q0 -45 45 -45h84v-170h-196q-70 0 -101 31t-30 100v487q0 125 -40 193t-157 68
t-206 -71t-119 -183q-18 -53 -19 -140v-485h-199z" />
    <glyph glyph-name="Eng" unicode="&#x14a;" horiz-adv-x="1566" 
d="M78 0v176h88q45 0 45 45v1225h186l643 -916l121 -196h4q-14 115 -14 196v785q0 71 32 101t101 30h205v-176h-88q-45 0 -45 -45v-1170q0 -366 -306 -452q-79 -23 -169 -23v187q100 0 185 62t85 189v15l-625 882l-118 197h-5q12 -117 13 -197v-784q0 -71 -31 -101t-100 -30
h-207z" />
    <glyph glyph-name="eng" unicode="&#x14b;" horiz-adv-x="1271" 
d="M174 0v821q0 45 -45 45h-84v170h191q131 0 131 -114v-39l-5 -60h5q41 88 139 163t265 75q341 0 341 -397v-705q0 -98 -30 -172t-72 -114q-105 -101 -295 -101l-70 4v170q18 -2 70 -2t102 30q98 58 96 199v645q0 125 -40 193q-39 68 -155 68t-206 -72q-139 -111 -139 -322
v-485h-199z" />
    <glyph glyph-name="Omacron" unicode="&#x14c;" horiz-adv-x="1624" 
d="M547 1606v139h520v-139h-520zM811 1280q-221 0 -375 -158t-153 -392q-1 -234 153 -398t375 -164t376 164t155 398t-155 392t-376 158zM70 729q0 315 214 528t527 213t528 -213t215 -528t-215 -534t-528 -219t-527 218q-214 220 -214 535z" />
    <glyph glyph-name="omacron" unicode="&#x14d;" horiz-adv-x="1263" 
d="M373 1245v139h520v-139h-520zM276 520q0 -160 104 -266t252 -106q149 0 252 104q103 106 103 267t-103 265q-104 104 -252 104t-252 -104t-104 -264zM74 520q0 233 162 387t396 154t396 -154t162 -387t-163 -389t-396 -156t-395 156t-162 389z" />
    <glyph glyph-name="Obreve" unicode="&#x14e;" horiz-adv-x="1624" 
d="M1069 1778q0 -112 -78 -176t-183 -64t-184 64t-79 176v28h137v-26q0 -61 36 -92t89 -31t90 32t37 93v24h135v-28zM811 1280q-221 0 -375 -158t-153 -392q-1 -234 153 -398t375 -164t376 164t155 398t-155 392t-376 158zM70 729q0 315 214 528t527 213t528 -213t215 -528
t-215 -534t-528 -219t-527 218q-214 220 -214 535z" />
    <glyph glyph-name="obreve" unicode="&#x14f;" horiz-adv-x="1263" 
d="M632 1178q-105 0 -185 63q-79 63 -78 176v29h137v-27q0 -61 36 -92t89 -31t90 32t37 93v25h135v-29q0 -113 -78 -176t-183 -63zM276 520q0 -160 104 -266t252 -106q149 0 252 104q103 106 103 267t-103 265q-104 104 -252 104t-252 -104t-104 -264zM74 520q0 233 162 387
t396 154t396 -154t162 -387t-163 -389t-396 -156t-395 156t-162 389z" />
    <glyph glyph-name="Ohungarumlaut" unicode="&#x150;" horiz-adv-x="1624" 
d="M563 1546l142 260h172l-144 -260h-170zM877 1546l147 260h203l-197 -260h-153zM811 1280q-221 0 -375 -158t-153 -392q-1 -234 153 -398t375 -164t376 164t155 398t-155 392t-376 158zM70 729q0 315 214 528t527 213t528 -213t215 -528t-215 -534t-528 -219t-527 218
q-214 220 -214 535z" />
    <glyph glyph-name="ohungarumlaut" unicode="&#x151;" horiz-adv-x="1263" 
d="M389 1186l141 260h172l-143 -260h-170zM702 1186l148 260h203l-197 -260h-154zM276 520q0 -160 104 -266t252 -106q149 0 252 104q103 106 103 267t-103 265q-104 104 -252 104t-252 -104t-104 -264zM74 520q0 233 162 387t396 154t396 -154t162 -387t-163 -389
t-396 -156t-395 156t-162 389z" />
    <glyph glyph-name="OE" unicode="&#x152;" horiz-adv-x="1902" 
d="M283 724q0 -240 139 -396t358 -156q113 0 183 16v1069q-72 16 -183 17q-219 0 -358 -156t-139 -394zM70 724q0 314 203 527q204 213 507 213l295 -18h592q69 0 101 -31t32 -100v-182h-188v92q0 45 -45 45h-400v-453h496v-176h-496v-465h457q45 0 45 45v92h186v-182
q1 -71 -29 -101t-95 -30h-656l-295 -18q-303 0 -507 214q-203 214 -203 528z" />
    <glyph glyph-name="oe" unicode="&#x153;" horiz-adv-x="2052" 
d="M276 516q0 -166 102 -267t253 -101q150 0 253 102q103 104 103 269t-104 267t-253 102q-150 0 -252 -102q-102 -104 -102 -270zM1208 639h549q-6 125 -74 195q-69 70 -179 70t-192 -70q-82 -68 -104 -195zM74 516q0 240 160 392t395 153q307 0 454 -246h4
q131 246 426 246q211 0 330 -137t119 -349l-6 -81h-756q12 -164 114 -255t242 -92q80 0 156 31t111 60l37 30l86 -141q-16 -16 -50 -42t-137 -68q-104 -42 -215 -42q-313 0 -452 252h-5q-71 -119 -187 -185t-269 -67q-237 1 -397 151t-160 390z" />
    <glyph glyph-name="Racute" unicode="&#x154;" horiz-adv-x="1265" 
d="M508 1546l149 260h201l-194 -260h-156zM416 752h266q116 0 182 70t66 191t-65 189t-179 68h-270v-518zM211 0v1270h-133v176h631q193 0 313 -115t119 -294q0 -179 -83 -278t-177 -120v-4q37 -18 61 -66l174 -346q23 -47 103 -47h26v-176h-100q-88 0 -127 20t-74 89
l-196 389q-27 49 -55 63t-89 14h-188v-575h-205z" />
    <glyph glyph-name="racute" unicode="&#x155;" horiz-adv-x="786" 
d="M328 1186l149 260h201l-195 -260h-155zM174 0v821q0 45 -45 45h-84v170h188q133 0 134 -121v-65l-5 -72h5q39 119 126 195t201 76l54 -5v-196q-27 6 -60 6q-96 0 -176 -66q-141 -117 -139 -364v-424h-199z" />
    <glyph glyph-name="Rcommaaccent" unicode="&#x156;" horiz-adv-x="1265" 
d="M639 -246q0 64 -23 125h162q12 -55 12 -119t-49 -170h-141q39 100 39 164zM416 752h266q116 0 182 70t66 191t-65 189t-179 68h-270v-518zM211 0v1270h-133v176h631q193 0 313 -115t119 -294q0 -179 -83 -278t-177 -120v-4q37 -18 61 -66l174 -346q23 -47 103 -47h26
v-176h-100q-88 0 -127 20t-74 89l-196 389q-27 49 -55 63t-89 14h-188v-575h-205z" />
    <glyph glyph-name="rcommaaccent" unicode="&#x157;" horiz-adv-x="786" 
d="M201 -121h161q12 -55 12 -119t-48 -170h-142q40 100 40 164t-23 125zM174 0v821q0 45 -45 45h-84v170h188q133 0 134 -121v-65l-5 -72h5q39 119 126 195t201 76l54 -5v-196q-27 6 -60 6q-96 0 -176 -66q-141 -117 -139 -364v-424h-199z" />
    <glyph glyph-name="Rcaron" unicode="&#x158;" horiz-adv-x="1265" 
d="M498 1546l-181 260h162l107 -166h4l106 166h164l-180 -260h-182zM416 752h266q116 0 182 70t66 191t-65 189t-179 68h-270v-518zM211 0v1270h-133v176h631q193 0 313 -115t119 -294q0 -179 -83 -278t-177 -120v-4q37 -18 61 -66l174 -346q23 -47 103 -47h26v-176h-100
q-88 0 -127 20t-74 89l-196 389q-27 49 -55 63t-89 14h-188v-575h-205z" />
    <glyph glyph-name="rcaron" unicode="&#x159;" horiz-adv-x="786" 
d="M317 1186l-180 260h162l107 -166h4l106 166h164l-180 -260h-183zM174 0v821q0 45 -45 45h-84v170h188q133 0 134 -121v-65l-5 -72h5q39 119 126 195t201 76l54 -5v-196q-27 6 -60 6q-96 0 -176 -66q-141 -117 -139 -364v-424h-199z" />
    <glyph glyph-name="Sacute" unicode="&#x15a;" horiz-adv-x="1091" 
d="M479 1546l150 260h200l-194 -260h-156zM553 162q104 0 176 59t72 143t-52 139q-52 56 -129 91t-168 81t-168 92t-129 128t-53 188q0 164 130 276q130 111 336 111t335 -110q74 -63 74 -156v-119h-189v68q0 55 -67 93t-169 38t-172 -55t-69 -131q0 -139 185 -217t331 -166
q78 -47 129 -132t52 -196q0 -172 -125 -292t-337 -120t-395 139q-42 32 -61 54l-20 22l120 146q174 -174 363 -174z" />
    <glyph glyph-name="sacute" unicode="&#x15b;" horiz-adv-x="929" 
d="M381 1186l149 260h201l-194 -260h-156zM651 264q0 57 -58 96t-141 71t-166 71t-142 107q-58 69 -58 161q0 141 109 216t254 75t253 -48t109 -153v-98h-178v51q0 43 -50 66t-123 23t-124 -33q-51 -32 -51 -88t58 -96t141 -70q83 -31 166 -67q84 -36 142 -105t58 -164
q0 -137 -108 -221t-268 -83q-160 0 -263 60q-102 60 -141 104l-15 19l103 133q10 -16 48 -48q122 -104 252 -105q91 -1 142 34t51 92z" />
    <glyph glyph-name="Scircumflex" unicode="&#x15c;" horiz-adv-x="1091" 
d="M291 1546l178 260h182l180 -260h-161l-107 164h-4l-108 -164h-160zM553 162q104 0 176 59t72 143t-52 139q-52 56 -129 91t-168 81t-168 92t-129 128t-53 188q0 164 130 276q130 111 336 111t335 -110q74 -63 74 -156v-119h-189v68q0 55 -67 93t-169 38t-172 -55
t-69 -131q0 -139 185 -217t331 -166q78 -47 129 -132t52 -196q0 -172 -125 -292t-337 -120t-395 139q-42 32 -61 54l-20 22l120 146q174 -174 363 -174z" />
    <glyph glyph-name="scircumflex" unicode="&#x15d;" horiz-adv-x="929" 
d="M193 1186l178 260h182l180 -260h-162l-106 164h-4l-109 -164h-159zM651 264q0 57 -58 96t-141 71t-166 71t-142 107q-58 69 -58 161q0 141 109 216t254 75t253 -48t109 -153v-98h-178v51q0 43 -50 66t-123 23t-124 -33q-51 -32 -51 -88t58 -96t141 -70q83 -31 166 -67
q84 -36 142 -105t58 -164q0 -137 -108 -221t-268 -83q-160 0 -263 60q-102 60 -141 104l-15 19l103 133q10 -16 48 -48q122 -104 252 -105q91 -1 142 34t51 92z" />
    <glyph glyph-name="Scedilla" unicode="&#x15e;" horiz-adv-x="1091" 
d="M553 162q104 0 176 59t72 143t-52 139q-52 56 -129 91t-168 81t-168 92t-129 128t-53 188q0 164 130 276q130 111 336 111t335 -110q74 -63 74 -156v-119h-189v68q0 55 -67 93t-169 38t-172 -55t-69 -131q0 -139 185 -217t331 -166q78 -47 129 -132t52 -196
q0 -164 -113 -281t-303 -129l-17 -79q66 -8 107 -48t41 -114q0 -76 -60 -118t-136 -42t-128 14v119q43 -14 88 -14q96 0 97 63q0 63 -107 64l-37 -2l39 160q-117 12 -219 65t-145 98l-45 47l120 146q174 -174 363 -174z" />
    <glyph glyph-name="scedilla" unicode="&#x15f;" horiz-adv-x="929" 
d="M623 -264q1 -76 -59 -118t-137 -42t-126 14v119q41 -14 88 -14q96 0 96 63t-106 64l-37 -2l41 162q-98 14 -180 58t-115 81l-33 37l103 133q10 -16 48 -48q122 -104 252 -105q91 -1 142 34t51 92t-58 96t-141 71t-166 71t-142 107q-58 69 -58 161q0 141 109 216t254 75
t253 -48t109 -153v-98h-178v51q0 43 -50 66t-123 23t-124 -33q-51 -32 -51 -88t58 -96t141 -70q83 -31 166 -67q84 -36 142 -105t58 -164q0 -131 -100 -213t-256 -91l-17 -77q66 -8 106 -48q40 -38 40 -114z" />
    <glyph glyph-name="Scaron" unicode="&#x160;" horiz-adv-x="1091" 
d="M469 1546l-180 260h162l106 -166h4l107 166h163l-180 -260h-182zM553 162q104 0 176 59t72 143t-52 139q-52 56 -129 91t-168 81t-168 92t-129 128t-53 188q0 164 130 276q130 111 336 111t335 -110q74 -63 74 -156v-119h-189v68q0 55 -67 93t-169 38t-172 -55t-69 -131
q0 -139 185 -217t331 -166q78 -47 129 -132t52 -196q0 -172 -125 -292t-337 -120t-395 139q-42 32 -61 54l-20 22l120 146q174 -174 363 -174z" />
    <glyph glyph-name="scaron" unicode="&#x161;" horiz-adv-x="929" 
d="M371 1186l-181 260h162l107 -166h4l106 166h164l-180 -260h-182zM651 264q0 57 -58 96t-141 71t-166 71t-142 107q-58 69 -58 161q0 141 109 216t254 75t253 -48t109 -153v-98h-178v51q0 43 -50 66t-123 23t-124 -33q-51 -32 -51 -88t58 -96t141 -70q83 -31 166 -67
q84 -36 142 -105t58 -164q0 -137 -108 -221t-268 -83q-160 0 -263 60q-102 60 -141 104l-15 19l103 133q10 -16 48 -48q122 -104 252 -105q91 -1 142 34t51 92z" />
    <glyph glyph-name="Tcommaaccent" unicode="&#x162;" horiz-adv-x="1302" 
d="M633 -424q-76 0 -125 14v119q41 -14 88 -14q96 0 96 63t-108 64l-35 -2l45 180h-45v1270h-291q-45 0 -45 -45v-92h-182v190q1 71 27 97t96 26h995q71 0 97 -27t26 -96v-190h-182v92q-1 45 -46 45h-290v-1270h-49l-21 -102q63 -8 104 -48t41 -114q0 -76 -60 -118t-136 -42
z" />
    <glyph glyph-name="tcommaaccent" unicode="&#x163;" horiz-adv-x="720" 
d="M402 -424q-76 0 -128 14v119q41 -14 88 -14q96 0 97 63q0 63 -107 64l-37 -2l56 213q-189 88 -189 346v498h-135v159h139v285h195v-285h248v-159h-248v-476q0 -146 82 -195q64 -38 137 -38l47 4v-176q-27 -4 -77 -4t-99 10l-20 -104q65 -8 105 -48t40 -114
q0 -76 -59 -118t-135 -42z" />
    <glyph glyph-name="Tcaron" unicode="&#x164;" horiz-adv-x="1302" 
d="M561 1546l-180 260h162l106 -166h4l107 166h164l-181 -260h-182zM549 0v1270h-291q-45 0 -45 -45v-92h-182v190q1 71 27 97t96 26h995q71 0 97 -27t26 -96v-190h-182v92q0 45 -46 45h-290v-1270h-205z" />
    <glyph glyph-name="tcaron" unicode="&#x165;" horiz-adv-x="778" 
d="M688 1326q0 -64 -49 -169h-141q39 100 39 164t-23 125h162q12 -56 12 -120zM186 379v498h-135v159h139v285h195v-285h248v-159h-248v-476q0 -145 82 -195q64 -38 137 -38l47 4v-176q-27 -4 -71 -4t-90 6t-103 31t-99 65t-72 113q-30 74 -30 172z" />
    <glyph glyph-name="Tbar" unicode="&#x166;" horiz-adv-x="1302" 
d="M549 0v635h-316v156h316v479h-291q-45 0 -45 -45v-92h-182v190q1 71 27 97t96 26h995q71 0 97 -27t26 -96v-190h-182v92q0 45 -46 45h-290v-479h329v-156h-329v-635h-205z" />
    <glyph glyph-name="tbar" unicode="&#x167;" horiz-adv-x="720" 
d="M182 379v151h-135v140h135v207h-135v159h139v285h195v-285h248v-159h-248v-207h248v-140h-248v-135q0 -142 82 -189q64 -38 137 -38l47 4v-176q-27 -4 -71 -4t-90 6t-103 31t-99 65t-72 113q-30 74 -30 172z" />
    <glyph glyph-name="Utilde" unicode="&#x168;" horiz-adv-x="1490" 
d="M399 1548q0 260 211 260q58 0 106 -34t84 -70q36 -35 76 -35t59 40t19 93h136q0 -260 -211 -260q-59 0 -105 35t-84 70q-37 35 -77 35t-59 -41q-19 -40 -19 -93h-136zM195 506v719q0 45 -45 45h-89v176h207q70 0 101 -31t30 -100v-801q1 -162 95 -254t252 -92t251 93
q94 93 95 255v799q0 71 32 101t101 30h205v-176h-89q-45 0 -45 -45v-719q0 -238 -152 -384t-398 -146t-398 146t-153 384z" />
    <glyph glyph-name="utilde" unicode="&#x169;" horiz-adv-x="1271" 
d="M274 1188q0 260 211 260q59 0 107 -35t83 -70q36 -35 76 -35t59 41q19 40 19 93h136q0 -260 -211 -260q-60 0 -106 35t-83 69t-77 35q-40 0 -58 -40q-20 -40 -20 -93h-136zM522 -25q-352 0 -352 398v448q0 45 -45 45h-84v170h195q70 0 102 -30t31 -97v-491
q0 -125 40 -192t152 -66q154 0 246 114t92 277v485h199v-821q0 -45 45 -45h84v-170h-191q-131 0 -131 115v39l2 59h-4q-39 -90 -140 -164t-241 -74z" />
    <glyph glyph-name="Umacron" unicode="&#x16a;" horiz-adv-x="1490" 
d="M487 1606v139h521v-139h-521zM195 506v719q0 45 -45 45h-89v176h207q70 0 101 -31t30 -100v-801q1 -162 95 -254t252 -92t251 93q94 93 95 255v799q0 71 32 101t101 30h205v-176h-89q-45 0 -45 -45v-719q0 -238 -152 -384t-398 -146t-398 146t-153 384z" />
    <glyph glyph-name="umacron" unicode="&#x16b;" horiz-adv-x="1271" 
d="M362 1245v139h521v-139h-521zM522 -25q-352 0 -352 398v448q0 45 -45 45h-84v170h195q70 0 102 -30t31 -97v-491q0 -125 40 -192t152 -66q154 0 246 114t92 277v485h199v-821q0 -45 45 -45h84v-170h-191q-131 0 -131 115v39l2 59h-4q-39 -90 -140 -164t-241 -74z" />
    <glyph glyph-name="Ubreve" unicode="&#x16c;" horiz-adv-x="1490" 
d="M1010 1778q0 -112 -78 -176t-183 -64t-185 64t-79 176v28h138v-26q1 -61 37 -92t88 -31t90 32q37 32 36 93v24h136v-28zM195 506v719q0 45 -45 45h-89v176h207q70 0 101 -31t30 -100v-801q1 -162 95 -254t252 -92t251 93q94 93 95 255v799q0 71 32 101t101 30h205v-176
h-89q-45 0 -45 -45v-719q0 -238 -152 -384t-398 -146t-398 146t-153 384z" />
    <glyph glyph-name="ubreve" unicode="&#x16d;" horiz-adv-x="1271" 
d="M624 1178q-105 0 -185 63q-79 63 -79 176v29h138v-27q0 -61 36 -92t89 -31t90 32t37 93v25h135v-29q0 -113 -78 -176t-183 -63zM522 -25q-352 0 -352 398v448q0 45 -45 45h-84v170h195q70 0 102 -30t31 -97v-491q0 -125 40 -192t152 -66q154 0 246 114t92 277v485h199
v-821q0 -45 45 -45h84v-170h-191q-131 0 -131 115v39l2 59h-4q-39 -90 -140 -164t-241 -74z" />
    <glyph glyph-name="Uring" unicode="&#x16e;" horiz-adv-x="1490" 
d="M748 1606q31 0 50 19t19 50t-19 50t-50 19q-30 0 -50 -18q-20 -20 -20 -51t20 -50t50 -19zM747 1827q69 0 117 -42t49 -111q-1 -68 -49 -110t-117 -42t-117 42t-48 110t48 111q48 42 117 42zM195 506v719q0 45 -45 45h-89v176h207q70 0 101 -31t30 -100v-801
q1 -162 95 -254t252 -92t251 93q94 93 95 255v799q0 71 32 101t101 30h205v-176h-89q-45 0 -45 -45v-719q0 -238 -152 -384t-398 -146t-398 146t-153 384z" />
    <glyph glyph-name="uring" unicode="&#x16f;" horiz-adv-x="1271" 
d="M623 1245q31 -1 50 19t19 51t-19 50t-50 19t-51 -19t-19 -50q-1 -31 19 -51t51 -19zM457 1314q0 68 48 110t117 42q70 0 118 -42t48 -110t-48 -111q-48 -42 -118 -42q-69 0 -117 42t-48 111zM522 -25q-352 0 -352 398v448q0 45 -45 45h-84v170h195q70 0 102 -30t31 -97
v-491q0 -125 40 -192t152 -66q154 0 246 114t92 277v485h199v-821q0 -45 45 -45h84v-170h-191q-131 0 -131 115v39l2 59h-4q-39 -90 -140 -164t-241 -74z" />
    <glyph glyph-name="Uhungarumlaut" unicode="&#x170;" horiz-adv-x="1490" 
d="M506 1546l141 260h172l-143 -260h-170zM819 1546l148 260h202l-196 -260h-154zM195 506v719q0 45 -45 45h-89v176h207q70 0 101 -31t30 -100v-801q1 -162 95 -254t252 -92t251 93q94 93 95 255v799q0 71 32 101t101 30h205v-176h-89q-45 0 -45 -45v-719q0 -238 -152 -384
t-398 -146t-398 146t-153 384z" />
    <glyph glyph-name="uhungarumlaut" unicode="&#x171;" horiz-adv-x="1271" 
d="M381 1186l141 260h172l-143 -260h-170zM694 1186l148 260h202l-196 -260h-154zM522 -25q-352 0 -352 398v448q0 45 -45 45h-84v170h195q70 0 102 -30t31 -97v-491q0 -125 40 -192t152 -66q154 0 246 114t92 277v485h199v-821q0 -45 45 -45h84v-170h-191q-131 0 -131 115
v39l2 59h-4q-39 -90 -140 -164t-241 -74z" />
    <glyph glyph-name="Uogonek" unicode="&#x172;" horiz-adv-x="1490" 
d="M195 506v719q0 45 -45 45h-89v176h207q70 0 101 -31t30 -100v-801q1 -162 95 -254t252 -92t251 93q94 93 95 255v799q0 71 32 101t101 30h205v-176h-89q-45 0 -45 -45v-727q0 -305 -286 -471q-176 -100 -176 -209q0 -35 28 -57t58 -27l28 -4l-47 -154q-19 0 -71 15
t-84 35t-58 58t-24 87q0 115 106 204v5q-23 -2 -41 -3q-238 0 -386 148t-148 381z" />
    <glyph glyph-name="uogonek" unicode="&#x173;" horiz-adv-x="1271" 
d="M522 -25q-352 0 -352 398v448q0 45 -45 45h-84v170h195q80 0 106 -38t27 -132v-448q0 -125 40 -192t152 -66q154 0 246 114t92 277v485h199v-821q0 -45 45 -45h84v-170q-131 -106 -131 -182q0 -35 28 -57t56 -27l28 -4l-47 -154q-19 0 -71 15t-84 35t-57 58
q-26 38 -25 87q0 123 137 227v4h-39q-117 0 -117 113v39l2 59h-4q-13 -32 -48 -77q-36 -46 -76 -78q-41 -32 -109 -58t-148 -25z" />
    <glyph glyph-name="Wcircumflex" unicode="&#x174;" horiz-adv-x="1982" 
d="M733 1546l178 260h183l180 -260h-162l-106 164h-5l-108 -164h-160zM66 1270h-31v176h117q82 0 120 -25t58 -94l223 -930l29 -153h4q12 74 35 153l290 1045h185l270 -1045l31 -153h4q8 76 26 153l228 930q18 71 57 95t119 24h117v-176h-31q-57 0 -70 -45l-317 -1225h-238
l-245 913l-41 199h-5q-20 -104 -47 -197l-262 -915h-239l-318 1225q-12 45 -69 45z" />
    <glyph glyph-name="wcircumflex" unicode="&#x175;" horiz-adv-x="1708" 
d="M586 1186l178 260h182l180 -260h-161l-107 164h-4l-109 -164h-159zM49 866h-29v170h125q70 0 102 -22t52 -88l184 -617l25 -110h4q12 57 29 110l223 723h182l225 -723l27 -110h4q8 57 25 110l182 617q20 66 53 88t103 22h123v-170h-29q-51 0 -64 -41l-272 -825h-223
l-215 666l-29 112h-4q-12 -59 -29 -112l-213 -666h-225l-272 825q-12 41 -64 41z" />
    <glyph glyph-name="Ycircumflex" unicode="&#x176;" horiz-adv-x="1234" 
d="M350 1546l178 260h183l180 -260h-162l-106 164h-5l-108 -164h-160zM516 0v631l-366 588q-31 51 -89 51h-41v176h95q77 0 115 -20t79 -91l219 -364l88 -162h5q39 82 88 162l217 364q41 70 80 90t114 21h94v-176h-38q-59 0 -91 -51l-364 -588v-631h-205z" />
    <glyph glyph-name="ycircumflex" unicode="&#x177;" horiz-adv-x="1118" 
d="M289 1186l178 260h182l180 -260h-161l-107 164h-4l-108 -164h-160zM244 -258q119 0 182 149l47 113l-354 821q-18 41 -66 41h-24v170h116q63 0 94 -21q30 -22 54 -83l235 -584l37 -125h4q14 72 35 125l215 584q23 61 55 83q33 22 97 21h119v-170h-27q-47 0 -66 -41
l-409 -1011q-47 -120 -135 -182t-199 -62q-68 0 -129 26t-88 52l-27 24l82 144q0 -2 18 -20t57 -36q38 -18 77 -18z" />
    <glyph glyph-name="Ydieresis" unicode="&#x178;" horiz-adv-x="1234" 
d="M377 1599v207h151v-207h-151zM715 1599v207h149v-207h-149zM516 0v631l-366 588q-31 51 -89 51h-41v176h95q77 0 115 -20t79 -91l219 -364l88 -162h5q39 82 88 162l217 364q41 70 80 90t114 21h94v-176h-38q-59 0 -91 -51l-364 -588v-631h-205z" />
    <glyph glyph-name="Zacute" unicode="&#x179;" horiz-adv-x="1191" 
d="M526 1546l150 260h201l-195 -260h-156zM37 0v135l713 1004q41 58 94 118l14 15v4q-39 -6 -108 -6h-465q-45 0 -45 -45v-92h-187v182q0 71 31 101t100 30h928v-133l-715 -1006q-55 -77 -92 -114l-14 -17v-4q39 4 106 4h510q45 0 45 45v92h189v-182q0 -71 -31 -101
t-100 -30h-973z" />
    <glyph glyph-name="zacute" unicode="&#x17a;" horiz-adv-x="1034" 
d="M453 1186l149 260h201l-195 -260h-155zM68 0v115l530 655l86 96v4q-33 -4 -100 -4h-283q-45 0 -45 -45v-69h-182v153q0 70 30 101q31 31 101 30h741v-114l-532 -658l-86 -94v-4q33 4 100 4h332q45 0 45 45v70h180v-154q0 -71 -31 -101t-100 -30h-786z" />
    <glyph glyph-name="Zdotaccent" unicode="&#x17b;" horiz-adv-x="1191" 
d="M518 1599v207h178v-207h-178zM37 0v135l713 1004q41 58 94 118l14 15v4q-39 -6 -108 -6h-465q-45 0 -45 -45v-92h-187v182q0 71 31 101t100 30h928v-133l-715 -1006q-55 -77 -92 -114l-14 -17v-4q39 4 106 4h510q45 0 45 45v92h189v-182q0 -71 -31 -101t-100 -30h-973z
" />
    <glyph glyph-name="zdotaccent" unicode="&#x17c;" horiz-adv-x="1034" 
d="M444 1239v207h179v-207h-179zM68 0v115l530 655l86 96v4q-33 -4 -100 -4h-283q-45 0 -45 -45v-69h-182v153q0 70 30 101q31 31 101 30h741v-114l-532 -658l-86 -94v-4q33 4 100 4h332q45 0 45 45v70h180v-154q0 -71 -31 -101t-100 -30h-786z" />
    <glyph glyph-name="Zcaron" unicode="&#x17d;" horiz-adv-x="1191" 
d="M516 1546l-180 260h162l106 -166h4l107 166h164l-181 -260h-182zM37 0v135l713 1004q41 58 94 118l14 15v4q-39 -6 -108 -6h-465q-45 0 -45 -45v-92h-187v182q0 71 31 101t100 30h928v-133l-715 -1006q-55 -77 -92 -114l-14 -17v-4q39 4 106 4h510q45 0 45 45v92h189
v-182q0 -71 -31 -101t-100 -30h-973z" />
    <glyph glyph-name="zcaron" unicode="&#x17e;" horiz-adv-x="1034" 
d="M442 1186l-180 260h162l106 -166h5l106 166h164l-180 -260h-183zM68 0v115l530 655l86 96v4q-33 -4 -100 -4h-283q-45 0 -45 -45v-69h-182v153q0 70 30 101q31 31 101 30h741v-114l-532 -658l-86 -94v-4q33 4 100 4h332q45 0 45 45v70h180v-154q0 -71 -31 -101t-100 -30
h-786z" />
    <glyph glyph-name="longs" unicode="&#x17f;" horiz-adv-x="665" 
d="M174 0v877h-129v159h129v35q0 98 29 171t70 113q106 101 292 101l76 -6v-170q-20 4 -72 4t-103 -28q-95 -54 -93 -191v-1065h-199z" />
    <glyph glyph-name="florin" unicode="&#x192;" horiz-adv-x="737" 
d="M-92 61q20 -4 70 -4t103 30q101 58 112 198l36 432h-153v160h168l18 194q8 98 44 171t80 113q111 101 298 101l76 -6l-17 -170q-18 4 -51 4q-34 0 -66 -8q-152 -38 -167 -219l-19 -180h217v-160h-229l-39 -447q-8 -98 -44 -171t-80 -113q-113 -102 -300 -101l-74 4z" />
    <glyph glyph-name="Scommaaccent" unicode="&#x218;" horiz-adv-x="1091" 
d="M641 -240q0 -64 -49 -170h-141q39 100 39 164t-23 125h162q12 -55 12 -119zM553 162q104 0 176 59t72 143t-52 139q-52 56 -129 91t-168 81t-168 92t-129 128t-53 188q0 164 130 276q130 111 336 111t335 -110q74 -63 74 -156v-119h-189v68q0 55 -67 93t-169 38t-172 -55
t-69 -131q0 -139 185 -217t331 -166q78 -47 129 -132t52 -196q0 -172 -125 -292t-337 -120t-395 139q-42 32 -61 54l-20 22l120 146q174 -174 363 -174z" />
    <glyph glyph-name="scommaaccent" unicode="&#x219;" horiz-adv-x="929" 
d="M553 -240q0 -64 -49 -170h-142q40 100 40 164t-23 125h162q12 -55 12 -119zM651 264q0 57 -58 96t-141 71t-166 71t-142 107q-58 69 -58 161q0 141 109 216t254 75t253 -48t109 -153v-98h-178v51q0 43 -50 66t-123 23t-124 -33q-51 -32 -51 -88t58 -96t141 -70
q83 -31 166 -67q84 -36 142 -105t58 -164q0 -137 -108 -221t-268 -83q-160 0 -263 60q-102 60 -141 104l-15 19l103 133q10 -16 48 -48q122 -104 252 -105q91 -1 142 34t51 92z" />
    <glyph glyph-name="uni021A" unicode="&#x21a;" horiz-adv-x="1302" 
d="M737 -240q0 -64 -49 -170h-141q39 100 39 164t-23 125h162q12 -55 12 -119zM549 0v1270h-291q-45 0 -45 -45v-92h-182v190q1 71 27 97t96 26h995q71 0 97 -27t26 -96v-190h-182v92q0 45 -46 45h-290v-1270h-205z" />
    <glyph glyph-name="uni021B" unicode="&#x21b;" horiz-adv-x="720" 
d="M324 -121h161q13 -55 13 -119t-49 -170h-142q39 100 39 164t-22 125zM182 379v498h-135v159h139v285h195v-285h248v-159h-248v-476q0 -146 82 -195q64 -38 137 -38l47 4v-176q-27 -4 -71 -4t-90 6t-103 31t-99 65t-72 113q-30 74 -30 172z" />
    <glyph glyph-name="circumflex" unicode="&#x2c6;" horiz-adv-x="993" 
d="M227 1546l179 260h182l180 -260h-162l-106 164h-4l-109 -164h-160z" />
    <glyph glyph-name="caron" unicode="&#x2c7;" horiz-adv-x="999" 
d="M406 1546l-181 260h162l107 -166h4l106 166h164l-180 -260h-182z" />
    <glyph glyph-name="breve" unicode="&#x2d8;" horiz-adv-x="1026" 
d="M760 1778q0 -112 -78 -176t-183 -64t-185 64t-78 176v28h137v-26q0 -61 37 -92t89 -31t89 32t37 93v24h135v-28z" />
    <glyph glyph-name="dotaccent" unicode="&#x2d9;" horiz-adv-x="524" 
d="M172 1599v207h178v-207h-178z" />
    <glyph glyph-name="ring" unicode="&#x2da;" horiz-adv-x="778" 
d="M389 1606q31 0 50 19t19 50t-18 50q-20 19 -51 19t-50 -18q-19 -20 -19 -51t18 -50q20 -19 51 -19zM555 1674q0 -68 -49 -110t-118 -42t-117 42t-48 110t48 111q48 42 117 42t118 -42t49 -111z" />
    <glyph glyph-name="ogonek" unicode="&#x2db;" horiz-adv-x="739" 
d="M221 -232q0 46 20 90q19 44 67 95t81 70l19 12l141 -15q-61 -40 -109 -101q-49 -60 -49 -98t29 -60t57 -27l29 -4l-47 -154q-10 0 -57 9t-89 35q-41 26 -67 64t-25 84z" />
    <glyph glyph-name="tilde" unicode="&#x2dc;" horiz-adv-x="1062" 
d="M188 1548q0 260 211 260q59 0 107 -34t83 -70q36 -35 76 -35t59 40t19 93h136q0 -260 -211 -260q-60 0 -106 35t-83 70t-77 35t-58 -41q-20 -40 -20 -93h-136z" />
    <glyph glyph-name="hungarumlaut" unicode="&#x2dd;" horiz-adv-x="1095" 
d="M203 1546l141 260h172l-143 -260h-170zM516 1546l148 260h202l-196 -260h-154z" />
    <glyph glyph-name="germandbls.case" unicode="&#x1e9e;" horiz-adv-x="1310" 
d="M61 0v176h89q45 0 45 45v815q0 178 117 294q118 116 298 116h557v-137l-284 -416l-49 -68v-4h20q162 0 268 -123q106 -124 106 -288t-125 -287q-126 -123 -302 -123h-195v176h180q102 0 168 72t66 172t-65 170t-167 69h-178v142l232 346l90 125v4q-14 -6 -88 -6h-228
q-94 0 -155 -66t-62 -164v-909q-1 -71 -31 -101t-100 -30h-207z" />
    <glyph glyph-name="endash" unicode="&#x2013;" horiz-adv-x="1335" 
d="M129 504v160h1077v-160h-1077z" />
    <glyph glyph-name="emdash" unicode="&#x2014;" horiz-adv-x="1744" 
d="M129 504v160h1487v-160h-1487z" />
    <glyph glyph-name="quoteleft" unicode="&#x2018;" horiz-adv-x="466" 
d="M96 1069l133 399h142l-88 -399h-187z" />
    <glyph glyph-name="quoteright" unicode="&#x2019;" horiz-adv-x="466" 
d="M96 1071l88 399h187l-133 -399h-142z" />
    <glyph glyph-name="quotesinglbase" unicode="&#x201a;" horiz-adv-x="466" 
d="M184 215h187l-133 -399h-142z" />
    <glyph glyph-name="quotedblleft" unicode="&#x201c;" horiz-adv-x="751" 
d="M96 1069l133 399h142l-88 -399h-187zM379 1069l133 399h143l-88 -399h-188z" />
    <glyph glyph-name="quotedblright" unicode="&#x201d;" horiz-adv-x="751" 
d="M96 1071l88 399h187l-133 -399h-142zM379 1071l88 399h188l-133 -399h-143z" />
    <glyph glyph-name="quotedblbase" unicode="&#x201e;" horiz-adv-x="751" 
d="M184 215h187l-133 -399h-142zM379 -184l88 399h188l-133 -399h-143z" />
    <glyph glyph-name="dagger" unicode="&#x2020;" horiz-adv-x="806" 
d="M305 -102v981h-248v157h248v410h191v-410h254v-157h-254v-981h-191z" />
    <glyph glyph-name="daggerdbl" unicode="&#x2021;" horiz-adv-x="806" 
d="M305 -102v452h-248v160h248v369h-248v157h248v410h191v-410h254v-157h-254v-369h254v-160h-254v-452h-191z" />
    <glyph glyph-name="bullet" unicode="&#x2022;" horiz-adv-x="929" 
d="M464 279q-132 0 -224 92t-93 225q1 133 93 225t224 92t224 -93t92 -224t-92 -224t-224 -93z" />
    <glyph glyph-name="ellipsis" unicode="&#x2026;" horiz-adv-x="1851" 
d="M293 0v211h203v-211h-203zM823 0v211h205v-211h-205zM1356 0v211h203v-211h-203z" />
    <glyph glyph-name="perthousand" unicode="&#x2030;" horiz-adv-x="2279" 
d="M1174 432q-64 0 -108 -45t-44 -109t44 -108q44 -43 108 -43t107 44q44 43 44 107t-44 109t-107 45zM1747 278q0 -64 44 -108q44 -43 107 -43t108 43q44 44 44 108t-44 109t-108 45t-107 -45q-44 -45 -44 -109zM862 278q0 126 91 215t219 89t221 -89q92 -89 92 -214
t-92 -214t-221 -89t-220 87q-90 89 -90 215zM1589 278q0 126 90 215t219 89q128 0 220 -89t92 -214t-91 -214t-221 -89t-219 88q-90 88 -90 214zM430 1016q66 0 109 43t43 107t-44 110t-108 45q-64 0 -107 -45q-44 -45 -44 -110q1 -66 43 -108t108 -42zM152 0l1105 1446h193
l-1106 -1446h-192zM430 864q-129 0 -219 88t-90 214t90 215t219 89t220 -89t91 -214t-91 -214t-220 -89z" />
    <glyph glyph-name="guilsinglleft" unicode="&#x2039;" horiz-adv-x="751" 
d="M422 158l-336 420l336 421h199l-336 -421l336 -420h-199z" />
    <glyph glyph-name="guilsinglright" unicode="&#x203a;" horiz-adv-x="751" 
d="M127 158l336 420l-336 421h199l336 -421l-336 -420h-199z" />
    <glyph glyph-name="fraction" unicode="&#x2044;" horiz-adv-x="856" 
d="M53 0l588 1446h164l-588 -1446h-164z" />
    <glyph glyph-name="Euro" unicode="&#x20ac;" horiz-adv-x="1230" 
d="M80 528v129h121q-4 37 -4 68l4 80h-121v131h143q63 238 253 386t442 148q97 0 172 -18l24 -6l-49 -186q-72 23 -152 22q-170 0 -296 -94t-177 -252h568l-29 -131h-569q-4 -35 -4 -76l4 -72h542l-24 -129h-484q46 -164 176 -262t300 -98q92 0 165 20l25 9l41 -187
q-100 -35 -233 -35q-260 0 -449 153q-188 153 -248 400h-141z" />
    <glyph glyph-name="trademark" unicode="&#x2122;" horiz-adv-x="2013" 
d="M391 545v764h-155q-18 0 -19 -19v-61h-137v125q0 53 19 72t77 20h586q56 0 76 -20t20 -72v-125h-135v61q0 18 -18 19h-158v-764h-156zM866 545v137h47q20 0 23 18l59 746h142l213 -471l28 -86h4q12 49 27 86l213 471h143l60 -746q0 -18 20 -18h49v-137h-120q-55 0 -76 18
q-20 18 -25 74l-35 446l2 62h-4l-194 -434h-125l-195 434h-4l2 -62l-35 -446q-4 -55 -24 -73t-76 -19h-119z" />
    <glyph glyph-name="minus" unicode="&#x2212;" 
d="M98 504v160h1059v-160h-1059z" />
    <glyph glyph-name="infinity" unicode="&#x221e;" horiz-adv-x="1040" 
d="M521 342q-155 0 -265 110t-109 264q0 154 110 262q111 108 265 108t262 -108t109 -262q-1 -154 -109 -264t-263 -110z" />
    <glyph glyph-name="approxequal" unicode="&#x2248;" 
d="M426 541q102 0 220 -72t185 -72q121 0 226 113l84 -121q-143 -147 -310 -147q-102 0 -220 72t-185 71q-116 0 -225 -113l-84 119q141 150 309 150zM426 928q102 0 220 -72t185 -72q121 0 226 113l84 -121q-143 -147 -310 -147q-102 -1 -220 71t-185 72q-114 0 -225 -115
l-84 121q141 150 309 150z" />
    <glyph glyph-name="notequal" unicode="&#x2260;" 
d="M139 309v160h332l164 227h-496v160h602l168 236l105 -72l-119 -164h221v-160h-328l-161 -227h489v-160h-598l-162 -229l-106 70l115 159h-226z" />
    <glyph glyph-name="lessequal" unicode="&#x2264;" 
d="M139 -195h953v-159h-953v159zM137 516v135l955 426v-182l-734 -309v-4l734 -310v-182z" />
    <glyph glyph-name="greaterequal" unicode="&#x2265;" 
d="M164 -195h952v-159h-952v159zM164 90v182l733 310v4l-733 309v182l956 -426v-135z" />
    <glyph glyph-name="T.R" horiz-adv-x="1261" 
d="M559 0v1270h-297q-45 0 -45 -45v-90h-186v190q-1 69 25 95t94 26h1056v-176h-442v-1270h-205z" />
    <glyph glyph-name="T.L" horiz-adv-x="1261" 
d="M500 0v1270h-445v176h1057q68 0 94 -27t25 -94v-190h-187v90q0 45 -45 45h-294v-1270h-205z" />
    <glyph glyph-name="T.cut_mid" horiz-adv-x="1261" 
d="M528 0v1270h-467v176h1139v-176h-467v-1270h-205z" />
    <glyph glyph-name="commaaccent" horiz-adv-x="686" 
d="M442 -240q0 -64 -49 -170h-141q39 100 39 164t-23 125h162q12 -55 12 -119z" />
    <glyph glyph-name="apple" horiz-adv-x="2314" 
d="M897 0h162v418h422v141h-422v338h309q29 0 39 -12t10 -41v-68h150v152q0 57 -25 83t-86 25h-678v-139h119v-897zM293 315v461l203 119v252l440 233l225 -120l219 120l439 -233v-252l204 -119v-461l-204 -122v-248l-439 -234l-219 119l-225 -119l-440 234v248zM193 291
l233 -131v-285l487 -258l248 135l242 -135l487 258v285l234 131v510l-234 135v278l-487 259l-242 -132l-248 132l-487 -259v-278l-233 -135v-510zM86 262v569l258 146v309l543 291l274 -145l271 145l542 -291v-309l254 -146v-569l-254 -147v-312l-542 -288l-271 145
l-274 -145l-543 288v312z" />
    <glyph glyph-name="zero.tnum" horiz-adv-x="1181" 
d="M591 162q304 0 304 561t-304 561t-304 -561t304 -561zM591 -25q-511 -1 -511 747t511 748t511 -748t-511 -747z" />
    <glyph glyph-name="one.tnum" horiz-adv-x="1169" 
d="M195 0v176h317v934l2 90h-4q-16 -33 -68 -84l-135 -133l-123 127l346 336h187v-1270h315v-176h-837z" />
    <glyph glyph-name="two.tnum" horiz-adv-x="1169" 
d="M221 0q-81 0 -109 37t-28 137t41 188q41 86 118 156t221 152t209 128q146 103 146 255q0 100 -69 165q-70 64 -174 64t-170 -41q-64 -41 -64 -96v-64h-188v123q0 88 71 152q133 116 340 115t335 -116q128 -116 128 -300q0 -137 -76 -243t-184 -174q-108 -67 -214 -125
q-108 -58 -184 -133t-75 -165q0 -39 51 -39h514q45 0 45 45v92h189v-182q0 -71 -31 -101t-100 -30h-742z" />
    <glyph glyph-name="three.tnum" horiz-adv-x="1169" 
d="M559 168q119 0 203 75t84 191t-90 186q-90 71 -221 70h-103l-43 109l301 379q36 54 84 94v4q-43 -6 -123 -6h-278q-45 0 -45 -45v-92h-189v182q0 71 29 101t96 30h762v-129l-381 -459q164 -18 287 -124t123 -298q-1 -190 -139 -325t-357 -136q-170 0 -292 68t-165 115
l-20 20l111 154q164 -164 366 -164z" />
    <glyph glyph-name="four.tnum" horiz-adv-x="1169" 
d="M711 559v498l8 147h-4q-37 -70 -74 -121l-315 -434l-76 -92v-4q59 6 123 6h338zM29 383v131l651 932h233v-887h226v-176h-226v-383h-204v383h-680z" />
    <glyph glyph-name="five.tnum" horiz-adv-x="1169" 
d="M850 461q0 127 -99 209t-245 82q-72 0 -140 -18t-102 -38l-33 -18l-84 39l58 598q6 71 35 101t96 30h504q70 0 100 -31t31 -100v-182h-187v92q0 45 -45 45h-303q-39 0 -45 -45l-29 -264l-10 -76h4q78 43 187 43q229 0 372 -136t143 -336t-144 -340q-146 -140 -375 -141
q-170 0 -277 64t-156 119l-16 20l111 150q16 -24 52 -54q124 -106 273 -106q148 0 236 83t88 210z" />
    <glyph glyph-name="six.tnum" horiz-adv-x="1169" 
d="M297 555q0 -145 95 -269q96 -124 224 -124t200 84t71 215q0 131 -80 214t-208 83t-215 -62t-87 -141zM608 -25q-218 -1 -372 183t-154 486t157 552q77 123 205 199t289 75q76 0 147 -14t103 -31l31 -14l-66 -174q-92 47 -207 47q-184 0 -297 -144t-137 -352h4
q43 66 132 104t188 38q203 0 330 -135t127 -342t-132 -343q-130 -136 -348 -135z" />
    <glyph glyph-name="seven.tnum" horiz-adv-x="1169" 
d="M760 1270h-436q-45 0 -45 -45v-92h-189v182q0 71 29 101t96 30h879v-139l-701 -1307h-227l614 1139l84 133v4q-33 -6 -104 -6z" />
    <glyph glyph-name="eight.tnum" horiz-adv-x="1169" 
d="M481 696q-49 0 -123 -85t-73 -195q0 -110 87 -182t207 -72q119 0 207 70t88 164q0 96 -60 147t-187 102t-146 51zM693 817q36 0 92 80q57 80 57 174q0 93 -71 153t-185 60t-180 -58q-68 -58 -68 -146t58 -134q58 -47 160 -88t137 -41zM78 414q0 133 77 226t136 130l24 14
v4q-20 10 -56 43q-35 33 -59 63t-43 82t-20 107q0 160 121 274q121 113 328 113q206 0 330 -110t124 -281q0 -94 -44 -180t-87 -125l-43 -39v-4q215 -125 215 -332q0 -174 -141 -299t-355 -125t-361 121q-146 121 -146 318z" />
    <glyph glyph-name="nine.tnum" horiz-adv-x="1169" 
d="M571 688q129 0 215 62t86 141q0 145 -95 269t-223 124t-200 -84t-72 -214t81 -214q80 -84 208 -84zM428 162q184 0 297 145t137 352h-4q-43 -65 -132 -103t-187 -38q-203 0 -330 134t-127 341t131 342t349 135t372 -183t154 -485t-157 -552q-77 -123 -205 -199t-290 -76
q-76 1 -146 15t-102 30l-32 15l65 176q92 -49 207 -49z" />
    <glyph glyph-name="T_h" horiz-adv-x="2342" 
d="M565 0v1270h-307q-45 0 -45 -45v-92h-182v190q1 71 27 97t96 26h1149q71 0 101 -31t30 -96v-404l-4 -86h4q22 60 87 118q125 114 298 114q356 0 356 -397v-449q0 -45 45 -45h82v-170h-195q-71 0 -101 31t-30 100v487q0 125 -40 193t-156 68q-154 0 -250 -113t-96 -281
v-485h-199v1225q0 45 -45 45h-420v-1270h-205z" />
    <glyph glyph-name="T.alt" horiz-adv-x="1280" 
d="M561 0v1270h-303q-45 0 -45 -45v-92h-182v190q1 71 27 97t96 26h1095v-176h-483v-1270h-205z" />
    <glyph glyph-name="Tcommaaccent.alt" horiz-adv-x="1280" 
d="M842 -264q0 -76 -60 -118t-135 -42q-74 0 -127 14v119q41 -14 88 -14q96 0 97 63q0 63 -109 64l-37 -2l47 180h-45v1270h-303q-45 0 -45 -45v-92h-182v190q1 71 27 97t96 26h1095v-176h-483v-1270h-49l-21 -102q62 -8 104 -48q42 -38 42 -114z" />
    <glyph glyph-name="Tcaron.alt" horiz-adv-x="1280" 
d="M561 0v1270h-303q-45 0 -45 -45v-92h-182v190q1 71 27 97t96 26h1095v-176h-483v-1270h-205zM575 1546l-180 260h162l107 -166h4l108 166h162l-180 -260h-183z" />
    <glyph glyph-name="Tbar.alt" horiz-adv-x="1280" 
d="M561 0v635h-307v156h307v479h-303q-45 0 -45 -45v-92h-182v190q1 71 27 97t96 26h1095v-176h-483v-479h319v-156h-319v-635h-205z" />
    <glyph glyph-name="uni021A.alt" horiz-adv-x="1280" 
d="M598 -246q0 64 -23 125h162q13 -55 13 -119t-50 -170h-141q39 100 39 164zM561 0v1270h-303q-45 0 -45 -45v-92h-182v190q1 71 27 97t96 26h1095v-176h-483v-1270h-205z" />
    <glyph glyph-name="hyphen.case" horiz-adv-x="882" 
d="M143 625v176h598v-176h-598z" />
    <glyph glyph-name="parenleft.case" horiz-adv-x="675" 
d="M170 726q0 484 231 841h174q-225 -377 -225 -833t236 -867h-176q-240 375 -240 859z" />
    <glyph glyph-name="parenright.case" horiz-adv-x="675" 
d="M326 734q0 456 -226 833h174q232 -356 232 -841t-240 -859h-176q236 411 236 867z" />
    <glyph glyph-name="bracketleft.case" horiz-adv-x="669" 
d="M199 -2v1438q1 70 31 100t100 31h207v-150h-119q-45 0 -45 -45v-1309q0 -45 45 -45h119v-151h-207q-70 1 -100 31t-31 100z" />
    <glyph glyph-name="bracketright.case" horiz-adv-x="669" 
d="M133 18h119q45 0 45 45v1309q0 45 -45 45h-119v150h207q70 0 102 -31t31 -100v-1438q0 -70 -32 -100t-101 -31h-207v151z" />
    <glyph glyph-name="braceleft.case" horiz-adv-x="694" 
d="M233 219v197q0 146 -111 204q-20 10 -63 19v176q23 1 57 17q117 57 117 210v172q0 92 26 161t62 105q91 91 244 91l47 -2v-152h-28q-52 -1 -95 -27q-81 -50 -81 -188v-211q0 -112 -58 -176q-58 -65 -108 -84v-4q102 -34 147 -153q18 -48 19 -107v-236q0 -137 62 -175
t114 -40h28v-151q-18 -4 -51 -4t-69 5t-85 28q-50 22 -86 58t-62 106t-26 161z" />
    <glyph glyph-name="braceright.case" horiz-adv-x="694" 
d="M461 1042q0 -190 174 -227v-176q-22 0 -57 -16q-117 -55 -117 -207v-197q0 -92 -26 -162q-25 -69 -61 -105q-90 -90 -245 -91l-47 4v151h29q50 0 93 26q81 49 83 189v236q0 150 106 229q30 21 60 31v4q-23 8 -55 30q-111 79 -111 230v211q0 139 -71 181q-57 34 -105 34
h-29v152q18 2 51 2t69 -5t86 -28q50 -22 86 -58t62 -105t25 -161v-172z" />
    <glyph glyph-name="at.case" horiz-adv-x="1599" 
d="M727 723q0 -100 68 -171t170 -71h206v486h-202q-104 0 -173 -72t-69 -172zM82 721q0 317 217 537t511 220t424 -117q128 -118 128 -300v-580h147v-149h-559q-186 0 -305 114t-119 272t118 272t306 114h221q-4 92 -91 151t-240 60q-236 0 -398 -176t-162 -421t164 -416
q162 -171 418 -171v-162q-340 -1 -560 217t-220 535z" />
    <glyph glyph-name="guillemotleft.case" horiz-adv-x="1161" 
d="M422 281l-336 419l336 422h199l-336 -422l336 -419h-199zM498 700l336 422h198l-336 -422l336 -419h-198z" />
    <glyph glyph-name="guillemotright.case" horiz-adv-x="1161" 
d="M127 281l336 419l-336 422h199l336 -422l-336 -419h-199zM541 281l336 419l-336 422h198l336 -422l-336 -419h-198z" />
    <glyph glyph-name="guilsinglleft.case" horiz-adv-x="751" 
d="M422 281l-336 419l336 422h199l-336 -422l336 -419h-199z" />
    <glyph glyph-name="guilsinglright.case" horiz-adv-x="751" 
d="M127 281l336 419l-336 422h199l336 -422l-336 -419h-199z" />
    <glyph glyph-name="endash.case" horiz-adv-x="1335" 
d="M129 627v159h1077v-159h-1077z" />
    <glyph glyph-name="emdash.case" horiz-adv-x="1744" 
d="M129 627v159h1487v-159h-1487z" />
    <glyph glyph-name="periodcentered.case" horiz-adv-x="491" 
d="M143 602v211h203v-211h-203z" />
    <glyph glyph-name="questiondown.case" horiz-adv-x="927" 
d="M428 969v80h193v-93q0 -86 -36 -158t-87 -119q-52 -48 -102 -93q-122 -109 -122 -221q0 -85 67 -145t167 -60q58 0 116 22t89 43l28 23l109 -142q-15 -15 -56 -41q-134 -87 -306 -89t-297 102t-125 275t127 289q53 50 107 96q128 109 128 231zM424 1247v199h203v-199
h-203z" />
    <glyph glyph-name="exclamdown.case" horiz-adv-x="643" 
d="M219 0l14 1049h179l12 -1049h-205zM219 1247v199h203v-199h-203z" />
    <glyph glyph-name="bullet.case" horiz-adv-x="929" 
d="M465 406q-131 0 -224 93t-93 225t92 224t224 92t224 -93t92 -224t-92 -224t-223 -93z" />
    </font>
</defs>
</svg>
