<?xml version="1.0" encoding="utf-8"?>
<!-- Generator: Adobe Illustrator 21.0.2, SVG Export Plug-In . SVG Version: 6.00 Build 0)  -->
<svg version="1.1" id="Layer_1" xmlns="http://www.w3.org/2000/svg" xmlns:xlink="http://www.w3.org/1999/xlink" x="0px" y="0px"
	 viewBox="0 0 499.7 499.7" style="enable-background:new 0 0 499.7 499.7;" xml:space="preserve">
<style type="text/css">
	.st0{fill:#E3682A;}
</style>
<path class="st0" d="M426.7,426.8c-97.4,97.6-255.6,97.7-353.2,0.2c-47-46.9-73.3-110.5-73.3-176.8C0.1,112.2,112,0.3,250,0.3
	c138,0,249.9,111.9,249.9,249.9C500.1,316.5,473.7,380.1,426.7,426.8z M84.8,84.9c-91.3,91.3-91.3,239.2,0,330.5
	c43.8,43.8,103.3,68.5,165.3,68.4c129-1.6,232.4-107.6,230.8-236.6C479.3,120.4,376.9,18,250.1,16.5C188,16.3,128.5,41,84.8,84.9z
	 M334.7,334.8c-3.2,3.2-8.3,3.2-11.5,0L250,261.6l-73.2,73.2c-3.3,3-8.3,2.8-11.5-0.4c-2.9-3-2.8-7.9,0-11l73.2-73.2L165.4,177
	c-3.2-3.2-3.2-8.3,0-11.5c3.2-3.2,8.3-3.2,11.5,0l73.2,73.2l73.2-73.2c3.3-3,8.3-2.8,11.5,0.4c2.9,3,2.8,7.9,0,11l-73.3,73.3
	l73.2,73.2C337.7,326.6,337.7,331.6,334.7,334.8z"/>
<path class="st0" d="M425.4,425.7c-96.9,97.1-254.3,97.2-351.4,0.2C27.4,379.3,1.2,316,1.2,250.1C1.2,112.8,112.5,1.6,249.8,1.6
	s248.5,111.3,248.5,248.5C498.4,315.9,472.1,379.2,425.4,425.7z M83.8,85.5c-90.9,90.9-90.9,238.2,0,329.1
	c43.6,43.6,102.8,68.2,164.6,68.2c128.6,0,232.7-104.2,232.7-232.7c0-128.6-104.2-232.7-232.7-232.7
	C186.6,17.2,127.3,41.7,83.8,85.5z M333.4,333.7c-2.6,2.6-6.9,2.6-9.5,0l-74.2-74.2l-74.2,74.2c-2.5,2.7-6.8,2.8-9.5,0.4
	c-2.7-2.5-2.8-6.8-0.4-9.5c0.1-0.1,0.2-0.2,0.4-0.4l74.2-74.2L166,175.9c-2.6-2.6-2.6-6.9,0-9.5c2.6-2.6,6.9-2.6,9.5,0l74.2,74.2
	l74.2-74.2c2.7-2.5,7-2.3,9.5,0.4c2.4,2.5,2.3,6.6,0,9.2l-74.1,74.1l74.2,74.2C336,326.8,336,331.1,333.4,333.7z"/>
</svg>
