<?xml version="1.0" encoding="utf-8"?>
<!-- Generator: Adobe Illustrator 20.1.0, SVG Export Plug-In . SVG Version: 6.00 Build 0)  -->
<svg version="1.1" id="Layer_1" xmlns="http://www.w3.org/2000/svg" xmlns:xlink="http://www.w3.org/1999/xlink" x="0px" y="0px"
	 viewBox="0 0 499.7 499.7" style="enable-background:new 0 0 499.7 499.7;" xml:space="preserve">
<path style="fill: #e3682a" d="M250,500C112.1,500.1,0.2,388.3,0.1,250.4C0,184,26.4,120.4,73.3,73.5c97.6-97.6,255.8-97.6,353.4,0s97.6,255.8,0,353.4
	C379.9,473.9,316.3,500.2,250,500z M250,16.5c-129.1,0-233.7,104.6-233.7,233.7c0,62,24.6,121.5,68.5,165.3
	c92.4,90.1,240.4,88.3,330.5-4.1c88.6-90.8,88.6-235.7,0-326.4C371.5,41,312,16.3,250,16.5z M250,369.9c-4.5,0-8.1-3.6-8.1-8.1
	V258.3H138.4c-4.5-0.2-7.9-3.9-7.8-8.4c0.1-4.2,3.6-7.6,7.8-7.8h103.5V138.6c0-4.5,3.6-8.1,8.1-8.1s8.1,3.6,8.1,8.1v103.5h103.5
	c4.5,0.2,7.9,3.9,7.8,8.4c-0.1,4.2-3.6,7.6-7.8,7.8H258v103.5C258,366.2,254.4,369.8,250,369.9z"/>
<path style="fill: #e3682a" d="M249.9,498.3C112.7,498.4,1.4,387.2,1.3,250c0-65.9,26.2-129.2,72.8-175.8c97.1-97.1,254.4-97,351.5,0s97,254.4,0,351.5
	C379.1,472.3,315.8,498.5,249.9,498.3z M248.9,16.2c-128.5,0-232.7,104.2-232.7,232.7c0,61.7,24.5,120.9,68.2,164.6
	c90.9,90.9,238.2,90.9,329.1,0s90.9-238.2,0-329.1C369.9,40.6,310.6,16,248.9,16.2z M249.9,368.2c-3.7,0-6.7-3-6.7-6.7V256.6H138.2
	c-3.7,0.1-6.8-2.8-7-6.5c-0.1-3.7,2.8-6.8,6.5-7c0.2,0,0.3,0,0.5,0h104.9V138.3c0-3.7,3-6.7,6.7-6.7c3.7,0,6.7,3,6.7,6.7v104.9
	h104.9c3.7,0.1,6.6,3.3,6.5,7c-0.1,3.5-3,6.3-6.5,6.5H256.6v104.9C256.6,365.2,253.6,368.2,249.9,368.2z"/>
</svg>
