<?xml version="1.0" encoding="utf-8"?>
<!-- Generator: Adobe Illustrator 21.0.0, SVG Export Plug-In . SVG Version: 6.00 Build 0)  -->
<svg version="1.1" id="Layer_1" xmlns="http://www.w3.org/2000/svg" xmlns:xlink="http://www.w3.org/1999/xlink" x="0px" y="0px"
	 viewBox="0 0 452 241" style="enable-background:new 0 0 452 241;" xml:space="preserve">
<style type="text/css">
	.st0{opacity:0.1;fill:#EDF2F8;}
	.st1{fill:#9BB8D3;}
	.st2{fill:#265EAC;}
	.st3{fill:#1E4B82;}
	.st4{fill:#EDF2F8;}
	.st5{fill:#86A1B2;}
	.st6{fill:none;}
	.st7{font-family:'MuseoSans-300';}
	.st8{font-size:14.659px;}
	.st9{font-family:'MuseoSans-500';}
	.st10{font-size:16.681px;}
	.st11{fill:#E3682A;}
</style>
<g>
	<path class="st0" d="M391.4,209.1H58c-1.8,0-3.1-1.4-3.1-3.1V28.4c0-1.8,1.4-3.1,3.1-3.1h333.4c1.8,0,3.1,1.4,3.1,3.1v177.7
		C394.5,207.6,393.1,209.1,391.4,209.1z"/>
	<g>
		<path class="st1" d="M324.3,168.6l-2.5-1.1l0.9-2l2.5,1.1L324.3,168.6z M319.3,166.4l-2.5-1.1l0.9-2l2.5,1.1L319.3,166.4z
			 M314.3,164.2l-2.5-1.1l0.9-2l2.5,1.1L314.3,164.2z M309.2,162.1l-2.5-1.1l0.9-2l2.5,1.1L309.2,162.1z M304.2,160l-2.5-1.1l0.9-2
			l2.5,1.1L304.2,160z M299.1,157.9l-2.5-1.1l0.9-2l2.5,1.1L299.1,157.9z M294.1,155.6l-2.5-1.1l0.9-2l2.5,1.1L294.1,155.6z
			 M289.1,153.6l-2.5-1.1l0.9-2l2.5,1.1L289.1,153.6z M284,151.4l-2.5-1.1l0.9-2l2.5,1.1L284,151.4z M279,149.2l-2.5-1.1l0.9-2
			l2.5,1.1L279,149.2z M273.9,147.1l-2.5-1.1l0.9-2l2.5,1.1L273.9,147.1z M268.9,145l-2.5-1.1l0.9-2l2.5,1.1L268.9,145z
			 M263.9,142.8l-2.5-1.1l0.9-2l2.5,1.1L263.9,142.8z M258.8,140.6l-2.5-1.1l0.9-2l2.5,1.1L258.8,140.6z M253.8,138.5l-2.5-1.1
			l0.9-2l2.5,1.1L253.8,138.5z M248.8,136.4l-2.5-1.1l0.9-2l2.5,1.1L248.8,136.4z M243.8,134.1l-2.5-1.1l0.9-2l2.5,1.1L243.8,134.1z
			 M238.7,132.1l-2.5-1.1l0.9-2l2.5,1.1L238.7,132.1z M233.7,129.9l-2.5-1.1l0.9-2l2.5,1.1L233.7,129.9z M228.6,127.8l-2.5-1.1
			l0.9-2l2.5,1.1L228.6,127.8z M223.6,125.6l-2.5-1.1l0.9-2l2.5,1.1L223.6,125.6z M218.6,123.5l-2.5-1.1l0.9-2l2.5,1.1L218.6,123.5z
			 M213.5,121.2l-2.5-1.1l0.9-2l2.5,1.1L213.5,121.2z M208.5,119.1L206,118l0.9-2l2.5,1.1L208.5,119.1z M203.4,117l-2.5-1.1l0.9-2
			l2.5,1.1L203.4,117z M198.4,114.9l-2.5-1.1l0.9-2l2.5,1.1L198.4,114.9z M193.4,112.6l-2.5-1.1l0.9-2l2.5,1.1L193.4,112.6z
			 M188.3,110.6l-2.5-1.1l0.9-2l2.5,1.1L188.3,110.6z M183.3,108.5l-2.5-1.1l0.9-2l2.5,1.1L183.3,108.5z M178.2,106.2l-2.5-1.1
			l0.9-2l2.5,1.1L178.2,106.2z M173.2,104.1l-2.5-1.1l0.9-2l2.5,1.1L173.2,104.1z M168.2,102l-2.5-1.1l0.9-2l2.5,1.1L168.2,102z
			 M163.1,99.9l-2.5-1.1l0.9-2l2.5,1.1L163.1,99.9z M158.1,97.7l-2.5-1.1l0.9-2l2.5,1.1L158.1,97.7z M153,95.5l-2.5-1.1l0.9-2
			l2.5,1.1L153,95.5z M148,93.4l-2.5-1.1l0.9-2l2.5,1.1L148,93.4z M143,91.3l-2.5-1.1l0.9-2l2.5,1.1L143,91.3z M137.9,89.1l-2.5-1.1
			l0.9-2l2.5,1.1L137.9,89.1z M132.9,86.9l-2.5-1.1l0.9-2l2.5,1.1L132.9,86.9z M127.8,84.8l-2.5-1.1l0.9-2l2.5,1.1L127.8,84.8z"/>
	</g>
	<g>
		<path class="st1" d="M47.2,111.6c-0.4,0-0.9-0.2-1.2-0.6c-0.4-0.7-0.2-1.5,0.4-1.9c0.5-0.4,13.3-9.2-0.4-33.1
			c-4.6-7-7-15.1-7-23.4c0-23.4,19-42.5,42.4-42.5c21.1,0,39.2,15.7,42,36.6l3.6,25.7c0.1,0.4-0.1,0.8-0.3,1.1
			c-0.3,0.3-0.7,0.5-1,0.5h-6.5v15.7c0,5.3-4.3,9.6-9.6,9.6h-5.1v10.9c0,0.8-0.6,1.4-1.4,1.4s-1.4-0.6-1.4-1.4V97.9
			c0-0.8,0.6-1.4,1.4-1.4h6.5c3.8,0,6.9-3.1,6.9-6.9v-17c0-0.8,0.6-1.4,1.4-1.4h6.3L120.9,47c-2.6-19.5-19.6-34.2-39.3-34.2
			c-21.9,0-39.7,17.9-39.7,39.8c0,7.9,2.3,15.4,6.6,22l0.1,0.1c6.3,10.9,8.2,20.4,5.6,28.2c-2,6-5.9,8.5-6,8.7
			C47.7,111.6,47.5,111.6,47.2,111.6z"/>
	</g>
	<g>
		<path class="st2" d="M348.9,230.9c-0.8,0-1.4-0.6-1.4-1.4v-10.9h-5.1c-5.3,0-9.6-4.3-9.6-9.6v-15.7h-6.5c-0.4,0-0.8-0.2-1-0.5
			c-0.3-0.3-0.4-0.7-0.3-1.1l3.6-25.7c2.8-20.9,20.9-36.6,42-36.6c23.4,0,42.4,19,42.4,42.4c0,8.4-2.4,16.5-7,23.4
			c-13.7,23.9-1,32.8-0.4,33.1c0.6,0.4,0.8,1.3,0.4,1.9c-0.4,0.6-1.3,0.8-1.9,0.4c-0.2-0.1-4.1-2.7-6-8.7
			c-2.6-7.8-0.7-17.3,5.6-28.2l0.1-0.1c4.3-6.5,6.6-14.1,6.6-22c0-21.9-17.8-39.7-39.7-39.7c-19.7,0-36.6,14.7-39.3,34.2l-3.3,24.2
			h6.3c0.8,0,1.4,0.6,1.4,1.4v17.1c0,3.8,3.1,6.9,6.9,6.9h6.5c0.8,0,1.4,0.6,1.4,1.4v12.4C350.2,230.2,349.6,230.9,348.9,230.9z"/>
	</g>
	<path class="st3" d="M324.2,96.3V80.5c0-1.2-0.9-2.1-2.1-2.1h-15.9c-1.9,0-2.7,2.2-1.5,3.6l15.9,15.9
		C321.9,99.1,324.2,98.1,324.2,96.3z"/>
	<path class="st2" d="M284.4,83h37.5c1.3,0,2.3-1,2.3-2.3V49.4c0-1.3-1-2.3-2.3-2.3h-37.5c-1.3,0-2.3,1-2.3,2.3v31.2
		C282.1,81.9,283.1,83,284.4,83z"/>
	<g>
		<polygon class="st4" points="292.7,74.8 292.7,53.9 290.6,53.9 290.6,75 290.6,76.9 292.3,76.9 316.8,76.9 316.8,74.8 		"/>
		<rect x="294.2" y="65.5" class="st4" width="3.6" height="7.9"/>
		<rect x="304.7" y="62.8" class="st4" width="3.6" height="10.5"/>
		<rect x="299.5" y="58" class="st4" width="3.6" height="15.3"/>
		<rect x="309.9" y="55.1" class="st4" width="3.6" height="18.2"/>
	</g>
	<g>
		<path class="st5" d="M110.2,147.9v17.9h23l-19.4-19.4C112.3,145,110.2,146,110.2,147.9z"/>
		<path class="st1" d="M153.2,205.9h-40.4c-1.5,0-2.7-1.2-2.7-2.7v-38.9h43.1c1.6,0,3,1.3,3,3V203
			C156.1,204.6,154.7,205.9,153.2,205.9z"/>
		<g>
			<path class="st2" d="M120.7,198.6h24.7c1,0,1.9-0.8,1.9-1.9v-24.3c0-1-0.8-1.9-1.9-1.9h-24.7c-1,0-1.9,0.8-1.9,1.9v24.4
				C118.8,197.8,119.7,198.6,120.7,198.6z"/>
			<path class="st4" d="M120.7,198.6h24.7c1,0,1.9-0.8,1.9-1.9v-21.1h-28.6v21C118.8,197.8,119.7,198.6,120.7,198.6z"/>
			<rect x="137.5" y="175.5" class="st2" width="1.3" height="23.2"/>
			<rect x="127.5" y="175.5" class="st2" width="1.3" height="23.2"/>
			<rect x="118.8" y="182.5" class="st2" width="28.6" height="1.3"/>
			<rect x="118.8" y="190.6" class="st2" width="28.6" height="1.3"/>
		</g>
	</g>
	<path class="st3" d="M157.4,42.6v-9.8c0-0.7,0.5-1.3,1.3-1.3h9.8c1.2,0,1.7,1.4,0.9,2.2l-9.8,9.8C158.7,44.3,157.4,43.8,157.4,42.6
		z"/>
	<path class="st2" d="M181.6,34.5h-23c-0.7,0-1.4-0.6-1.4-1.4V13.9c0-0.7,0.6-1.4,1.4-1.4h23c0.7,0,1.4,0.6,1.4,1.4v19.2
		C183.1,33.8,182.5,34.5,181.6,34.5z"/>
	<rect x="166.6" y="19" class="st6" width="9.9" height="12.5"/>
	<text transform="matrix(1 0 0 1 166.5983 29.3474)" class="st4 st7 st8">?</text>
	<g>
		<g>
			<path class="st5" d="M407.6,99.1v-8.7c0-0.6-0.5-1.2-1.2-1.2h-8.7c-1,0-1.5,1.3-0.8,1.9l8.7,8.7
				C406.3,100.6,407.6,100.1,407.6,99.1z"/>
			<path class="st1" d="M384.6,91.8h21.9c0.6,0,1.2-0.5,1.2-1.2v-22c0-0.6-0.5-1.2-1.2-1.2h-21.9c-0.6,0-1.2,0.5-1.2,1.2v22
				C383.4,91.3,383.9,91.8,384.6,91.8z"/>
		</g>
		<text transform="matrix(1 0 0 1 391.3502 85.55)" class="st4 st9 st10">?</text>
	</g>
	<g>
		<path class="st1" d="M157.5,165.2l-1.2-1.8l2.3-1.5l1.2,1.8L157.5,165.2z M162,162.2l-1.2-1.8l2.3-1.5l1.2,1.8L162,162.2z
			 M166.6,159.2l-1.2-1.8l2.3-1.5l1.2,1.8L166.6,159.2z M171.1,156.1l-1.2-1.8l2.3-1.5l1.2,1.8L171.1,156.1z M175.7,153.1l-1.2-1.8
			l2.3-1.5l1.2,1.8L175.7,153.1z M180.3,150.1l-1.2-1.8l2.3-1.5l1.2,1.8L180.3,150.1z M184.8,147l-1.2-1.8l2.3-1.5l1.2,1.8
			L184.8,147z M189.4,144l-1.2-1.8l2.3-1.5l1.2,1.8L189.4,144z M193.9,141l-1.2-1.8l2.3-1.5l1.2,1.8L193.9,141z M198.5,137.9
			l-1.2-1.8l2.3-1.5l1.2,1.8L198.5,137.9z M203,134.9l-1.2-1.8l2.3-1.5l1.2,1.8L203,134.9z M207.5,131.8l-1.2-1.8l2.3-1.5l1.2,1.8
			L207.5,131.8z M212.1,128.6l-1.2-1.8l2.3-1.5l1.2,1.8L212.1,128.6z M216.7,125.6l-1.2-1.8l2.3-1.5l1.2,1.8L216.7,125.6z
			 M221.2,122.6l-1.2-1.8l2.3-1.5l1.2,1.8L221.2,122.6z M225.8,119.6l-1.2-1.8l2.3-1.5l1.2,1.8L225.8,119.6z M230.3,116.6l-1.2-1.8
			l2.3-1.5l1.2,1.8L230.3,116.6z M234.9,113.5l-1.2-1.8l2.3-1.5l1.2,1.8L234.9,113.5z M239.4,110.5l-1.2-1.8l2.3-1.5l1.2,1.8
			L239.4,110.5z M244,107.4l-1.2-1.8l2.3-1.5l1.2,1.8L244,107.4z M248.5,104.4l-1.2-1.8l2.3-1.5l1.2,1.8L248.5,104.4z M253.1,101.4
			l-1.2-1.9l2.3-1.5l1.2,1.8L253.1,101.4z M257.7,98.3l-1.2-1.8l2.3-1.5l1.2,1.8L257.7,98.3z M262.2,95.3l-1.2-1.8l2.3-1.5l1.2,1.8
			L262.2,95.3z M266.8,92.2l-1.2-1.8l2.3-1.5l1.2,1.8L266.8,92.2z M271.3,89.2l-1.2-1.8l2.3-1.5l1.2,1.8L271.3,89.2z M275.9,86.1
			l-1.2-1.8l2.3-1.5l1.2,1.8L275.9,86.1z M280.4,83.1l-1.2-1.8l2.3-1.5l1.2,1.8L280.4,83.1z"/>
	</g>
	<circle class="st11" cx="219.4" cy="124.1" r="46.6"/>
	<path class="st4" d="M251.4,109.1l-22,8.7l-8.4,3.3l0,0c-0.3,0.1-0.7,0.2-1,0.2c-0.5,0-1-0.2-1.5-0.4l0,0l-8.3-5.5l-7.2-4.9
		c-1.2-0.7-2.5-0.4-3.1,0.8l-13.7,26.4c-0.6,1.2-0.1,1.8,1.2,1.3l23-9.1l7.7-3c0.3-0.1,0.6-0.2,0.9-0.2c0.5,0,1,0.2,1.5,0.5l0,0
		l9.1,6.2l6.4,4.3c1.2,0.7,2.5,0.4,3.1-0.8l13.7-26.4C253.2,109.4,252.6,108.8,251.4,109.1z M212.2,124.9l-1.9,0.7l-14.4,5.6
		c-0.6,0.2-1.4,0.5-1.6,0.3c-0.2-0.2,0.1-0.9,0.4-1.6l6.6-12.8c0.3-0.6,0.7-1.2,1.3-1.3c0.5-0.1,1.3,0.1,1.8,0.5l5.8,3.9l2.3,1.6
		l0,0c0.4,0.3,1.3,0.8,1.3,1.5C213.7,124.1,212.8,124.6,212.2,124.9z M229.4,122.2l13.4-5.3c0.1,0,0.2-0.1,0.3-0.1
		c0.5-0.2,1.2-0.4,1.4-0.2s-0.1,0.9-0.4,1.6l-6.6,12.8c-0.3,0.6-0.7,1.2-1.3,1.3c-0.4,0.1-0.9,0-1.4-0.2c-0.2-0.1-0.4-0.1-0.5-0.2
		l-4.8-3.2l-2.6-1.8c-0.1-0.1-1.2-0.8-1.2-0.9c-0.3-0.3-0.6-0.6-0.6-0.9c0-0.5,0.6-1,1.3-1.3L229.4,122.2z"/>
</g>
</svg>
