<svg xmlns="http://www.w3.org/2000/svg" viewBox="0 0 63.94 74.25"><defs><style>.cls-1{fill:#e3682a;}.cls-2{fill:#265eac;}</style></defs><title>product-icon-productivity</title><g id="Layer_2" data-name="Layer 2"><g id="Layer_1-2" data-name="Layer 1"><path class="cls-1" d="M31.27,20.59a2.76,2.76,0,0,1-1.93-.81l-.08-.08a3,3,0,0,1-.92-2.5C28.74,14.15,34,11,37.79,8.75c.66-.39,1.27-.76,1.78-1.08a1.29,1.29,0,0,1,1.75,1.75h0l-.81,1.32c-3,5-6,9.47-8.89,9.82Zm-.94-1.94,0,0a1.25,1.25,0,0,0,1.08.41c2.39-.29,5.9-6,7.79-9.12l.31-.5-1,.58c-3.15,1.88-8.42,5-8.72,7.35a1.44,1.44,0,0,0,.49,1.25ZM40,8.63h0Z"/><path class="cls-2" d="M32,34A17,17,0,1,1,49,17,17,17,0,0,1,32,34ZM32,1.5A15.5,15.5,0,1,0,47.47,17,15.52,15.52,0,0,0,32,1.5Z"/><path class="cls-1" d="M43.8,17.75a.75.75,0,0,1-.75-.75A11,11,0,0,0,42,12.2a.75.75,0,1,1,1.35-.65A12.46,12.46,0,0,1,44.55,17,.75.75,0,0,1,43.8,17.75Z"/><path class="cls-1" d="M20.14,17.75a.75.75,0,0,1-.75-.75A12.58,12.58,0,0,1,36.87,5.41a.75.75,0,0,1-.58,1.38A11.08,11.08,0,0,0,20.89,17,.75.75,0,0,1,20.14,17.75Z"/><path class="cls-1" d="M23.45,25.45h-.9a.75.75,0,0,1,0-1.5h.9a.75.75,0,0,1,0,1.5Z"/><path class="cls-1" d="M32.38,29.54h-.9a.75.75,0,0,1,0-1.5h.9a.75.75,0,0,1,0,1.5Z"/><path class="cls-1" d="M41.5,25.45h-.9a.75.75,0,0,1,0-1.5h.9a.75.75,0,0,1,0,1.5Z"/><path class="cls-2" d="M59.5,59.33h-55A4.45,4.45,0,0,1,0,54.88V15.81a4.45,4.45,0,0,1,4.45-4.45h8a.75.75,0,0,1,0,1.5h-8A3,3,0,0,0,1.5,15.81V54.88a3,3,0,0,0,2.95,2.95h55a3,3,0,0,0,2.95-2.95V15.81a3,3,0,0,0-2.95-2.95H51.42a.75.75,0,0,1,0-1.5H59.5a4.45,4.45,0,0,1,4.45,4.45V54.88A4.45,4.45,0,0,1,59.5,59.33Z"/><path class="cls-2" d="M63.19,50.62H.75A.75.75,0,0,1,0,49.87V17.92a.75.75,0,1,1,1.5,0v31.2H62.44V17.92a.75.75,0,1,1,1.5,0V49.87A.75.75,0,0,1,63.19,50.62Z"/><path class="cls-2" d="M35.6,55H28.34a.75.75,0,0,1,0-1.5H35.6a.75.75,0,0,1,0,1.5Z"/><path class="cls-2" d="M32,74.25a.75.75,0,0,1-.75-.75V61.88a.75.75,0,1,1,1.5,0V73.5A.75.75,0,0,1,32,74.25Z"/><path class="cls-2" d="M45,74.25H18.9a.75.75,0,0,1,0-1.5H45a.75.75,0,0,1,0,1.5Z"/><path class="cls-1" d="M54.92,38.5h-15a.75.75,0,0,1,0-1.5h15a.75.75,0,0,1,0,1.5Z"/><path class="cls-1" d="M23.92,38.5h-15a.75.75,0,0,1,0-1.5h15a.75.75,0,0,1,0,1.5Z"/><path class="cls-1" d="M54.92,44.5h-46a.75.75,0,0,1,0-1.5h46a.75.75,0,0,1,0,1.5Z"/></g></g></svg>