<svg xmlns="http://www.w3.org/2000/svg" viewBox="0 0 77.5 65.5"><defs><style>.cls-1{fill:#265eac;}.cls-2{fill:#e7412c;}</style></defs><title>product-icon-dataconfidence</title><g id="Layer_2" data-name="Layer 2"><g id="Layer_1-2" data-name="Layer 1"><path class="cls-1" d="M72.75,50.5h-68A.75.75,0,0,1,4,49.75v-35a.75.75,0,0,1,1.5,0V49H72V14.75a.75.75,0,0,1,1.5,0v35A.75.75,0,0,1,72.75,50.5Z"/><path class="cls-1" d="M76.75,11.5H.75A.75.75,0,0,1,0,10.75v-5A.75.75,0,0,1,.75,5H23.24L25.05.47a.75.75,0,0,1,.7-.47h26a.75.75,0,0,1,.7.47L54.26,5H76.75a.75.75,0,0,1,.75.75v5A.75.75,0,0,1,76.75,11.5ZM1.5,10H76V6.5H53.75a.75.75,0,0,1-.7-.47L51.24,1.5h-25L24.45,6a.75.75,0,0,1-.7.47H1.5Z"/><path class="cls-1" d="M38.75,57.5a.75.75,0,0,1-.75-.75v-7a.75.75,0,0,1,1.5,0v7A.75.75,0,0,1,38.75,57.5Z"/><path class="cls-1" d="M38.75,65.5a4.75,4.75,0,1,1,4.75-4.75A4.76,4.76,0,0,1,38.75,65.5Zm0-8A3.25,3.25,0,1,0,42,60.75,3.25,3.25,0,0,0,38.75,57.5Z"/><path class="cls-2" d="M65.75,31H55.25a.75.75,0,0,1-.75-.75V19.75a.75.75,0,0,1,.75-.75A11.26,11.26,0,0,1,66.5,30.25.75.75,0,0,1,65.75,31ZM56,29.5h9a9.77,9.77,0,0,0-9-9Z"/><path class="cls-2" d="M55.25,41.5a11.25,11.25,0,1,1,0-22.5.75.75,0,0,1,.75.75V29.5h9.75a.75.75,0,0,1,.75.75A11.26,11.26,0,0,1,55.25,41.5Zm-.75-21A9.75,9.75,0,1,0,65,31H55.25a.75.75,0,0,1-.75-.75Z"/><path class="cls-2" d="M12.75,24.5a2.75,2.75,0,1,1,2.75-2.75A2.75,2.75,0,0,1,12.75,24.5Zm0-4A1.25,1.25,0,1,0,14,21.75,1.25,1.25,0,0,0,12.75,20.5Z"/><path class="cls-2" d="M32.75,19.5h-13a.75.75,0,0,1,0-1.5h13a.75.75,0,0,1,0,1.5Z"/><path class="cls-2" d="M32.75,25.5h-13a.75.75,0,0,1,0-1.5h13a.75.75,0,0,1,0,1.5Z"/><path class="cls-2" d="M12.75,41.5a2.75,2.75,0,1,1,2.75-2.75A2.75,2.75,0,0,1,12.75,41.5Zm0-4A1.25,1.25,0,1,0,14,38.75,1.25,1.25,0,0,0,12.75,37.5Z"/><path class="cls-2" d="M32.75,36.5h-13a.75.75,0,0,1,0-1.5h13a.75.75,0,0,1,0,1.5Z"/><path class="cls-2" d="M32.75,42.5h-13a.75.75,0,0,1,0-1.5h13a.75.75,0,0,1,0,1.5Z"/></g></g></svg>