<svg xmlns="http://www.w3.org/2000/svg" viewBox="0 0 81.16 81.16"><defs><style>.cls-1{fill:#e3682a;}.cls-2{fill:#265eac;}</style></defs><title>product-icon-workbetter</title><g id="Layer_2" data-name="Layer 2"><g id="Layer_1-2" data-name="Layer 1"><path class="cls-1" d="M50.58,47.5h-20a.75.75,0,0,1,0-1.5h20a.75.75,0,1,1,0,1.5Z"/><path class="cls-1" d="M50.58,43.5h-20a.75.75,0,0,1,0-1.5h20a.75.75,0,1,1,0,1.5Z"/><path class="cls-1" d="M45.58,32.5h-10a.75.75,0,0,1,0-1.5h10a.75.75,0,1,1,0,1.5Z"/><path class="cls-2" d="M11.78,52.36a11.77,11.77,0,1,1,8.33-3.44A11.74,11.74,0,0,1,11.78,52.36Zm0-22.06a10.28,10.28,0,1,0,7.27,3A10.21,10.21,0,0,0,11.78,30.3Z"/><path class="cls-2" d="M40.58,81.16a11.77,11.77,0,1,1,8.33-3.44A11.74,11.74,0,0,1,40.58,81.16Zm0-22.06a10.28,10.28,0,1,0,7.27,3A10.21,10.21,0,0,0,40.58,59.1Z"/><path class="cls-2" d="M69.38,52.36a11.77,11.77,0,1,1,8.33-3.44A11.74,11.74,0,0,1,69.38,52.36Zm0-22.06a10.28,10.28,0,1,0,7.27,3A10.21,10.21,0,0,0,69.38,30.3Z"/><path class="cls-2" d="M40.58,23.56A11.78,11.78,0,0,1,32.25,3.45,11.78,11.78,0,1,1,48.91,20.11h0A11.7,11.7,0,0,1,40.58,23.56Zm0-22.06a10.28,10.28,0,0,0-7.27,17.55,10.28,10.28,0,0,0,14.54,0h0A10.28,10.28,0,0,0,40.58,1.5Z"/><path class="cls-2" d="M50.7,59.83a.75.75,0,0,1-.53-1.28L61,47.85a.75.75,0,1,1,1.05,1.07L51.23,59.62A.75.75,0,0,1,50.7,59.83Z"/><path class="cls-2" d="M30.28,60.08a.75.75,0,0,1-.54-.23L19,48.91a.75.75,0,1,1,1.07-1l10.71,11a.75.75,0,0,1-.54,1.27Z"/><path class="cls-2" d="M19.58,33.53A.75.75,0,0,1,19,32.25L29.59,21.8a.75.75,0,0,1,1.06,1.07L20.1,33.31A.75.75,0,0,1,19.58,33.53Z"/><path class="cls-2" d="M61.58,33.53a.75.75,0,0,1-.53-.22L50.34,22.61a.75.75,0,0,1,1.06-1.06l10.71,10.7a.75.75,0,0,1-.53,1.28Z"/><path class="cls-1" d="M11.78,47.27a6.69,6.69,0,1,1,4.73-2h0A6.64,6.64,0,0,1,11.78,47.27Zm0-11.88a5.19,5.19,0,1,0,3.67,8.86h0a5.19,5.19,0,0,0-3.67-8.86Z"/><path class="cls-1" d="M40.58,76.07a6.69,6.69,0,1,1,4.73-2h0A6.64,6.64,0,0,1,40.58,76.07Zm0-11.88a5.19,5.19,0,1,0,3.67,8.86h0a5.19,5.19,0,0,0-3.67-8.86Z"/><path class="cls-1" d="M69.38,47.27a6.69,6.69,0,1,1,4.73-2h0A6.64,6.64,0,0,1,69.38,47.27Zm0-11.88A5.19,5.19,0,1,0,73,44.25h0a5.19,5.19,0,0,0-3.67-8.86Z"/><path class="cls-1" d="M40.58,18.47a6.69,6.69,0,1,1,4.73-2h0A6.64,6.64,0,0,1,40.58,18.47Zm0-11.88a5.19,5.19,0,1,0,3.67,8.86h0a5.19,5.19,0,0,0-3.67-8.86Z"/></g></g></svg>