<svg xmlns="http://www.w3.org/2000/svg" viewBox="0 0 500 500"><title>icon-calendar</title><g id="Layer_2" data-name="Layer 2"><g id="Layer_1-2" data-name="Layer 1"><g id="Layer_2-2" data-name="Layer 2"><g id="Layer_1-2-2" data-name="Layer 1-2"><path d="M465,40H420V10a10,10,0,0,0-20,0V40H100V10a10,10,0,0,0-20,0V40H35A35,35,0,0,0,0,75V465a35,35,0,0,0,35,35H465a35,35,0,0,0,35-35V75A35,35,0,0,0,465,40ZM35,60H80V90a10,10,0,0,0,20,0V60H400V90a10,10,0,0,0,20,0V60h45a15,15,0,0,1,15,15v65H20V75A15,15,0,0,1,35,60ZM465,480H35a15,15,0,0,1-15-15V160H480V465A15,15,0,0,1,465,480Z"/><circle cx="170" cy="230" r="20"/><circle cx="250" cy="230" r="20"/><circle cx="330" cy="230" r="20"/><circle cx="410" cy="230" r="20"/><circle cx="90" cy="310" r="20"/><circle cx="170" cy="310" r="20"/><circle cx="250" cy="310" r="20"/><circle cx="330" cy="310" r="20"/><circle cx="410" cy="310" r="20"/><circle cx="90" cy="390" r="20"/><circle cx="170" cy="390" r="20"/><circle cx="250" cy="390" r="20"/></g></g></g></g></svg>