<?xml version="1.0" encoding="utf-8"?>
<!-- Generator: Adobe Illustrator 21.0.0, SVG Export Plug-In . SVG Version: 6.00 Build 0)  -->
<svg version="1.1" id="document" xmlns="http://www.w3.org/2000/svg" xmlns:xlink="http://www.w3.org/1999/xlink" x="0px" y="0px"
	 viewBox="0 0 500 500" style="enable-background:new 0 0 500 500;" xml:space="preserve">
<g>
	<path d="M125,158.4v2.9c0,5.3,4.3,9.5,9.5,9.5h230.9c5.3,0,9.5-4.3,9.5-9.5v-2.9c0-5.3-4.3-9.5-9.5-9.5H134.5
		C129.3,148.9,125,153.1,125,158.4z"/>
	<path d="M134.5,110.7h97.3c5.3,0,9.5-4.3,9.5-9.5v-2.9c0-5.3-4.3-9.5-9.5-9.5h-97.3c-5.3,0-9.5,4.3-9.5,9.5v2.9
		C125,106.4,129.3,110.7,134.5,110.7z"/>
	<path d="M365.5,209H134.5c-5.3,0-9.5,4.3-9.5,9.5v2.9c0,5.3,4.3,9.5,9.5,9.5h230.9c5.3,0,9.5-4.3,9.5-9.5v-2.9
		C375,213.2,370.7,209,365.5,209z"/>
	<path d="M365.5,269.1H134.5c-5.3,0-9.5,4.3-9.5,9.5v2.9c0,5.3,4.3,9.5,9.5,9.5h230.9c5.3,0,9.5-4.3,9.5-9.5v-2.9
		C375,273.4,370.7,269.1,365.5,269.1z"/>
	<path d="M365.5,329.2H134.5c-5.3,0-9.5,4.3-9.5,9.5v2.9c0,5.3,4.3,9.5,9.5,9.5h230.9c5.3,0,9.5-4.3,9.5-9.5v-2.9
		C375,333.5,370.7,329.2,365.5,329.2z"/>
	<path d="M365.5,389.3H134.5c-5.3,0-9.5,4.3-9.5,9.5v2.9c0,5.3,4.3,9.5,9.5,9.5h230.9c5.3,0,9.5-4.3,9.5-9.5v-2.9
		C375,393.6,370.7,389.3,365.5,389.3z"/>
	<path d="M432.9,105.5l-1.5,1.2l1.3-1.4l-70.8-89.5L349.5,0h-279c-7.3,0-13.3,5.9-13.3,13.2v473.5c0,7.3,6,13.2,13.3,13.2h359
		c7.3,0,13.3-5.9,13.3-13.2V117.9L432.9,105.5z M362.4,40.9l50.5,63.8l-42.5,0c-4.4,0-8-3.6-8-8L362.4,40.9z M429.4,475.5
		c0,4.9-4,8.9-8.9,8.9h-341c-4.9,0-8.9-4-8.9-8.9V24.5c0-4.9,4-8.9,8.9-8.9h267.1v92.9c0,6.5,5.3,11.8,11.8,11.8h70.9V475.5z"/>
</g>
</svg>
