<svg id="Layer_1" data-name="Layer 1" xmlns="http://www.w3.org/2000/svg" viewBox="0 0 500 500"><title>icon-play-1</title><path d="M249.95,493.76C111.87,493.73,0,384.47,0,249.72S112,5.75,250.05,5.78,500,115,500,249.72C499.85,384.44,388,493.61,249.95,493.76Zm0-474.22C119.66,19.54,14,122.62,14,249.77S119.66,480,249.95,480,485.85,376.92,485.85,249.77v-.05C485.67,122.64,380.15,19.68,249.95,19.54Z"/><path d="M204.23,338.36c-11.7,0-19.54-9.08-19.54-22.57V183.65c0-13.49,7.84-22.57,19.54-22.57a27.69,27.69,0,0,1,13.39,4l117.38,66a20,20,0,0,1,11.13,26.31A20.38,20.38,0,0,1,335,268.25L217.62,334.48A27.7,27.7,0,0,1,204.23,338.36Zm0-163.42c-4.73,0-5.44,5.31-5.44,8.76V315.84c0,3.29.71,8.76,5.44,8.76a14,14,0,0,0,6.48-2.07l117.22-66.07c3.65-2.07,5.71-4.51,5.71-6.69s-2.07-4.62-5.71-6.69L210.66,177a14,14,0,0,0-6.42-2.07Z"/></svg>