<svg id="Layer_1" data-name="Layer 1" xmlns="http://www.w3.org/2000/svg" viewBox="0 0 500 500"><title>icon-storage-circle</title><path d="M250,0C111.93,0,0,111.93,0,250S111.93,500,250,500,500,388.07,500,250,388.07,0,250,0ZM129,173.25h0a5.75,5.75,0,0,0-.11.73c0,19.3,54.17,35,121.06,35s121-15.56,121-34.84v44.09h0c-1.14,19-54.82,34.37-121,34.37s-119.87-15.37-121-34.37h0ZM371,329.4v16.85h0c-1.14,19-54.82,34.35-121,34.35s-119.87-15.35-121-34.35h0v-45h0a4,4,0,0,0-.11.63c0,19.31,54.17,35,121.06,35s121-15.63,121-34.9v27.32h0Zm0-54.23v7.08h0c-1.14,19-54.82,34.35-121,34.35s-119.87-15.35-121-34.35h0v-45h0a5.55,5.55,0,0,0-.11.71C128.91,257.3,183.08,273,250,273s121-15.56,121-34.84v36.08h0Zm.11-54.24c0-.18-.08-.34-.1-.52h.1Zm0-55.42a5.47,5.47,0,0,0-.1-.55h.1ZM250,189c-66.88,0-121.11-15.65-121.11-34.92s54.23-35,121.11-35,121.11,15.66,121.11,35S316.89,189,250,189Z"/></svg>